<?xml version="1.0" encoding="utf-8"?>
<!-- Generator: Adobe Illustrator 15.0.0, SVG Export Plug-In . SVG Version: 6.00 Build 0)  -->
<!DOCTYPE svg PUBLIC "-//W3C//DTD SVG 1.1 Basic//EN" "http://www.w3.org/Graphics/SVG/1.1/DTD/svg11-basic.dtd">
<svg version="1.1" baseProfile="basic" id="Layer_1"
	 xmlns="http://www.w3.org/2000/svg" xmlns:xlink="http://www.w3.org/1999/xlink" x="0px" y="0px" width="280.851px"
	 height="79.038px" viewBox="0 0 280.851 79.038" xml:space="preserve">
<g>
	<path fill-rule="evenodd" clip-rule="evenodd" fill="none" stroke="#005DA9" stroke-width="0.216" stroke-miterlimit="22.9256" d="
		M13.074,32.036c-0.642-1.183,2.167-7.651,2.744-8.78h0.29C16.115,26.78,25.062,30.461,13.074,32.036z"/>
	<path fill-rule="evenodd" clip-rule="evenodd" fill="none" stroke="#005DA9" stroke-width="0.216" stroke-miterlimit="22.9256" d="
		M35.04,31.634c-3.14-0.577-3.605-2.436-4.336-4.789c0.882-0.812,2.07-1.684,3.034-2.395C33.997,24.769,37.852,31.634,35.04,31.634z
		"/>
	
		<path fill-rule="evenodd" clip-rule="evenodd" fill="#FFFFFF" stroke="#005DA9" stroke-width="0.216" stroke-miterlimit="22.9256" d="
		M28.111,78.591c0,0.133-0.145,0.134-0.289,0.4c-7.923,0.561-19.366-4-19.366-11.837C3.822,65.028-4.203,54.63,2.672,51.458
		c1.323-6.08,2.011-11.855,6.5-17.027C8.932,29.782-0.41,19.476,0.21,18.337c0.577-0.133,1.445-0.133,2.167-0.133
		c0-1.021,0.081-3.688,1.011-4.257c1.972,0.603,2.611,3.751,3.036,5.32h0.144c0-0.997,1.456-2.794,2.601-2.794
		c1.231,1.133-0.037,2.558,0.434,3.857c0.937-0.43,0.001-1.195,2.457-1.198c1.043,0.961,1.961,3.8,2.168,3.99
		c0.847,0,1.06-0.532,1.879-0.532c0.806-2.963,4.248-6.586,1.588-9.046c-3.442-8.705,7.802-3.392,7.802-10.775
		c0.159-0.073,3.901-6.692,3.901,0.797C29.109,3.7,28.965,3.7,28.531,3.966c0,5.193,8.967,4.113,6.216,9.178
		c-1.041,3.593-3.17,5.188-1.298,8.812l0.578,0.101c0-1.955,4.354-0.272,6.091-5.124l0.121-1.927
		c0.377-0.345,0.511-0.87,1.012-1.331c0.703,0.646,2.528,1.264,2.024,2.661l-0.434,0.133c0.913,3.222,4.387,3.875,6.581,5.812
		c-0.284,0.872-2.665,3.956-2.442,6.332l0.159,1.705c0.191,2.044-0.982,1.954-1.15,4.56c3.774,1.733,13.722,14.718,4.083,13.915
		c0,10.81,6.172,16.815-7.654,26.073C38.814,76.8,32.271,79.864,28.111,78.591L28.111,78.591z M35.04,31.634
		c2.812,0-1.042-6.865-1.303-7.184c-0.963,0.711-2.151,1.583-3.034,2.395C31.435,29.198,31.9,31.057,35.04,31.634L35.04,31.634z
		 M13.074,32.036c11.988-1.575,3.042-5.256,3.033-8.78h-0.29C15.241,24.385,12.432,30.854,13.074,32.036z"/>
	<path fill-rule="evenodd" clip-rule="evenodd" fill="#0072BC" d="M41.375,33.141c0.195,0.187,0.538,0.301,0.562,0.586
		c0.006,0.071-0.314,0.102-0.383,0.116c-0.01,0.002-0.192-0.031-0.203-0.029c-0.234,0.047-0.393-0.002-0.594-0.099
		c-0.028-0.014-0.232,0.08-0.263,0.064c-0.041-0.042-0.028-0.083-0.07-0.124c0.071,0.032,0.309,0.004,0.369,0.025
		c0.26,0.091,0.428,0.083,0.638-0.006c0.02-0.008,0.1,0.069,0.12,0.06c0.021-0.01,0.114-0.084,0.136-0.095
		c0.014-0.039-0.058-0.09-0.09-0.111c-0.034-0.022-0.09-0.062-0.111-0.093C41.502,33.404,41.359,33.173,41.375,33.141z"/>
	<polygon fill-rule="evenodd" clip-rule="evenodd" fill="#0072BC" points="40.505,35.781 40.896,35.667 41.453,35.715 
		41.788,35.813 41.88,35.944 41.639,35.846 41.229,35.764 40.896,35.796 40.635,35.83 	"/>
	<path fill-rule="evenodd" clip-rule="evenodd" fill="#008EC8" d="M28.112,78.591c0,0.133-0.145,0.134-0.29,0.4
		c-7.923,0.561-19.366-4.001-19.366-11.837C3.822,65.028-4.203,54.63,2.672,51.458c1.323-6.08,2.011-11.855,6.5-17.027
		c-0.24-4.649-9.581-14.955-8.962-16.094c0.578-0.133,1.445-0.133,2.167-0.133c0-1.021,0.081-3.688,1.011-4.257
		c1.972,0.603,2.611,3.751,3.036,5.32h0.144c0-0.997,1.456-2.794,2.601-2.794c1.231,1.133-0.037,2.558,0.435,3.857
		c0.936-0.43,0-1.195,2.456-1.198c1.043,0.961,1.961,3.8,2.168,3.99c0.847,0,1.06-0.532,1.878-0.532
		c0.807-2.962,4.249-6.586,1.589-9.046c-3.442-8.705,7.802-3.392,7.802-10.776c0.159-0.073,3.901-6.691,3.901,0.797
		C29.109,3.7,28.965,3.7,28.531,3.965c0,5.193,8.967,4.114,6.216,9.178c-1.041,3.593-3.17,5.188-1.298,8.812l0.578,0.101
		c0-1.955,4.354-0.272,6.091-5.124l0.121-1.927c0.377-0.345,0.511-0.87,1.011-1.331c0.703,0.646,2.528,1.264,2.024,2.661
		l-0.434,0.133c0.913,3.222,4.387,3.875,6.581,5.812c-0.284,0.872-2.664,3.956-2.442,6.332l0.16,1.705
		c0.191,2.045-0.982,1.954-1.15,4.56c3.774,1.733,13.722,14.718,4.083,13.915c0,10.81,6.173,16.815-7.653,26.073
		C38.814,76.8,32.271,79.864,28.112,78.591L28.112,78.591z M30.668,35.765v0.336l0.255,0.111l0.17,0.262l0.51-0.224l0.255-0.374
		l0.043-0.411l-0.511-0.299L30.668,35.765L30.668,35.765z M29.932,29.158v0.496l-0.047,0.495l-0.423,0.165l-0.094,0.537l0.47,0.083
		l0.611-0.124c0,0,0.141-0.166,0.094-0.372c-0.047-0.207-0.094-0.372-0.141-0.578c-0.047-0.207-0.094-0.372-0.094-0.578
		s-0.235-0.743-0.235-0.743L29.932,29.158L29.932,29.158z M22.737,29.447l-0.188,0.372l0.518,0.165l0.564,0.454l0.941,0.33
		l-0.423-0.454l-0.564-0.454l0.235-0.29l-0.423-0.33C23.396,29.241,23.067,29.447,22.737,29.447L22.737,29.447z M43.825,43.845
		c-0.457-0.488-1.821-0.637-1.296,0.043c-0.603,1.234-0.831,1.646,0.908,1.947c1.67-0.51,1.57-0.735,0.96-1.748
		C44.207,44.007,44.016,43.926,43.825,43.845L43.825,43.845z M25.366,77.927l0.144-0.266c0.434,0.266,0.579,0.266,1.012,0.266
		c2.872-2.644,0.527-11.804,2.599-13.702l0.434,0.134l-1.442,13.303c0.578-0.134,0.867,0.266,1.445,0.265
		c1.563-2.87,0.886-11.606,0.142-15.032h-0.145c-1.846,1.701-7.044,12.771-9.102,12.771l2.456-4.256c-0.39,0-3.612,4.309-3.612,4.39
		C20.943,76.81,22.939,77.291,25.366,77.927L25.366,77.927z M31.146,77.527c2.843,0,6.99-1.866,9.393-3.193
		c1.36-1.88-0.092-17.814-1.735-7.184c-1.579,1.447-1.062,0.424-3.035,1.33c-3.004-1.842,1.572-6.916-1.013-6.916
		c-1.445,0-2.746,0.267-4.19,0C31.091,66.88,30.824,75.011,31.146,77.527L31.146,77.527z M17.707,75.667
		c2.823,0,12.028-14.867,12.424-18.892h-0.145c-0.73,0.88-10.679,11.309-12.137,11.309c-1.105-1.018,9.159-7.026,11.751-13.104
		l1.107-2.595c-5.285,0-14.601,16.631-20.662,16.631c-0.144-0.398-0.144-0.398-0.144-0.532
		C7.608,70.591,16.718,75.388,17.707,75.667L17.707,75.667z M41.984,73.269c0.751-0.461,1.878-0.713,1.878-1.73
		c-1.275-0.391-1.299-1.596-2.313-1.596C41.497,70.289,41.463,73.269,41.984,73.269L41.984,73.269z M43.574,70.341
		c3.518,0,4.538-10.983,4.044-11.439c-3.111,0-0.913,7.626-2.744,9.312c-3.057,0-1.055-4.736-1.591-5.72
		C40.737,64.836,42.505,68.38,43.574,70.341L43.574,70.341z M47.041,68.612c3.726-3.413,2.599-7.781,2.599-11.973
		C48.684,56.639,47.573,67.352,47.041,68.612L47.041,68.612z M11.194,68.085c1.158-0.92,9.11-7.6,9.11-8.515
		c-1.582,0-5.29,0.922-7.146,3.196C9.975,66.667,9.962,67.473,11.194,68.085L11.194,68.085z M37.358,67.15
		c2.001-1.844,1.543-2.53-1.156-2.527c-0.506,0.465-0.578,1.09-0.578,1.73c1.172,0.719,0.53-0.134,1.59-0.134
		C37.358,66.353,37.358,67.017,37.358,67.15L37.358,67.15z M44.439,67.016c0.804-1.479,0.048-5.097,0.577-7.05l-0.434-0.399
		C43.913,60.183,43.566,66.21,44.439,67.016L44.439,67.016z M8.6,65.825c0.19-0.087,0.638-0.133,0.867-0.133
		c0-0.938,4.768-2.554,4.768-8.913l-0.434-0.133c-0.289,0.664-2.6,2.209-2.6,2.494c0.628,0.289,1.701,0.702,0.742,1.585
		c-2.083,0-3.597-5.766-3.345-7.006c4.168-6.393-5.432,1.985-5.721,2.118c-0.326-0.387-1.128-0.68-1.648,0.277
		C1.894,58.36,6.16,65.184,8.6,65.825L8.6,65.825z M37.647,63.425c1.06-0.193,2.487-0.932,3.179-0.932
		c0-0.17-5.812-2.094-6.484-2.094c0.259,0.615,1.834,0.901,2.701,1.754C37.91,63.005,37.746,63.419,37.647,63.425L37.647,63.425z
		 M42.56,61.429h0.722c1.231-3.404-1.323-8.494,1.732-11.307c0.161,0,3.272,2.629,4.192,3.191l0.289-0.266
		c-3.25-11.984-22.836-3.839-18.785,7.318c0.723,0.267,1.445,0.532,2.312,0.267c0-1.496-1.653-8.284-0.001-9.046
		c3.416,1.574-4.083,7.976,4.625,3.99c-0.001-1.527-0.389-2.961,0.287-5.455c1.858,0,0.868,4.501,0.869,5.721h0.433
		c0.659,1.212-1.299,1.535-1.299,2.66c0.687,0,1.407-0.764,1.878-1.197c2.152,0-1.131,2.262-1.878,2.262
		c1.98,0.455,2.445-0.932,3.901-0.932c0.145,0.266,0.145,0.398,0.145,0.532c-0.698,0.514-2.492,1.128-2.168,1.729
		C40.825,60.898,41.548,61.43,42.56,61.429L42.56,61.429z M36.201,60.134c1.457,0,0.578-1.152,0.578-1.992
		c-0.422,0-3.033,0.854-3.033,1.039L36.201,60.134L36.201,60.134z M16.258,59.572h0.145l-0.578-0.398
		C15.825,59.572,16.258,59.572,16.258,59.572L16.258,59.572z M20.449,59.171l2.022-1.197v-0.266c-0.117,0.016-6.213,0.267-6.358,0.4
		C17.475,59.357,19.266,58.446,20.449,59.171L20.449,59.171z M45.594,59.035c2.914-1.338,1.17-2.646-0.434-4.123h-0.289
		L45.594,59.035L45.594,59.035z M12.067,57.976c0.597-1.104-0.955-5.397-1.59-5.986l-0.579,0.134
		C9.898,56.47,9.954,55.062,12.067,57.976L12.067,57.976z M18.944,57.177c2.635,0.48,0.485-0.111,0.485-1.756
		c4.391,1.203,2.037,2.482,9.111-2.636l-0.145-0.267c-1.262-0.104-12.601,2.288-13.15,2.795
		C14.447,57.518,18.229,56.517,18.944,57.177L18.944,57.177z M48.051,56.241c2.625-0.806-2.854-3.724-3.181-3.724
		c0,1.416,2.05,2.486,2.891,3.724H48.051L48.051,56.241z M1.806,55.317c0.402,0,3.362-2.614,5.057-3.06l-0.289-0.267
		c0.862-1.19,2.106-0.212,3.324-0.532c0-1.109-0.934-2.723-1.879-3.592c-2.95,0-0.598-2.582-1.591-5.32
		c-2.817,2.581,0.809,8.461,0.725,8.513L4.406,49.73c-0.202,0.559-0.729,1.184-0.433,1.729c0.803,0,1.363-0.139,2.023,0.267
		C5.997,52.142-0.79,52.938,1.806,55.317L1.806,55.317z M12.5,54.783c1.186,0,1.448-1.131,2.167-1.463
		c-0.953-2.627,0.443-1.325-2.168-2.527C11.651,51.574,11.048,54.117,12.5,54.783L12.5,54.783z M18.425,53.453
		c3.195,0-2.643-3.79-0.579-5.055c1.156,1.463,1.589,3.324,2.89,4.521c0.723,0,1.301-0.133,2.167-0.399
		c0-1.896-4.517-6.977-3.469-8.911c2.022,1.861,2.808,6.09,4.192,8.645c1.286,0.236,1.624-0.266,2.458-0.266
		c0-2.422-4.873-7.742-3.734-9.844c4.493,2.754,0.754,10.928,8.647,9.311l0.145,0.133c0-0.869-5.546-5.271-4.048-6.65
		c1.496,0.459,1.102,3.326,2.891,3.326c0.176-0.762,1.195-9.412-0.002-10.509c-4.033,0.884-13.729,0.4-13.729-5.053
		c-7.863-0.8-3.667,6.036-1.877,9.843c0.486,0,0.742,0.133,1.229,0.133c0.159,0.51,0.79,1.846,0.888,3.147
		C16.768,49.451,17.83,53.453,18.425,53.453L18.425,53.453z M15.824,53.32h0.289c0.443-0.82,0.391-0.305-0.434-1.064
		C15.679,52.521,15.679,53.054,15.824,53.32L15.824,53.32z M32.008,51.056c1.42-1.305-0.412-17.405,3.032-14.235
		c0.507-0.63-0.002-1.812-0.653-1.192c-0.645,0.614-1.483,0.909-3.439,1.852L32.008,51.056L32.008,51.056z M14.667,50.527h0.144
		l0.29-0.267c-0.548-0.505-4.047-1.642-4.047-0.398C11.364,49.943,14.328,50.527,14.667,50.527L14.667,50.527z M14.811,49.197
		c0.572-0.792-0.145-0.344-0.145-0.932c-1.248-0.383-1.854-1.514-3.468-0.398l0,0.531C12.644,48.132,13.799,48.796,14.811,49.197
		L14.811,49.197z M33.144,49.431c1.25-0.854,4.126-1.672,4.215-3.017l0.276-4.139c0.037-0.562-1.726,0.511-2.402,0.64l-1.9,0.865
		L33.144,49.431L33.144,49.431z M9.897,48.665h0.145c0.581-3.22-1.157-2.778-1.157-4.788c0.927,0,1.227,1.014,1.878,1.463
		c0.181-0.167-0.868-3.527-0.868-4.123c1.015-0.005,0.732,2.136,1.59,2.926c3.059-0.006-0.959-8.348-1.447-8.646
		C5.326,37.667,7.273,45.443,9.897,48.665L9.897,48.665z M50.627,47.533c0.777,0,2.241,0.072,2.927-0.244
		c-0.905-6.588-4.757-8.393-5.95-10.609c-0.381-0.709-1.573-1.123-2.142-0.912c-0.833,0.309-1.522,1.855-2.127,1.872l-2.099,0.058
		l-2.46-0.416c-0.213,0.196,0.572,1.05,0.747,2.23c0.175,1.182-1.244,3.562-0.938,4.791c0.258,1.037,1.537,1.072,1.804,1.564
		c0.471-0.879,0.608-1.805,1.306-2.428c0.248-0.221,0.484-0.43,0.708-0.625c0.331-0.289,1.157,0.213,1.439-0.023
		c0.281-0.235,0.019-1.208,0.255-1.396c1.416-1.122,2.036-1.403,2.208-1.269c0.548,0.427-0.645,2.82,2.175,0.151
		c1.331,0,3.381,5.708,1.59,2.395c-0.433,0.267-1.361,0.339-1.505,0.339c0,0.567,0.19,3.246,0.876,4.344
		c0.153,0.246,0.083-1.676,0.366-1.645C50.281,45.763,50.34,47.445,50.627,47.533L50.627,47.533z M45.881,47.461
		c2.667-2.442,1.933-1.463-3.324-1.463v0.267C43.424,46.929,44.869,47.196,45.881,47.461L45.881,47.461z M13.57,47.212l1.241,0.121
		C14.81,46.765,9.207,45.209,13.57,47.212L13.57,47.212z M15.685,46.403h0.426c0-2.075-3.469-3.11-3.469-1.33
		C13.076,45.339,15.55,46.403,15.685,46.403L15.685,46.403z M47.157,45.56c0.324,0.414,0.05-0.908,1.647,1.654
		c0-0.127-0.51-2.701-1.484-3.438c-0.734-0.555-0.548-1.066-0.717-1.299c-0.215,0-0.401,0.015-0.561,0.043
		c-0.237,0.041-0.683-0.281-0.817-0.17c-0.133,0.112-0.209,0.193-0.266,0.383c-0.068,0.227-0.09,0.518-0.09,0.87
		c-1.363,0.513,0.689-0.474,0.689,1.705L47.157,45.56L47.157,45.56z M47.181,43.072l1.193-0.732l-1.337-0.199L47.181,43.072
		L47.181,43.072z M33.642,41.66c0.498-2.441,1.477-2.786,2.854-4.322c0.396-0.442-2.133,0.089-2.295-0.068
		C33.281,38.578,32.718,40.22,33.642,41.66L33.642,41.66z M34.052,43.109l3.299-1.217c-0.109-0.515-0.093-1.174-0.102-1.562
		c-0.005-0.205-0.216-1.545-0.307-1.935c-0.124,0.06-0.36-0.021-0.396,0.167c-0.065,0.333-0.084,1.138-0.129,1.692
		c-0.014,0.18-0.026,0.184-0.177,0.138c-0.241-0.073-0.532,0.039-0.571,0.22c-0.005,0.023-0.031,0.023-0.034,0.02
		c-0.153-0.299-0.903,0.016-0.917,0.48c-0.001,0.02-0.04-0.015-0.059-0.024c-0.122-0.065-0.215-0.062-0.292,0.034
		c-0.049,0.061-0.086,0.1-0.135,0.222C34.088,41.705,34.032,42.244,34.052,43.109L34.052,43.109z M44.579,40.279l0.289-0.133v-0.799
		l-0.434,0.266L44.579,40.279L44.579,40.279z M37.094,38.124c1.18,0.076,1.224,1.928,1.825,2.709l-1.392-3.887
		C37.466,37.451,37.135,37.789,37.094,38.124L37.094,38.124z M26.082,37.355c0.801-0.105,2.353-0.4,3.034-0.4
		c0-1.207-1.82-0.532-2.601-0.532C26.514,36.805,26.082,36.953,26.082,37.355L26.082,37.355z M41.182,36.355
		c0.029,0,0.048,0.255,0.088,0.255c0.09,0,0.184,0.005,0.235,0.001c0.283-0.025,0.351-0.068,0.509-0.144
		c0.45-0.217,0.761-0.267,1.844-0.865c1.071-0.591,0.732-2.383,1.105-3.544c0.096-0.3-0.232-0.62-0.343-1.013
		c-0.215-0.767-0.523-1.579-0.622-1.808c-1.07-0.045-2.124,0.445-3.191,0.211c-0.878-0.192-2.143,0.074-3.167,0.189
		c0.072,0.499,0.149,0.993,0.189,1.478c0.04,0.483,0.042,0.958-0.038,1.414c-0.132,0.754,0.122,3.074,2.639,3.936
		c0.158,0.054,0.337,0.098,0.512,0.133c0.029,0.006-0.023-0.248,0.042-0.246C41.033,36.354,41.155,36.351,41.182,36.355
		L41.182,36.355z M23.624,36.956c0.511-0.156,1.011,0.17,1.011-0.399c-1.058-0.243-1.708-0.245-2.665-0.245l0.498,0.645
		C22.901,36.957,23.335,36.824,23.624,36.956L23.624,36.956z M20.3,36.292h0.144c0-0.929-0.616-0.954-1.445-1.462
		C18.234,35.53,19.853,36.018,20.3,36.292L20.3,36.292z M40.926,35.194c1.058,0.248,0.994,0.152,1.15-0.227
		c-0.532-0.023-1.014-0.29-1.165-0.251l-0.636,0.161l-0.128,0.135C40.116,35.246,40.607,35.272,40.926,35.194L40.926,35.194z
		 M25.502,35.892c1.589-0.133,3.179-0.532,4.625-1.331c0.72-1.302,0.782-3.311-0.212-2.994c-1.073,0.342-2.892,0.651-3.181,0.562
		c-2.028-0.627-4.47-1.211-5.857-2.488C16.666,33.535,21.92,34.994,25.502,35.892L25.502,35.892z M17.698,34.43
		c0.371,0,0.51-0.266,1.011-0.266c0-2.336-0.672-2.503-1.086-2.218C17.091,32.314,16.856,33.655,17.698,34.43L17.698,34.43z
		 M10.762,33.633h0.29l2.021-7.583C11.537,27.7,9.284,31.598,10.762,33.633L10.762,33.633z M38.59,31.791
		c0.477-0.178,0.785-0.183,1.506,0.074c0,0-0.122,0.12-0.186,0.177c-0.319,0.281-0.487,0.291-0.676,0.244
		c-0.037-0.009-0.237-0.033-0.263-0.04c-0.152-0.04-0.239-0.032-0.153,0.001c0.034,0.012,0.262,0.064,0.304,0.085
		c0.39,0.196,0.674-0.04,1.025-0.325c0.344-0.278,0.224-0.127,0.112-0.159c-0.128-0.035-0.16-0.154-0.316-0.237
		c-0.427-0.226-0.897-0.247-1.685,0.107C38.312,31.753,38.401,31.861,38.59,31.791L38.59,31.791z M41.741,31.954
		c0.483-0.45,1.012-0.379,2.173-0.056c0.026,0.008,0.05-0.076,0.052-0.111c-1.038-0.447-2.049-0.551-2.485,0.133
		c-0.013,0.021-0.019,0.047-0.004,0.057c0,0,0.292-0.045,0.317,0.038c0.007,0.025,0.254,0.256,0.27,0.274
		c0.381,0.439,0.847-0.031,1.399-0.119c0.255-0.041-0.235,0.198-0.25,0.204c-0.858,0.328-0.974,0.2-1.202-0.004
		C41.954,32.319,41.702,31.991,41.741,31.954L41.741,31.954z M13.074,32.036c11.988-1.575,3.042-5.257,3.032-8.78h-0.289
		C15.241,24.385,12.432,30.854,13.074,32.036L13.074,32.036z M26.309,31.669c0.799,0,0.578-0.374,0.578-0.93
		c-0.191,0.352-0.324,0.398-0.722,0.398C26.165,31.404,25.876,31.669,26.309,31.669L26.309,31.669z M35.04,31.634
		c2.812,0-1.042-6.865-1.302-7.184c-0.964,0.711-2.152,1.583-3.034,2.396C31.435,29.198,31.9,31.058,35.04,31.634L35.04,31.634z
		 M25.068,30.837l0-0.532C24.923,30.571,24.923,30.704,25.068,30.837L25.068,30.837z M23.911,27.777
		c0.682,0.628,1.11,2.927,1.445,1.996c0.779-0.239,1.341,0.679,1.442-0.775c0.042-0.608,0.086-0.891,0.439-0.827
		c0.145,0.266,0.142,1.474,0.576,1.873c0.369-0.053,0.805,0.047,1.054-0.182c0.366-0.335,0.46-1.086,0.425-1.635
		c-0.039-0.596,0.109-1.184-0.252-1.666c-0.165-0.219-0.419-0.455-0.699-0.621c-0.233-0.139-0.73-0.151-1.085-0.218l0.045,0.653
		c0.072,0.1,0.501,0.283,0.621,0.379c0.363,0.293,0.792,0.51,1.193,0.757c-1.884,0.882-2.686-0.05-4.908,0.006
		c-0.316,0.008,1.094-1.138,2.467-1.182c0-0.263-0.051-0.532-0.104-0.642c-0.087-0.184-0.441-0.185-0.71-0.104
		c-0.556,0.167-1.366,0.89-1.941,0.89c-1.079-0.927-0.069-1.306-1.81-1.962c0.124,0.256,0.792,3.232,0.792,3.659
		c-0.726,0.334-0.369,0.504-0.843,0.069c0,0.583,0.3,0.079,0.3,0.792C23.409,29.038,23,28.058,23.911,27.777L23.911,27.777z
		 M38.07,28.521l7.953-0.348c0.32-1.482,0.331-5.998-0.146-7.316c-0.865-0.132-1.727-0.531-2.602-0.531
		c0,0.266,0.144,0.399,0.144,0.531c4.533,0,1.166,4.037,1.013,5.588c-6.496,3.054-1.314-7.01-3.036-7.183
		c-0.454,0.458-1.233,0.874-1.46,1.396c-0.811,1.863,0.033,4.146-0.127,6.186c-0.53,0.485-1.433,0.745-1.605,0.222l-1.575-4.778
		l1.309-1.405c-0.579,0.105-2.504,1-2.421,1.395C35.881,24.025,36.091,26.861,38.07,28.521L38.07,28.521z M10.472,27.248h0.144
		c0.277-0.381,2.168-2.848,2.168-3.193C11.314,24.055,8.985,25.879,10.472,27.248L10.472,27.248z M20.322,26.923
		c0.334-0.462-0.024-1.505-0.024-2.07l-0.434,0.266C19.864,25.384,20.177,26.79,20.322,26.923L20.322,26.923z M38.795,26.422
		c1.166-2.374-0.867-3.17-0.435-4.367C37.462,22.887,38.795,25.355,38.795,26.422L38.795,26.422z M28.286,25.473
		c0.304-0.279,0.468,0.723,0.879,0.754c0.134,0.009,0.404,1.218,0.422,1.148l0.56-2.134l0.43-0.806l0.425-1.427
		c-0.756,0.72-2.026,0.379-2.875,0.124C28.126,23.792,28.286,25.162,28.286,25.473L28.286,25.473z M7.421,27.323
		c1.435-0.662-2.495-6.992-4.611-6.992L7.421,27.323L7.421,27.323z M23.946,26.172c0.769-0.098,1.165-0.356,1.833-0.732l-0.05-0.298
		l0.11-0.226c0.025,0.041-0.181,0.333,0.128,0.398c0.223,0.046,0.611-0.092,0.905,0.013c0.324,0.116,0.385,0.008,0.511,0.124
		l0.238-0.211l-0.079-2.151c0.195-0.406,0.214-0.59,0.399-0.664c0.643-0.257,1.492-0.427,2.098-0.268
		c1.342,0.354,1.243-2.383,0.748-3.75l-8.178-0.322c-0.62,1.137,0.167,2.754-0.578,3.439h-0.145
		C20.397,22.903,24.011,24.868,23.946,26.172L23.946,26.172z M43.916,25.782l0.389-3.774l-1.897-0.75
		c0,1.191-0.355,3.462,0.031,4.525H43.916L43.916,25.782z M18.419,25.118c1.173,0,3-3.024,2.36-4.724
		c-0.125-0.332-0.674-0.079-1.011-0.278c-0.337-0.198-0.465-0.851-1.062-0.851l1.504,2.731l-2.185,1.646
		c0,0.39,1.673-0.358,1.547-0.047C19.024,24.957,18.082,24.499,18.419,25.118L18.419,25.118z M8.592,24.987
		c0.534-0.246,1.192-1.862,0-1.862C7.922,23.742,7.92,24.371,8.592,24.987L8.592,24.987z M47.611,24.291
		c0-0.883,1.21-2.635-0.579-2.635C47.466,22.453,47.611,23.492,47.611,24.291L47.611,24.291z M10.471,23.257
		c1.012,0,1.301-0.666,2.168-0.798c-0.001-0.491-1.027-1.743-1.446-2.128h-0.145v0.798c0.577,0.176,0.63,0.312,1.012,0.665
		c-0.44,0.608-1.122,1.146-1.879,0.798v0.532L10.471,23.257L10.471,23.257z M32.06,24.158c0.639-0.854,1.005-0.012,0.088-1.702
		L32.06,24.158L32.06,24.158z M8.561,17.501c0-0.269-3.266,3.635-0.25,3.597L8.561,17.501L8.561,17.501z M17.84,21.793l0.996-0.464
		l-1.422-0.545L17.84,21.793L17.84,21.793z M4.834,18.868c0.464-0.43-0.506-1.76-0.868-2.261H3.822
		C3.822,17.44,3.789,18.547,4.834,18.868L4.834,18.868z M25.11,23.574c0.574,0,1.723-0.177,1.723-0.529
		c-0.289-0.042-0.449-0.067-0.721-0.154c-0.01-0.003-0.2,0.121-0.374,0.209c-0.145,0.075-0.07,0.014-0.016-0.015
		c0.148-0.083,0.334-0.22,0.327-0.228c-0.049-0.056-0.349-0.109-0.408-0.128c-0.094-0.031-0.185-0.055-0.311-0.059
		c-0.097-0.004-0.216,0.003-0.375,0.021c-0.229,0.028-0.542,0.085-0.996,0.178l-0.294,0.373L25.11,23.574L25.11,23.574z
		 M25.094,22.152c0.711,0,2.051,0.391,2.051-0.046l-2.025-0.298l-1.246-0.046l-0.301,0.125l0.015,0.267L25.094,22.152L25.094,22.152
		z M41.396,18.197h0.145c0.136-1.6,0.495-2.568-0.1-2.995C41.022,14.902,40.913,15.782,41.396,18.197L41.396,18.197z M30.99,17.933
		c1.635-1.505,4.915-8.779-0.435-8.779v0.133c6.919,3.184-2.167,8.437-2.167,5.72c2.225-2.038,1.315-8.114-1.591-8.114
		c-7.837,3.616-1.574,6.905-3.466,8.647c-1.318,0-1.389-0.691-2.89,0.001C20.441,18.91,27.733,17.559,30.99,17.933L30.99,17.933z
		 M24.487,15.939c0.46-0.002,0.982-0.266,1.878-0.266l0.145,0.265c2.794-1.286,2.163-6.502,0.577-8.38h-0.722
		C23.852,11.026,23.398,11.934,24.487,15.939L24.487,15.939z M20.296,14.875c0-1.055-2.125-5.986,1.155-5.986
		c0.289,0.266,0.289,0.266,0.289,0.399h0.145c0-0.324-0.434-0.395-0.434-0.532C17.04,9.569,18.896,11.653,20.296,14.875
		L20.296,14.875z M30.123,14.607c0.832,0.053,0.578-0.957,0.578-1.597l0.023-1.685c-0.171,0.63-0.745,2.647-0.745,3.282H30.123
		L30.123,14.607z M26.076,13.677L26.076,13.677L26.076,13.677z M25.316,14.039c0.291-0.807-0.023-1.584-0.024-2.441l-0.456-0.879
		C24.836,10.86,24.879,14.039,25.316,14.039L25.316,14.039z M20.812,13.493l0.083-3.328l-0.457,0.586
		C20.265,11.399,20.425,12.958,20.812,13.493L20.812,13.493z M32.001,12.346h0.145c0.145-0.266-0.145-0.798-0.145-1.064
		c-0.29-0.132-0.434-0.399-0.579-0.398C31.422,11.389,31.605,11.981,32.001,12.346L32.001,12.346z M26.799,12.346h0.289
		c0.433-1.196-0.001-2.394-0.146-3.458l-0.433-0.133C25.266,9.9,26.799,11.919,26.799,12.346L26.799,12.346z M26.797,5.562
		l0.29-0.133l0.389-2.583l-0.981,2.107L26.797,5.562z"/>
</g>
<g>
	<path fill-rule="evenodd" clip-rule="evenodd" d="M69.654,51.613v2.576c0,0.109,0.026,0.191,0.08,0.249
		c0.052,0.06,0.142,0.103,0.27,0.134v0.168h-2.323v-0.168c0.131-0.035,0.221-0.08,0.273-0.135c0.05-0.057,0.076-0.139,0.076-0.248
		v-6.05c0-0.109-0.026-0.192-0.076-0.247c-0.052-0.056-0.142-0.1-0.273-0.137v-0.168h6.583c0.11,0,0.194-0.024,0.251-0.072
		c0.058-0.049,0.104-0.139,0.141-0.268h0.175v1.85h-0.175c-0.037-0.125-0.083-0.213-0.141-0.259
		c-0.058-0.048-0.142-0.071-0.251-0.071h-4.61v1.707h3.014c0.113,0,0.199-0.024,0.257-0.074c0.058-0.053,0.104-0.14,0.141-0.266
		h0.175v1.809h-0.175c-0.037-0.123-0.083-0.207-0.141-0.258c-0.058-0.048-0.144-0.072-0.257-0.072H69.654L69.654,51.613z
		 M82.142,49.407v3.106c0,0.709-0.145,1.229-0.436,1.562c-0.469,0.527-1.353,0.79-2.651,0.79c-0.867,0-1.569-0.127-2.104-0.383
		c-0.385-0.185-0.647-0.448-0.791-0.791c-0.13-0.314-0.196-0.708-0.196-1.179v-3.106c0-0.108-0.025-0.191-0.076-0.247
		c-0.052-0.055-0.142-0.104-0.273-0.141v-0.146h2.164v0.146c-0.134,0.035-0.227,0.08-0.277,0.139
		c-0.05,0.058-0.076,0.141-0.076,0.249v2.824c0,0.327,0.03,0.579,0.089,0.753c0.062,0.176,0.166,0.318,0.314,0.432
		c0.297,0.227,0.729,0.34,1.291,0.34c0.563,0,0.995-0.113,1.293-0.34c0.145-0.113,0.248-0.256,0.305-0.432
		c0.058-0.174,0.087-0.426,0.087-0.753v-2.824c0-0.108-0.024-0.191-0.075-0.247c-0.048-0.055-0.141-0.104-0.275-0.141v-0.146h2.036
		v0.146c-0.13,0.035-0.222,0.08-0.273,0.139C82.167,49.215,82.142,49.298,82.142,49.407L82.142,49.407z M85.124,50.874v3.329
		c0,0.106,0.026,0.191,0.08,0.25c0.052,0.059,0.142,0.105,0.27,0.141v0.146h-2.03v-0.146c0.128-0.031,0.218-0.076,0.271-0.135
		c0.054-0.06,0.08-0.144,0.08-0.253v-4.799c0-0.108-0.026-0.191-0.076-0.247c-0.052-0.055-0.142-0.104-0.274-0.141v-0.146h2.345
		v0.146c-0.16,0.037-0.24,0.107-0.24,0.203c0,0.084,0.06,0.184,0.175,0.293l3.269,3.123v-3.231c0-0.108-0.026-0.191-0.076-0.249
		c-0.052-0.059-0.142-0.104-0.273-0.139v-0.146h2.029v0.146c-0.13,0.035-0.221,0.08-0.273,0.139
		c-0.05,0.058-0.076,0.141-0.076,0.249v4.794c0,0.108,0.026,0.191,0.076,0.25c0.052,0.057,0.143,0.105,0.273,0.143v0.146h-2.186
		v-0.146c0.16-0.029,0.24-0.094,0.24-0.193c0-0.048-0.022-0.098-0.065-0.149c-0.044-0.052-0.146-0.153-0.302-0.306L85.124,50.874
		L85.124,50.874z M92.095,54.206v-4.799c0-0.108-0.026-0.191-0.076-0.247c-0.052-0.055-0.141-0.104-0.273-0.141v-0.146h3.582
		c0.744,0,1.332,0.089,1.76,0.266c0.604,0.252,1.038,0.668,1.304,1.249c0.185,0.403,0.277,0.878,0.277,1.418
		c0,1.003-0.311,1.764-0.932,2.28c-0.279,0.23-0.61,0.397-0.99,0.501c-0.379,0.103-0.852,0.153-1.419,0.153h-3.582v-0.146
		c0.128-0.031,0.218-0.076,0.27-0.135C92.069,54.399,92.095,54.315,92.095,54.206L92.095,54.206z M93.556,53.676h1.559
		c0.716,0,1.235-0.157,1.559-0.472c0.336-0.328,0.506-0.795,0.506-1.399c0-0.603-0.169-1.069-0.506-1.397
		c-0.167-0.164-0.376-0.283-0.622-0.359c-0.248-0.074-0.56-0.112-0.938-0.112h-1.559V53.676L93.556,53.676z M104.229,53.273h-2.808
		l-0.316,0.639c-0.077,0.154-0.114,0.276-0.114,0.361c0,0.168,0.116,0.275,0.35,0.32v0.146h-2.248v-0.146
		c0.138-0.021,0.24-0.061,0.309-0.119c0.067-0.061,0.145-0.178,0.236-0.354l2.229-4.336c0.083-0.165,0.126-0.309,0.126-0.432
		c0-0.143-0.103-0.254-0.305-0.334v-0.146h2.37v0.146c-0.199,0.076-0.3,0.195-0.3,0.355c0,0.117,0.045,0.258,0.136,0.424
		l2.311,4.209c0.128,0.229,0.227,0.375,0.299,0.443c0.073,0.068,0.185,0.116,0.333,0.143v0.146h-2.492v-0.146
		c0.236-0.037,0.354-0.145,0.354-0.318c0-0.107-0.044-0.24-0.136-0.402L104.229,53.273L104.229,53.273z M103.79,52.451l-0.999-1.887
		l-0.953,1.887H103.79L103.79,52.451z M113.315,52.638l0.921,1.29l-0.125,0.089c-0.087-0.059-0.156-0.089-0.208-0.089
		c-0.062,0-0.205,0.065-0.43,0.192c-0.499,0.279-0.938,0.475-1.319,0.582c-0.381,0.109-0.822,0.163-1.318,0.163
		c-0.998,0-1.809-0.229-2.438-0.687c-0.357-0.262-0.64-0.59-0.85-0.984c-0.225-0.428-0.339-0.889-0.339-1.39
		c0-0.687,0.206-1.295,0.622-1.822c0.651-0.825,1.648-1.235,2.993-1.235c0.497,0,0.94,0.053,1.327,0.162
		c0.387,0.107,0.828,0.303,1.323,0.582c0.225,0.128,0.368,0.192,0.43,0.192c0.052,0,0.121-0.03,0.208-0.089l0.125,0.094
		l-0.921,1.285l-0.121-0.084c0.004-0.043,0.008-0.068,0.012-0.08c0.003-0.031,0.005-0.053,0.005-0.066
		c0-0.172-0.245-0.365-0.735-0.582c-0.464-0.205-0.934-0.31-1.406-0.31c-0.662,0-1.208,0.169-1.635,0.503
		c-0.491,0.377-0.737,0.86-0.737,1.45c0,0.595,0.246,1.081,0.737,1.458c0.431,0.331,0.977,0.496,1.635,0.496
		c0.516,0,1.029-0.123,1.542-0.371c0.4-0.195,0.599-0.367,0.599-0.514c0-0.007-0.005-0.055-0.017-0.146L113.315,52.638
		L113.315,52.638z M116.934,49.407v4.794c0,0.108,0.026,0.191,0.077,0.25c0.052,0.057,0.143,0.105,0.274,0.143v0.146h-2.16v-0.146
		c0.128-0.031,0.217-0.076,0.27-0.135c0.054-0.06,0.08-0.144,0.08-0.253v-4.799c0-0.108-0.026-0.191-0.076-0.247
		c-0.052-0.055-0.142-0.104-0.273-0.141v-0.146h2.16v0.146c-0.131,0.035-0.222,0.08-0.274,0.139
		C116.96,49.215,116.934,49.298,116.934,49.407L116.934,49.407z M121.79,48.748c0.969,0,1.777,0.237,2.424,0.711
		c0.774,0.574,1.161,1.372,1.161,2.395c0,0.961-0.387,1.727-1.161,2.301c-0.64,0.474-1.444,0.712-2.415,0.712
		c-0.969,0-1.773-0.238-2.413-0.712c-0.777-0.574-1.166-1.355-1.166-2.349c0-1.001,0.389-1.782,1.166-2.347
		C120.028,48.996,120.83,48.757,121.79,48.748L121.79,48.748z M121.795,49.858c-0.629,0-1.14,0.192-1.537,0.581
		c-0.367,0.363-0.551,0.818-0.551,1.366c0,0.546,0.184,1,0.551,1.363c0.396,0.392,0.91,0.587,1.54,0.587
		c0.629,0,1.141-0.195,1.537-0.587c0.367-0.36,0.551-0.806,0.551-1.337c0-0.575-0.184-1.041-0.551-1.393
		C122.938,50.058,122.422,49.865,121.795,49.858L121.795,49.858z M123.369,46.708v0.141c-0.141,0.004-0.248,0.051-0.32,0.142
		l-0.774,0.912c-0.022,0.024-0.034,0.054-0.034,0.084c0,0.056,0.039,0.085,0.116,0.085c0.002,0,0.009,0,0.021,0v0.141h-1.182v-0.141
		c0.087,0,0.149-0.014,0.184-0.039c0.038-0.023,0.071-0.074,0.104-0.151l0.359-0.853c0.015-0.033,0.022-0.06,0.022-0.079
		c0-0.058-0.05-0.089-0.153-0.101v-0.141H123.369L123.369,46.708z M127.993,50.874v3.329c0,0.106,0.026,0.191,0.08,0.25
		c0.052,0.059,0.141,0.105,0.27,0.141v0.146h-2.03v-0.146c0.128-0.031,0.218-0.076,0.27-0.135c0.054-0.06,0.08-0.144,0.08-0.253
		v-4.799c0-0.108-0.026-0.191-0.076-0.247c-0.052-0.055-0.141-0.104-0.273-0.141v-0.146h2.344v0.146
		c-0.16,0.037-0.24,0.107-0.24,0.203c0,0.084,0.059,0.184,0.175,0.293l3.269,3.123v-3.231c0-0.108-0.026-0.191-0.076-0.249
		c-0.052-0.059-0.142-0.104-0.273-0.139v-0.146h2.03v0.146c-0.13,0.035-0.222,0.08-0.274,0.139c-0.05,0.058-0.076,0.141-0.076,0.249
		v4.794c0,0.108,0.026,0.191,0.076,0.25c0.052,0.057,0.144,0.105,0.274,0.143v0.146h-2.186v-0.146c0.16-0.029,0.24-0.094,0.24-0.193
		c0-0.048-0.022-0.098-0.065-0.149c-0.044-0.052-0.146-0.153-0.302-0.306L127.993,50.874L127.993,50.874z M137.754,54.206v-4.799
		c0-0.108-0.026-0.191-0.076-0.247c-0.052-0.055-0.141-0.104-0.274-0.141v-0.146h3.582c0.744,0,1.332,0.089,1.76,0.266
		c0.604,0.252,1.038,0.668,1.305,1.249c0.184,0.403,0.277,0.878,0.277,1.418c0,1.003-0.312,1.764-0.933,2.28
		c-0.279,0.23-0.61,0.397-0.99,0.501c-0.379,0.103-0.852,0.153-1.419,0.153h-3.582v-0.146c0.129-0.031,0.218-0.076,0.27-0.135
		C137.729,54.399,137.754,54.315,137.754,54.206L137.754,54.206z M139.215,53.676h1.559c0.717,0,1.236-0.157,1.56-0.472
		c0.337-0.328,0.506-0.795,0.506-1.399c0-0.603-0.169-1.069-0.506-1.397c-0.167-0.164-0.376-0.283-0.621-0.359
		c-0.247-0.074-0.56-0.112-0.938-0.112h-1.559V53.676L139.215,53.676z M147.07,52.246v1.431h3.875c0.113,0,0.199-0.025,0.259-0.073
		c0.062-0.049,0.108-0.139,0.145-0.267h0.153v1.74h-0.153c-0.033-0.124-0.079-0.21-0.142-0.259
		c-0.061-0.053-0.148-0.078-0.262-0.078h-5.686v-0.146c0.129-0.031,0.218-0.076,0.27-0.135c0.055-0.06,0.08-0.144,0.08-0.253v-4.799
		c0-0.108-0.025-0.191-0.076-0.247c-0.053-0.055-0.142-0.104-0.273-0.141v-0.146h5.517c0.117,0,0.204-0.025,0.264-0.074
		c0.062-0.05,0.108-0.137,0.146-0.262h0.146v1.74h-0.146c-0.037-0.129-0.084-0.219-0.146-0.268c-0.06-0.049-0.146-0.073-0.264-0.073
		h-3.706v1.288h2.299c0.113,0,0.199-0.025,0.259-0.074c0.062-0.049,0.112-0.137,0.15-0.262h0.147v1.697h-0.147
		c-0.036-0.125-0.083-0.213-0.145-0.266c-0.06-0.049-0.147-0.074-0.265-0.074H147.07L147.07,52.246z M157.322,51.601v1.961h4.785
		c0.111,0,0.195-0.025,0.252-0.074c0.059-0.049,0.104-0.137,0.142-0.262h0.175v1.851h-0.175c-0.037-0.128-0.083-0.213-0.142-0.263
		c-0.057-0.049-0.141-0.074-0.252-0.074h-6.758v-0.168c0.132-0.035,0.221-0.08,0.273-0.135c0.051-0.057,0.076-0.139,0.076-0.248
		v-6.05c0-0.109-0.025-0.192-0.076-0.247c-0.053-0.056-0.142-0.1-0.273-0.137v-0.168h6.629c0.109,0,0.193-0.024,0.25-0.074
		c0.059-0.053,0.104-0.141,0.143-0.266h0.175v1.85h-0.175c-0.038-0.123-0.084-0.207-0.143-0.258
		c-0.057-0.048-0.141-0.072-0.25-0.072h-4.656v1.697h3.021c0.109,0,0.194-0.025,0.251-0.074c0.058-0.05,0.104-0.137,0.142-0.263
		h0.175v1.811h-0.175c-0.037-0.124-0.084-0.21-0.142-0.26c-0.057-0.052-0.142-0.077-0.251-0.077H157.322L157.322,51.601z
		 M164.045,54.206v-4.799c0-0.108-0.025-0.191-0.076-0.247c-0.053-0.055-0.141-0.104-0.273-0.141v-0.146h3.582
		c0.743,0,1.331,0.089,1.759,0.266c0.604,0.252,1.038,0.668,1.305,1.249c0.185,0.403,0.276,0.878,0.276,1.418
		c0,1.003-0.311,1.764-0.932,2.28c-0.279,0.23-0.609,0.397-0.989,0.501c-0.38,0.103-0.852,0.153-1.419,0.153h-3.582v-0.146
		c0.129-0.031,0.218-0.076,0.27-0.135C164.02,54.399,164.045,54.315,164.045,54.206L164.045,54.206z M165.506,53.676h1.559
		c0.717,0,1.235-0.157,1.56-0.472c0.337-0.328,0.506-0.795,0.506-1.399c0-0.603-0.169-1.069-0.506-1.397
		c-0.168-0.164-0.376-0.283-0.622-0.359c-0.247-0.074-0.561-0.112-0.938-0.112h-1.559V53.676L165.506,53.676z M177.956,49.407v3.106
		c0,0.709-0.146,1.229-0.436,1.562c-0.469,0.527-1.353,0.79-2.651,0.79c-0.867,0-1.568-0.127-2.104-0.383
		c-0.385-0.185-0.647-0.448-0.79-0.791c-0.131-0.314-0.195-0.708-0.195-1.179v-3.106c0-0.108-0.026-0.191-0.076-0.247
		c-0.053-0.055-0.141-0.104-0.273-0.141v-0.146h2.163v0.146c-0.134,0.035-0.227,0.08-0.276,0.139
		c-0.051,0.058-0.077,0.141-0.077,0.249v2.824c0,0.327,0.03,0.579,0.09,0.753c0.062,0.176,0.165,0.318,0.313,0.432
		c0.299,0.227,0.729,0.34,1.293,0.34c0.562,0,0.994-0.113,1.291-0.34c0.146-0.113,0.248-0.256,0.306-0.432
		c0.058-0.174,0.088-0.426,0.088-0.753v-2.824c0-0.108-0.024-0.191-0.074-0.247c-0.049-0.055-0.142-0.104-0.276-0.141v-0.146h2.036
		v0.146c-0.13,0.035-0.222,0.08-0.274,0.139C177.982,49.215,177.956,49.298,177.956,49.407L177.956,49.407z M185.229,52.638
		l0.92,1.29l-0.123,0.089c-0.088-0.059-0.156-0.089-0.209-0.089c-0.062,0-0.205,0.065-0.43,0.192
		c-0.499,0.279-0.938,0.475-1.319,0.582c-0.382,0.109-0.822,0.163-1.319,0.163c-0.997,0-1.809-0.229-2.438-0.687
		c-0.356-0.262-0.64-0.59-0.85-0.984c-0.225-0.428-0.339-0.889-0.339-1.39c0-0.687,0.206-1.295,0.622-1.822
		c0.65-0.825,1.647-1.235,2.993-1.235c0.497,0,0.938,0.053,1.327,0.162c0.387,0.107,0.827,0.303,1.322,0.582
		c0.225,0.128,0.368,0.192,0.43,0.192c0.053,0,0.121-0.03,0.209-0.089l0.123,0.094l-0.92,1.285l-0.121-0.084
		c0.004-0.043,0.008-0.068,0.012-0.08c0.003-0.031,0.005-0.053,0.005-0.066c0-0.172-0.245-0.365-0.734-0.582
		c-0.466-0.205-0.934-0.31-1.407-0.31c-0.662,0-1.207,0.169-1.635,0.503c-0.491,0.377-0.736,0.86-0.736,1.45
		c0,0.595,0.245,1.081,0.736,1.458c0.432,0.331,0.977,0.496,1.635,0.496c0.516,0,1.029-0.123,1.543-0.371
		c0.399-0.195,0.599-0.367,0.599-0.514c0-0.007-0.005-0.055-0.017-0.146L185.229,52.638L185.229,52.638z M191.666,53.273h-2.808
		l-0.316,0.639c-0.077,0.154-0.114,0.276-0.114,0.361c0,0.168,0.116,0.275,0.351,0.32v0.146h-2.248v-0.146
		c0.138-0.021,0.24-0.061,0.31-0.119c0.066-0.061,0.145-0.178,0.236-0.354l2.229-4.336c0.084-0.165,0.126-0.309,0.126-0.432
		c0-0.143-0.103-0.254-0.306-0.334v-0.146h2.371v0.146c-0.199,0.076-0.3,0.195-0.3,0.355c0,0.117,0.044,0.258,0.136,0.424
		l2.311,4.209c0.129,0.229,0.228,0.375,0.301,0.443c0.072,0.068,0.184,0.116,0.332,0.143v0.146h-2.491v-0.146
		c0.236-0.037,0.354-0.145,0.354-0.318c0-0.107-0.046-0.24-0.137-0.402L191.666,53.273L191.666,53.273z M191.227,52.451
		l-0.999-1.887l-0.952,1.887H191.227L191.227,52.451z M200.752,52.638l0.922,1.29l-0.125,0.089
		c-0.088-0.059-0.157-0.089-0.209-0.089c-0.061,0-0.205,0.065-0.43,0.192c-0.498,0.279-0.938,0.475-1.319,0.582
		c-0.382,0.109-0.823,0.163-1.319,0.163c-0.996,0-1.808-0.229-2.438-0.687c-0.356-0.262-0.639-0.59-0.85-0.984
		c-0.225-0.428-0.338-0.889-0.338-1.39c0-0.687,0.206-1.295,0.621-1.822c0.65-0.825,1.648-1.235,2.993-1.235
		c0.497,0,0.939,0.053,1.327,0.162c0.387,0.107,0.828,0.303,1.322,0.582c0.225,0.128,0.369,0.192,0.43,0.192
		c0.052,0,0.121-0.03,0.209-0.089l0.125,0.094l-0.922,1.285l-0.121-0.084c0.004-0.043,0.008-0.068,0.012-0.08
		c0.004-0.031,0.005-0.053,0.005-0.066c0-0.172-0.245-0.365-0.735-0.582c-0.465-0.205-0.934-0.31-1.406-0.31
		c-0.662,0-1.207,0.169-1.635,0.503c-0.491,0.377-0.737,0.86-0.737,1.45c0,0.595,0.246,1.081,0.737,1.458
		c0.432,0.331,0.977,0.496,1.635,0.496c0.516,0,1.029-0.123,1.543-0.371c0.4-0.195,0.599-0.367,0.599-0.514
		c0-0.007-0.005-0.055-0.017-0.146L200.752,52.638L200.752,52.638z M204.371,49.407v4.794c0,0.108,0.025,0.191,0.075,0.25
		c0.053,0.057,0.144,0.105,0.274,0.143v0.146h-2.16v-0.146c0.129-0.031,0.217-0.076,0.27-0.135c0.054-0.06,0.08-0.144,0.08-0.253
		v-4.799c0-0.108-0.026-0.191-0.076-0.247c-0.053-0.055-0.143-0.104-0.273-0.141v-0.146h2.16v0.146
		c-0.131,0.035-0.222,0.08-0.274,0.139C204.396,49.215,204.371,49.298,204.371,49.407L204.371,49.407z M209.227,48.748
		c0.969,0,1.776,0.237,2.424,0.711c0.774,0.574,1.161,1.372,1.161,2.395c0,0.961-0.387,1.727-1.161,2.301
		c-0.641,0.474-1.443,0.712-2.414,0.712c-0.97,0-1.773-0.238-2.414-0.712c-0.777-0.574-1.166-1.355-1.166-2.349
		c0-1.001,0.389-1.782,1.166-2.347C207.465,48.996,208.267,48.757,209.227,48.748L209.227,48.748z M209.231,49.858
		c-0.629,0-1.14,0.192-1.536,0.581c-0.366,0.363-0.551,0.818-0.551,1.366c0,0.546,0.185,1,0.551,1.363
		c0.396,0.392,0.909,0.587,1.541,0.587c0.628,0,1.14-0.195,1.537-0.587c0.365-0.36,0.549-0.806,0.549-1.337
		c0-0.575-0.184-1.041-0.549-1.393C210.375,50.058,209.859,49.865,209.231,49.858L209.231,49.858z M210.807,46.708v0.141
		c-0.143,0.004-0.248,0.051-0.321,0.142l-0.774,0.912c-0.021,0.024-0.033,0.054-0.033,0.084c0,0.056,0.039,0.085,0.115,0.085
		c0.002,0,0.01,0,0.021,0v0.141h-1.182v-0.141c0.088,0,0.148-0.014,0.184-0.039c0.037-0.023,0.071-0.074,0.105-0.151l0.358-0.853
		c0.015-0.033,0.022-0.06,0.022-0.079c0-0.058-0.051-0.089-0.152-0.101v-0.141H210.807L210.807,46.708z M215.429,50.874v3.329
		c0,0.106,0.026,0.191,0.08,0.25c0.052,0.059,0.142,0.105,0.271,0.141v0.146h-2.03v-0.146c0.128-0.031,0.218-0.076,0.27-0.135
		c0.054-0.06,0.08-0.144,0.08-0.253v-4.799c0-0.108-0.026-0.191-0.076-0.247c-0.052-0.055-0.142-0.104-0.273-0.141v-0.146h2.345
		v0.146c-0.16,0.037-0.24,0.107-0.24,0.203c0,0.084,0.059,0.184,0.175,0.293l3.269,3.123v-3.231c0-0.108-0.025-0.191-0.076-0.249
		c-0.053-0.059-0.142-0.104-0.273-0.139v-0.146h2.029v0.146c-0.13,0.035-0.221,0.08-0.273,0.139
		c-0.05,0.058-0.076,0.141-0.076,0.249v4.794c0,0.108,0.026,0.191,0.076,0.25c0.053,0.057,0.144,0.105,0.273,0.143v0.146h-2.186
		v-0.146c0.16-0.029,0.239-0.094,0.239-0.193c0-0.048-0.022-0.098-0.064-0.149c-0.045-0.052-0.146-0.153-0.302-0.306L215.429,50.874
		L215.429,50.874z M231.9,48.191l-0.888,1.683l-0.153-0.083c0.004-0.037,0.006-0.063,0.006-0.085c0-0.118-0.105-0.247-0.316-0.383
		c-0.646-0.433-1.406-0.649-2.279-0.649c-0.385,0-0.723,0.045-1.02,0.137c-0.213,0.069-0.387,0.175-0.519,0.314
		c-0.132,0.139-0.198,0.291-0.198,0.456c0,0.269,0.169,0.45,0.506,0.549c0.174,0.048,0.548,0.103,1.123,0.157l0.855,0.084
		c0.508,0.053,0.92,0.123,1.234,0.215s0.594,0.219,0.834,0.383c0.248,0.17,0.443,0.396,0.587,0.676
		c0.144,0.279,0.216,0.578,0.216,0.895c0,0.504-0.17,0.951-0.506,1.342c-0.306,0.357-0.779,0.62-1.424,0.792
		c-0.479,0.129-0.993,0.193-1.542,0.193c-0.983,0-1.955-0.228-2.915-0.682c-0.203-0.091-0.324-0.136-0.365-0.136
		c-0.046,0-0.121,0.037-0.223,0.115l-0.158-0.08l0.806-1.754l0.158,0.073c0,0.03,0,0.054,0,0.067c0,0.158,0.078,0.303,0.234,0.436
		c0.235,0.201,0.601,0.377,1.096,0.523c0.493,0.146,0.962,0.221,1.404,0.221c0.483,0,0.896-0.079,1.237-0.236
		c0.189-0.088,0.34-0.202,0.452-0.35c0.114-0.145,0.169-0.295,0.169-0.451c0-0.238-0.131-0.406-0.397-0.509
		c-0.185-0.069-0.559-0.134-1.122-0.192l-0.84-0.085c-0.562-0.056-0.961-0.108-1.193-0.159c-0.232-0.052-0.465-0.132-0.698-0.244
		c-0.329-0.156-0.589-0.393-0.776-0.707c-0.172-0.283-0.258-0.608-0.258-0.975c0-0.605,0.215-1.104,0.649-1.5
		c0.565-0.52,1.415-0.779,2.55-0.779c0.476,0,0.92,0.047,1.329,0.14c0.411,0.091,0.923,0.263,1.538,0.51
		c0.211,0.081,0.34,0.122,0.387,0.122c0.076,0,0.164-0.041,0.267-0.122L231.9,48.191L231.9,48.191z M239.286,49.407v3.106
		c0,0.709-0.145,1.229-0.435,1.562c-0.47,0.527-1.354,0.79-2.652,0.79c-0.867,0-1.568-0.127-2.104-0.383
		c-0.386-0.185-0.648-0.448-0.791-0.791c-0.131-0.314-0.195-0.708-0.195-1.179v-3.106c0-0.108-0.026-0.191-0.076-0.247
		c-0.053-0.055-0.142-0.104-0.273-0.141v-0.146h2.164v0.146c-0.135,0.035-0.228,0.08-0.277,0.139
		c-0.051,0.058-0.077,0.141-0.077,0.249v2.824c0,0.327,0.03,0.579,0.09,0.753c0.062,0.176,0.165,0.318,0.313,0.432
		c0.299,0.227,0.73,0.34,1.293,0.34s0.994-0.113,1.293-0.34c0.145-0.113,0.246-0.256,0.304-0.432
		c0.058-0.174,0.088-0.426,0.088-0.753v-2.824c0-0.108-0.024-0.191-0.074-0.247c-0.048-0.055-0.142-0.104-0.275-0.141v-0.146h2.036
		v0.146c-0.131,0.035-0.223,0.08-0.275,0.139C239.312,49.215,239.286,49.298,239.286,49.407L239.286,49.407z M242.398,52.33v1.873
		c0,0.106,0.026,0.189,0.076,0.248c0.053,0.057,0.143,0.105,0.273,0.143v0.146h-2.16v-0.146c0.129-0.031,0.219-0.076,0.271-0.135
		c0.054-0.06,0.08-0.144,0.08-0.253v-4.799c0-0.108-0.026-0.191-0.077-0.247c-0.052-0.055-0.141-0.104-0.273-0.141v-0.146h3.98
		c0.786,0,1.382,0.112,1.781,0.34c0.233,0.134,0.413,0.321,0.545,0.566c0.131,0.244,0.196,0.519,0.196,0.821
		c0,0.585-0.206,1.018-0.622,1.302c-0.414,0.285-1.047,0.428-1.9,0.428H242.398L242.398,52.33z M242.398,51.265h2.082
		c0.381,0,0.646-0.035,0.794-0.105c0.218-0.1,0.328-0.286,0.328-0.56c0-0.272-0.11-0.458-0.328-0.56
		c-0.145-0.07-0.409-0.104-0.794-0.104h-2.082V51.265L242.398,51.265z M249.674,52.246v1.431h3.877c0.113,0,0.198-0.025,0.258-0.073
		c0.062-0.049,0.107-0.139,0.145-0.267h0.153v1.74h-0.153c-0.033-0.124-0.079-0.21-0.141-0.259
		c-0.062-0.053-0.148-0.078-0.262-0.078h-5.686v-0.146c0.127-0.031,0.217-0.076,0.27-0.135c0.054-0.06,0.08-0.144,0.08-0.253v-4.799
		c0-0.108-0.026-0.191-0.077-0.247c-0.052-0.055-0.142-0.104-0.272-0.141v-0.146h5.516c0.117,0,0.205-0.025,0.264-0.074
		c0.062-0.05,0.108-0.137,0.146-0.262h0.147v1.74h-0.147c-0.037-0.129-0.083-0.219-0.146-0.268
		c-0.059-0.049-0.146-0.073-0.264-0.073h-3.707v1.288h2.301c0.113,0,0.199-0.025,0.259-0.074c0.061-0.049,0.111-0.137,0.15-0.262
		h0.147v1.697h-0.147c-0.037-0.125-0.083-0.213-0.146-0.266c-0.06-0.049-0.146-0.074-0.264-0.074H249.674L249.674,52.246z
		 M256.838,52.332v1.871c0,0.106,0.025,0.191,0.076,0.248c0.053,0.057,0.144,0.105,0.273,0.143v0.146h-2.16v-0.146
		c0.128-0.031,0.218-0.076,0.27-0.135c0.055-0.06,0.08-0.144,0.08-0.253v-4.799c0-0.108-0.025-0.191-0.076-0.247
		c-0.052-0.055-0.141-0.104-0.273-0.141v-0.146h4c0.521,0,0.916,0.024,1.189,0.074c0.271,0.053,0.516,0.144,0.73,0.275
		c0.439,0.277,0.658,0.729,0.658,1.353c0,0.476-0.135,0.849-0.404,1.114c-0.271,0.269-0.71,0.461-1.312,0.58l1.155,1.547
		c0.21,0.284,0.38,0.479,0.505,0.581c0.125,0.104,0.268,0.169,0.428,0.196v0.146h-2.566v-0.146c0.19-0.048,0.285-0.127,0.285-0.234
		c0-0.076-0.06-0.194-0.175-0.35l-1.22-1.678H256.838L256.838,52.332z M256.838,51.267h2.201c0.334,0,0.582-0.036,0.74-0.105
		c0.225-0.094,0.338-0.281,0.338-0.561c0-0.248-0.078-0.42-0.236-0.518c-0.158-0.099-0.438-0.147-0.842-0.147h-2.201V51.267
		L256.838,51.267z M264.523,49.407v4.794c0,0.108,0.025,0.191,0.076,0.25c0.052,0.057,0.143,0.105,0.273,0.143v0.146h-2.16v-0.146
		c0.129-0.031,0.218-0.076,0.27-0.135c0.055-0.06,0.08-0.144,0.08-0.253v-4.799c0-0.108-0.025-0.191-0.076-0.247
		c-0.053-0.055-0.142-0.104-0.273-0.141v-0.146h2.16v0.146c-0.131,0.035-0.222,0.08-0.273,0.139
		C264.549,49.215,264.523,49.298,264.523,49.407L264.523,49.407z M269.379,48.748c0.969,0,1.777,0.237,2.424,0.711
		c0.774,0.574,1.161,1.372,1.161,2.395c0,0.961-0.387,1.727-1.161,2.301c-0.64,0.474-1.443,0.712-2.415,0.712
		c-0.969,0-1.773-0.238-2.413-0.712c-0.777-0.574-1.166-1.355-1.166-2.349c0-1.001,0.389-1.782,1.166-2.347
		C267.616,48.996,268.419,48.757,269.379,48.748L269.379,48.748z M269.385,49.858c-0.629,0-1.141,0.192-1.537,0.581
		c-0.366,0.363-0.551,0.818-0.551,1.366c0,0.546,0.185,1,0.551,1.363c0.396,0.392,0.91,0.587,1.54,0.587
		c0.629,0,1.141-0.195,1.537-0.587c0.367-0.36,0.551-0.806,0.551-1.337c0-0.575-0.184-1.041-0.551-1.393
		C270.526,50.058,270.012,49.865,269.385,49.858L269.385,49.858z M275.712,52.332v1.871c0,0.106,0.026,0.191,0.076,0.248
		c0.053,0.057,0.144,0.105,0.273,0.143v0.146h-2.16v-0.146c0.129-0.031,0.218-0.076,0.27-0.135c0.055-0.06,0.081-0.144,0.081-0.253
		v-4.799c0-0.108-0.026-0.191-0.076-0.247c-0.053-0.055-0.143-0.104-0.274-0.141v-0.146h4c0.521,0,0.916,0.024,1.188,0.074
		c0.272,0.053,0.517,0.144,0.731,0.275c0.439,0.277,0.659,0.729,0.659,1.353c0,0.476-0.136,0.849-0.405,1.114
		c-0.271,0.269-0.709,0.461-1.312,0.58l1.154,1.547c0.211,0.284,0.38,0.479,0.505,0.581c0.124,0.104,0.268,0.169,0.428,0.196v0.146
		h-2.565v-0.146c0.189-0.048,0.284-0.127,0.284-0.234c0-0.076-0.059-0.194-0.175-0.35l-1.221-1.678H275.712L275.712,52.332z
		 M275.712,51.267h2.2c0.336,0,0.583-0.036,0.741-0.105c0.226-0.094,0.339-0.281,0.339-0.561c0-0.248-0.078-0.42-0.237-0.518
		c-0.158-0.099-0.438-0.147-0.843-0.147h-2.2V51.267z"/>
	<path fill-rule="evenodd" clip-rule="evenodd" d="M79.749,65.8v-7.645c0-0.133-0.033-0.235-0.096-0.305
		c-0.066-0.07-0.178-0.127-0.343-0.172v-0.213h2.921v0.213c-0.164,0.04-0.278,0.095-0.344,0.169
		c-0.063,0.072-0.096,0.175-0.096,0.308V65.8c0,0.139,0.033,0.242,0.101,0.314c0.065,0.074,0.178,0.129,0.339,0.17v0.212H79.31
		v-0.212c0.166-0.046,0.277-0.102,0.343-0.172C79.716,66.042,79.749,65.939,79.749,65.8L79.749,65.8z M85.849,61.615v4.202
		c0,0.136,0.033,0.241,0.1,0.315c0.065,0.075,0.178,0.135,0.339,0.18v0.185h-2.551v-0.185c0.161-0.041,0.273-0.098,0.339-0.172
		c0.068-0.074,0.101-0.181,0.101-0.318v-6.059c0-0.139-0.033-0.242-0.096-0.312c-0.066-0.069-0.178-0.13-0.344-0.178v-0.186h2.946
		v0.186c-0.201,0.048-0.301,0.137-0.301,0.258c0,0.105,0.075,0.23,0.22,0.369l4.109,3.943v-4.08c0-0.139-0.033-0.242-0.096-0.314
		c-0.065-0.074-0.178-0.131-0.344-0.176v-0.186h2.551v0.186c-0.164,0.045-0.278,0.102-0.344,0.176
		c-0.063,0.072-0.095,0.176-0.095,0.314v6.051c0,0.139,0.032,0.242,0.095,0.316c0.066,0.072,0.181,0.133,0.344,0.182v0.185h-2.748
		v-0.185c0.201-0.039,0.302-0.12,0.302-0.244c0-0.062-0.028-0.125-0.082-0.189c-0.056-0.066-0.183-0.195-0.379-0.387L85.849,61.615
		L85.849,61.615z M101.553,59.756l-0.926,1.728l-0.164-0.086c0-0.145-0.049-0.26-0.145-0.344c-0.259-0.225-0.643-0.41-1.15-0.555
		c-0.508-0.146-1.022-0.219-1.542-0.219c-0.444,0-0.837,0.059-1.179,0.178c-0.494,0.172-0.741,0.42-0.741,0.747
		c0,0.218,0.12,0.368,0.355,0.458c0.239,0.091,0.697,0.164,1.377,0.217l1.083,0.08c0.947,0.07,1.665,0.246,2.159,0.527
		c0.276,0.158,0.5,0.371,0.678,0.635c0.225,0.332,0.337,0.703,0.337,1.118c0,0.755-0.351,1.349-1.055,1.786
		c-0.671,0.418-1.582,0.628-2.727,0.628c-1.158,0-2.273-0.237-3.352-0.709c-0.072-0.03-0.135-0.046-0.185-0.046
		c-0.091,0-0.178,0.053-0.255,0.158l-0.17-0.065l0.788-1.813l0.171,0.066c0,0.027,0,0.045,0,0.054c0,0.115,0.046,0.212,0.138,0.292
		c0.227,0.193,0.622,0.36,1.186,0.506c0.561,0.142,1.115,0.213,1.665,0.213c0.484,0,0.917-0.061,1.3-0.184
		c0.475-0.149,0.713-0.394,0.713-0.728c0-0.269-0.164-0.456-0.493-0.56c-0.22-0.072-0.616-0.131-1.187-0.18l-1.075-0.088
		c-0.58-0.042-1.022-0.099-1.329-0.171c-0.307-0.069-0.573-0.174-0.802-0.31c-0.292-0.176-0.519-0.418-0.685-0.723
		c-0.164-0.303-0.246-0.637-0.246-0.998c0-0.811,0.36-1.432,1.083-1.857c0.657-0.389,1.471-0.583,2.44-0.583
		c0.526,0,1.015,0.056,1.471,0.169c0.454,0.113,0.996,0.311,1.628,0.592c0.187,0.083,0.315,0.127,0.39,0.127
		c0.073,0,0.167-0.051,0.281-0.147L101.553,59.756L101.553,59.756z M107.171,60.431v5.386c0,0.136,0.033,0.239,0.096,0.313
		c0.065,0.072,0.179,0.133,0.344,0.182v0.185h-2.716v-0.185c0.162-0.041,0.274-0.098,0.339-0.172c0.068-0.074,0.1-0.181,0.1-0.318
		v-5.391h-2.261c-0.147,0-0.257,0.031-0.332,0.096c-0.078,0.064-0.136,0.176-0.183,0.334h-0.185v-2.197h0.185
		c0.042,0.156,0.101,0.264,0.176,0.327c0.075,0.065,0.185,0.097,0.332,0.097h6.366c0.147,0,0.257-0.031,0.332-0.092
		c0.077-0.063,0.136-0.174,0.182-0.332h0.185v2.197h-0.185c-0.046-0.158-0.105-0.27-0.182-0.334
		c-0.075-0.064-0.185-0.096-0.332-0.096H107.171L107.171,60.431z M113.193,59.763v6.051c0,0.139,0.033,0.242,0.096,0.316
		c0.065,0.072,0.18,0.133,0.344,0.182v0.185h-2.716v-0.185c0.161-0.041,0.273-0.098,0.339-0.172c0.068-0.074,0.1-0.181,0.1-0.318
		v-6.059c0-0.139-0.032-0.242-0.095-0.312c-0.066-0.069-0.178-0.13-0.344-0.178v-0.186h2.716v0.186
		c-0.165,0.045-0.279,0.102-0.344,0.176C113.226,59.521,113.193,59.625,113.193,59.763L113.193,59.763z M119.216,60.431v5.386
		c0,0.136,0.033,0.239,0.096,0.313c0.065,0.072,0.18,0.133,0.344,0.182v0.185h-2.716v-0.185c0.162-0.041,0.274-0.098,0.339-0.172
		c0.068-0.074,0.101-0.181,0.101-0.318v-5.391h-2.261c-0.147,0-0.257,0.031-0.332,0.096c-0.078,0.064-0.136,0.176-0.183,0.334
		h-0.185v-2.197h0.185c0.042,0.156,0.1,0.264,0.175,0.327c0.075,0.065,0.185,0.097,0.332,0.097h6.366
		c0.147,0,0.257-0.031,0.332-0.092c0.077-0.063,0.136-0.174,0.183-0.332h0.185v2.197h-0.185c-0.047-0.158-0.105-0.27-0.183-0.334
		c-0.075-0.064-0.185-0.096-0.332-0.096H119.216L119.216,60.431z M131.015,59.763v3.922c0,0.895-0.182,1.551-0.547,1.971
		c-0.589,0.667-1.7,0.999-3.333,0.999c-1.09,0-1.972-0.161-2.646-0.483c-0.484-0.232-0.814-0.566-0.994-0.998
		c-0.164-0.397-0.246-0.895-0.246-1.488v-3.922c0-0.139-0.033-0.242-0.096-0.312c-0.065-0.069-0.178-0.13-0.344-0.178v-0.186h2.72
		v0.186c-0.168,0.045-0.286,0.102-0.349,0.176c-0.063,0.072-0.096,0.176-0.096,0.314v3.565c0,0.413,0.038,0.731,0.112,0.95
		c0.077,0.222,0.208,0.402,0.395,0.545c0.374,0.286,0.917,0.428,1.624,0.428c0.708,0,1.25-0.142,1.625-0.428
		c0.183-0.143,0.311-0.323,0.384-0.545c0.072-0.219,0.11-0.537,0.11-0.95v-3.565c0-0.139-0.031-0.242-0.093-0.312
		c-0.061-0.069-0.178-0.13-0.347-0.178v-0.186h2.559v0.186c-0.164,0.045-0.279,0.102-0.344,0.176
		C131.048,59.521,131.015,59.625,131.015,59.763L131.015,59.763z M140.158,63.843l1.156,1.628l-0.156,0.113
		c-0.109-0.075-0.195-0.113-0.262-0.113c-0.077,0-0.258,0.081-0.54,0.244c-0.627,0.353-1.179,0.599-1.659,0.733
		c-0.479,0.139-1.033,0.206-1.657,0.206c-1.254,0-2.273-0.289-3.064-0.867c-0.449-0.329-0.805-0.745-1.069-1.242
		c-0.283-0.54-0.426-1.122-0.426-1.755c0-0.866,0.26-1.635,0.781-2.301c0.818-1.041,2.072-1.56,3.763-1.56
		c0.625,0,1.182,0.067,1.668,0.205c0.486,0.136,1.041,0.382,1.663,0.733c0.282,0.163,0.463,0.244,0.54,0.244
		c0.066,0,0.152-0.038,0.262-0.113l0.156,0.12l-1.156,1.622l-0.152-0.106c0.004-0.055,0.009-0.086,0.014-0.1
		c0.004-0.04,0.007-0.067,0.007-0.085c0-0.217-0.309-0.461-0.924-0.734c-0.585-0.26-1.174-0.391-1.768-0.391
		c-0.833,0-1.518,0.212-2.056,0.635c-0.618,0.477-0.926,1.086-0.926,1.83c0,0.75,0.309,1.364,0.926,1.841
		c0.542,0.418,1.228,0.628,2.056,0.628c0.647,0,1.293-0.156,1.939-0.47c0.503-0.246,0.753-0.463,0.753-0.648
		c0-0.009-0.007-0.069-0.021-0.185L140.158,63.843L140.158,63.843z M144.707,59.763v6.051c0,0.139,0.031,0.242,0.095,0.316
		c0.066,0.072,0.181,0.133,0.345,0.182v0.185h-2.716v-0.185c0.161-0.041,0.273-0.098,0.339-0.172
		c0.068-0.074,0.102-0.181,0.102-0.318v-6.059c0-0.139-0.033-0.242-0.097-0.312c-0.065-0.069-0.179-0.13-0.344-0.178v-0.186h2.716
		v0.186c-0.164,0.045-0.278,0.102-0.345,0.176C144.738,59.521,144.707,59.625,144.707,59.763L144.707,59.763z M150.811,58.93
		c1.219,0,2.233,0.3,3.047,0.898c0.974,0.726,1.46,1.731,1.46,3.023c0,1.212-0.486,2.179-1.46,2.903
		c-0.805,0.599-1.814,0.899-3.035,0.899c-1.219,0-2.229-0.301-3.033-0.899c-0.979-0.725-1.467-1.711-1.467-2.965
		c0-1.264,0.488-2.25,1.467-2.962C148.596,59.244,149.604,58.943,150.811,58.93L150.811,58.93z M150.816,60.333
		c-0.789,0-1.432,0.243-1.93,0.733c-0.461,0.459-0.693,1.033-0.693,1.725c0,0.689,0.232,1.263,0.693,1.721
		c0.498,0.495,1.143,0.74,1.936,0.74c0.791,0,1.434-0.245,1.932-0.74c0.461-0.453,0.692-1.016,0.692-1.686
		c0-0.728-0.231-1.314-0.692-1.76C152.254,60.585,151.605,60.341,150.816,60.333L150.816,60.333z M152.797,56.355v0.18
		c-0.179,0.004-0.312,0.062-0.403,0.178l-0.973,1.152c-0.028,0.031-0.042,0.066-0.042,0.105c0,0.07,0.049,0.105,0.145,0.105
		c0.003,0,0.012,0,0.025,0v0.179h-1.484v-0.179c0.109,0,0.188-0.016,0.232-0.047c0.047-0.029,0.088-0.095,0.13-0.191l0.451-1.078
		c0.019-0.04,0.028-0.074,0.028-0.099c0-0.072-0.063-0.112-0.191-0.126v-0.18H152.797L152.797,56.355z M158.608,61.615v4.202
		c0,0.136,0.032,0.241,0.101,0.315c0.064,0.075,0.178,0.135,0.339,0.18v0.185h-2.552v-0.185c0.162-0.041,0.273-0.098,0.34-0.172
		s0.1-0.181,0.1-0.318v-6.059c0-0.139-0.033-0.242-0.096-0.312c-0.065-0.069-0.178-0.13-0.344-0.178v-0.186h2.947v0.186
		c-0.201,0.048-0.303,0.137-0.303,0.258c0,0.105,0.076,0.23,0.221,0.369l4.109,3.943v-4.08c0-0.139-0.033-0.242-0.096-0.314
		c-0.066-0.074-0.178-0.131-0.344-0.176v-0.186h2.551v0.186c-0.164,0.045-0.277,0.102-0.344,0.176
		c-0.062,0.072-0.096,0.176-0.096,0.314v6.051c0,0.139,0.033,0.242,0.096,0.316c0.066,0.072,0.18,0.133,0.344,0.182v0.185h-2.748
		v-0.185c0.201-0.039,0.302-0.12,0.302-0.244c0-0.062-0.028-0.125-0.081-0.189c-0.057-0.066-0.184-0.195-0.38-0.387L158.608,61.615
		L158.608,61.615z M175.524,58.955V65.8c0,0.139,0.032,0.242,0.096,0.312c0.065,0.07,0.181,0.126,0.344,0.172v0.212h-2.921v-0.212
		c0.166-0.046,0.278-0.102,0.344-0.172c0.062-0.07,0.096-0.174,0.096-0.312v-6.846h-2.904c-0.138,0-0.243,0.029-0.316,0.09
		c-0.072,0.059-0.13,0.17-0.178,0.328h-0.219v-2.335h0.219c0.05,0.163,0.109,0.276,0.184,0.337c0.069,0.061,0.173,0.092,0.311,0.092
		h7.844c0.143,0,0.251-0.031,0.324-0.092c0.071-0.061,0.13-0.174,0.177-0.337h0.22v2.335h-0.22c-0.047-0.158-0.105-0.27-0.177-0.328
		c-0.073-0.061-0.182-0.09-0.324-0.09H175.524L175.524,58.955z M182.342,63.346v1.808h4.872c0.143,0,0.25-0.032,0.325-0.094
		c0.077-0.061,0.135-0.174,0.182-0.336h0.192v2.197h-0.192c-0.041-0.156-0.1-0.265-0.177-0.328c-0.077-0.064-0.188-0.097-0.33-0.097
		h-7.147v-0.185c0.162-0.041,0.273-0.098,0.339-0.172c0.068-0.074,0.101-0.181,0.101-0.318v-6.059c0-0.139-0.032-0.242-0.096-0.312
		c-0.064-0.069-0.178-0.13-0.344-0.178v-0.186H187c0.148,0,0.258-0.031,0.333-0.092c0.077-0.063,0.136-0.174,0.183-0.332h0.185
		v2.197h-0.185c-0.047-0.163-0.105-0.275-0.183-0.337c-0.075-0.062-0.185-0.093-0.333-0.093h-4.658v1.626h2.891
		c0.143,0,0.251-0.032,0.325-0.093c0.077-0.062,0.14-0.174,0.19-0.332h0.184v2.143h-0.184c-0.047-0.157-0.105-0.268-0.183-0.334
		c-0.075-0.062-0.185-0.095-0.333-0.095H182.342L182.342,63.346z M196.576,63.843l1.158,1.628l-0.157,0.113
		c-0.11-0.075-0.196-0.113-0.262-0.113c-0.077,0-0.258,0.081-0.54,0.244c-0.627,0.353-1.18,0.599-1.658,0.733
		c-0.479,0.139-1.035,0.206-1.658,0.206c-1.254,0-2.273-0.289-3.064-0.867c-0.449-0.329-0.805-0.745-1.068-1.242
		c-0.283-0.54-0.426-1.122-0.426-1.755c0-0.866,0.26-1.635,0.781-2.301c0.818-1.041,2.072-1.56,3.763-1.56
		c0.624,0,1.181,0.067,1.667,0.205c0.487,0.136,1.041,0.382,1.664,0.733c0.282,0.163,0.463,0.244,0.54,0.244
		c0.065,0,0.151-0.038,0.262-0.113l0.157,0.12l-1.158,1.622l-0.152-0.106c0.005-0.055,0.01-0.086,0.014-0.1
		c0.006-0.04,0.008-0.067,0.008-0.085c0-0.217-0.309-0.461-0.924-0.734c-0.585-0.26-1.174-0.391-1.768-0.391
		c-0.833,0-1.519,0.212-2.057,0.635c-0.617,0.477-0.926,1.086-0.926,1.83c0,0.75,0.309,1.364,0.926,1.841
		c0.543,0.418,1.228,0.628,2.057,0.628c0.647,0,1.293-0.156,1.938-0.47c0.504-0.246,0.754-0.463,0.754-0.648
		c0-0.009-0.008-0.069-0.021-0.185L196.576,63.843L196.576,63.843z M200.961,61.615v4.202c0,0.136,0.033,0.241,0.102,0.315
		c0.064,0.075,0.178,0.135,0.338,0.18v0.185h-2.551v-0.185c0.16-0.041,0.273-0.098,0.339-0.172c0.067-0.074,0.101-0.181,0.101-0.318
		v-6.059c0-0.139-0.033-0.242-0.096-0.312c-0.066-0.069-0.178-0.13-0.344-0.178v-0.186h2.947v0.186
		c-0.202,0.048-0.303,0.137-0.303,0.258c0,0.105,0.075,0.23,0.221,0.369l4.108,3.943v-4.08c0-0.139-0.032-0.242-0.096-0.314
		c-0.065-0.074-0.177-0.131-0.344-0.176v-0.186h2.552v0.186c-0.164,0.045-0.279,0.102-0.344,0.176
		c-0.062,0.072-0.096,0.176-0.096,0.314v6.051c0,0.139,0.033,0.242,0.096,0.316c0.064,0.072,0.18,0.133,0.344,0.182v0.185h-2.748
		v-0.185c0.201-0.039,0.301-0.12,0.301-0.244c0-0.062-0.027-0.125-0.081-0.189c-0.056-0.066-0.183-0.195-0.38-0.387L200.961,61.615
		L200.961,61.615z M213.602,58.93c1.219,0,2.234,0.3,3.049,0.898c0.973,0.726,1.459,1.731,1.459,3.023
		c0,1.212-0.486,2.179-1.459,2.903c-0.805,0.599-1.814,0.899-3.036,0.899c-1.219,0-2.229-0.301-3.034-0.899
		c-0.977-0.725-1.466-1.711-1.466-2.965c0-1.264,0.489-2.25,1.466-2.962C211.388,59.244,212.396,58.943,213.602,58.93L213.602,58.93
		z M213.609,60.333c-0.791,0-1.434,0.243-1.932,0.733c-0.461,0.459-0.692,1.033-0.692,1.725c0,0.689,0.231,1.263,0.692,1.721
		c0.498,0.495,1.144,0.74,1.937,0.74c0.79,0,1.434-0.245,1.932-0.74c0.46-0.453,0.692-1.016,0.692-1.686
		c0-0.728-0.232-1.314-0.692-1.76C215.046,60.585,214.398,60.341,213.609,60.333L213.609,60.333z M221.564,65.154h4.293
		c0.148,0,0.258-0.032,0.33-0.094c0.072-0.061,0.136-0.174,0.185-0.336h0.185v2.197h-0.185c-0.046-0.16-0.104-0.27-0.183-0.332
		c-0.074-0.061-0.184-0.093-0.332-0.093h-6.569v-0.185c0.161-0.041,0.273-0.098,0.339-0.172c0.068-0.074,0.102-0.181,0.102-0.318
		v-6.059c0-0.139-0.033-0.242-0.097-0.312c-0.065-0.069-0.178-0.13-0.344-0.178v-0.186h2.716v0.186
		c-0.164,0.045-0.279,0.102-0.344,0.176c-0.064,0.072-0.096,0.176-0.096,0.314V65.154L221.564,65.154z M231.662,58.93
		c1.219,0,2.234,0.3,3.048,0.898c0.973,0.726,1.46,1.731,1.46,3.023c0,1.212-0.487,2.179-1.46,2.903
		c-0.805,0.599-1.815,0.899-3.036,0.899c-1.217,0-2.229-0.301-3.033-0.899c-0.977-0.725-1.466-1.711-1.466-2.965
		c0-1.264,0.489-2.25,1.466-2.962C229.447,59.244,230.457,58.943,231.662,58.93L231.662,58.93z M231.67,60.333
		c-0.791,0-1.434,0.243-1.932,0.733c-0.461,0.459-0.692,1.033-0.692,1.725c0,0.689,0.231,1.263,0.692,1.721
		c0.498,0.495,1.144,0.74,1.936,0.74c0.791,0,1.435-0.245,1.933-0.74c0.461-0.453,0.692-1.016,0.692-1.686
		c0-0.728-0.231-1.314-0.692-1.76C233.105,60.585,232.457,60.341,231.67,60.333L231.67,60.333z M233.648,56.355v0.18
		c-0.178,0.004-0.312,0.062-0.402,0.178l-0.974,1.152c-0.027,0.031-0.042,0.066-0.042,0.105c0,0.07,0.05,0.105,0.146,0.105
		c0.003,0,0.011,0,0.026,0v0.179h-1.485v-0.179c0.11,0,0.187-0.016,0.231-0.047c0.047-0.029,0.089-0.095,0.131-0.191l0.451-1.078
		c0.02-0.04,0.028-0.074,0.028-0.099c0-0.072-0.063-0.112-0.191-0.126v-0.18H233.648L233.648,56.355z M244.27,63.638h-1.748
		c-0.146,0-0.257,0.031-0.332,0.092c-0.077,0.063-0.135,0.172-0.182,0.332h-0.186v-1.959h0.186c0.047,0.155,0.104,0.262,0.182,0.324
		c0.075,0.061,0.186,0.093,0.332,0.093h3.652v0.192c-0.16,0.045-0.272,0.108-0.338,0.191c-0.067,0.084-0.101,0.203-0.101,0.357
		v1.562c0,0.137,0.033,0.243,0.101,0.318c0.065,0.074,0.178,0.133,0.338,0.178v0.151c-1.479,0.788-2.955,1.184-4.426,1.184
		c-1.27,0-2.297-0.289-3.083-0.867c-0.425-0.316-0.768-0.709-1.029-1.177c-0.306-0.555-0.458-1.148-0.458-1.779
		c0-0.873,0.278-1.648,0.835-2.328c0.868-1.05,2.151-1.573,3.853-1.573c0.743,0,1.592,0.157,2.549,0.476
		c0.379,0.123,0.599,0.186,0.664,0.186c0.077,0,0.168-0.036,0.273-0.105l0.164,0.085l-0.91,1.866l-0.166-0.08
		c0-0.018,0-0.031,0-0.041c0-0.162-0.168-0.329-0.508-0.5c-0.624-0.323-1.295-0.483-2.014-0.483c-0.825,0-1.504,0.219-2.035,0.654
		c-0.557,0.458-0.834,1.075-0.834,1.852c0,0.728,0.253,1.31,0.76,1.745c0.521,0.445,1.252,0.668,2.191,0.668
		c0.896,0,1.651-0.16,2.27-0.482V63.638L244.27,63.638z M249.723,59.763v6.051c0,0.139,0.033,0.242,0.096,0.316
		c0.065,0.072,0.18,0.133,0.344,0.182v0.185h-2.715v-0.185c0.161-0.041,0.273-0.098,0.34-0.172s0.1-0.181,0.1-0.318v-6.059
		c0-0.139-0.033-0.242-0.096-0.312c-0.065-0.069-0.178-0.13-0.344-0.178v-0.186h2.715v0.186c-0.164,0.045-0.278,0.102-0.344,0.176
		C249.756,59.521,249.723,59.625,249.723,59.763L249.723,59.763z M259.015,63.843l1.157,1.628l-0.156,0.113
		c-0.109-0.075-0.196-0.113-0.262-0.113c-0.077,0-0.258,0.081-0.54,0.244c-0.627,0.353-1.179,0.599-1.658,0.733
		c-0.479,0.139-1.034,0.206-1.659,0.206c-1.252,0-2.272-0.289-3.062-0.867c-0.449-0.329-0.805-0.745-1.07-1.242
		c-0.281-0.54-0.425-1.122-0.425-1.755c0-0.866,0.26-1.635,0.781-2.301c0.817-1.041,2.072-1.56,3.763-1.56
		c0.625,0,1.182,0.067,1.668,0.205c0.486,0.136,1.041,0.382,1.663,0.733c0.282,0.163,0.463,0.244,0.54,0.244
		c0.065,0,0.152-0.038,0.262-0.113l0.156,0.12l-1.157,1.622l-0.152-0.106c0.005-0.055,0.011-0.086,0.015-0.1
		c0.004-0.04,0.007-0.067,0.007-0.085c0-0.217-0.31-0.461-0.924-0.734c-0.585-0.26-1.174-0.391-1.768-0.391
		c-0.833,0-1.519,0.212-2.056,0.635c-0.618,0.477-0.927,1.086-0.927,1.83c0,0.75,0.309,1.364,0.927,1.841
		c0.542,0.418,1.227,0.628,2.056,0.628c0.647,0,1.293-0.156,1.938-0.47c0.502-0.246,0.753-0.463,0.753-0.648
		c0-0.009-0.007-0.069-0.021-0.185L259.015,63.843L259.015,63.843z M267.107,64.645h-3.529l-0.398,0.806
		c-0.096,0.194-0.143,0.348-0.143,0.456c0,0.212,0.145,0.349,0.439,0.405v0.185h-2.824v-0.185c0.172-0.027,0.301-0.077,0.388-0.152
		c0.084-0.076,0.183-0.223,0.298-0.444l2.801-5.476c0.105-0.208,0.16-0.389,0.16-0.545c0-0.18-0.129-0.32-0.385-0.422v-0.186h2.98
		v0.186c-0.251,0.098-0.377,0.246-0.377,0.449c0,0.146,0.057,0.325,0.171,0.535l2.904,5.313c0.161,0.289,0.285,0.474,0.377,0.56
		c0.091,0.086,0.231,0.146,0.419,0.182v0.185h-3.133v-0.185c0.298-0.049,0.445-0.184,0.445-0.402c0-0.136-0.056-0.305-0.171-0.508
		L267.107,64.645L267.107,64.645z M266.555,63.607l-1.256-2.383l-1.197,2.383H266.555z"/>
	<path fill-rule="evenodd" clip-rule="evenodd" d="M96.634,17.833l-3.407,6.488l-0.586-0.324c0.015-0.138,0.021-0.242,0.021-0.324
		c0-0.455-0.407-0.951-1.214-1.476c-2.486-1.669-5.4-2.503-8.75-2.503c-1.479,0-2.778,0.172-3.914,0.524
		c-0.821,0.269-1.486,0.676-1.993,1.214c-0.507,0.538-0.764,1.124-0.764,1.758c0,1.035,0.65,1.738,1.943,2.117
		c0.671,0.186,2.107,0.393,4.314,0.607l3.285,0.324c1.95,0.2,3.528,0.476,4.735,0.828s2.278,0.841,3.207,1.476
		c0.95,0.655,1.7,1.524,2.25,2.607c0.55,1.076,0.829,2.227,0.829,3.448c0,1.944-0.65,3.668-1.943,5.171
		c-1.171,1.38-2.992,2.394-5.463,3.055c-1.843,0.497-3.814,0.746-5.921,0.746c-3.778,0-7.507-0.877-11.192-2.628
		c-0.778-0.352-1.242-0.524-1.4-0.524c-0.178,0-0.464,0.145-0.857,0.441l-0.607-0.303l3.093-6.765l0.607,0.283
		c0,0.117,0,0.207,0,0.262c0,0.607,0.3,1.166,0.9,1.676c0.907,0.779,2.307,1.455,4.207,2.02c1.893,0.565,3.693,0.849,5.393,0.849
		c1.857,0,3.442-0.304,4.75-0.91c0.729-0.338,1.307-0.779,1.736-1.345c0.436-0.559,0.649-1.138,0.649-1.745
		c0-0.917-0.507-1.565-1.528-1.958c-0.707-0.269-2.142-0.517-4.307-0.745l-3.221-0.324c-2.165-0.214-3.693-0.421-4.585-0.614
		c-0.893-0.2-1.786-0.51-2.679-0.945c-1.264-0.6-2.264-1.51-2.985-2.724c-0.657-1.089-0.985-2.344-0.985-3.758
		c0-2.331,0.828-4.254,2.493-5.779c2.171-2.007,5.435-3.006,9.792-3.006c1.821,0,3.528,0.18,5.099,0.538
		c1.579,0.352,3.543,1.014,5.907,1.965c0.807,0.31,1.3,0.469,1.485,0.469c0.293,0,0.629-0.159,1.022-0.469L96.634,17.833
		L96.634,17.833z M118.167,37.43H107.39l-1.214,2.462c-0.293,0.593-0.436,1.062-0.436,1.393c0,0.648,0.443,1.062,1.343,1.234v0.565
		h-8.628v-0.565c0.529-0.082,0.922-0.234,1.186-0.462c0.257-0.234,0.557-0.683,0.908-1.358l8.556-16.722
		c0.321-0.634,0.485-1.186,0.485-1.662c0-0.551-0.393-0.979-1.171-1.29V20.46h9.099v0.565c-0.764,0.296-1.149,0.752-1.149,1.373
		c0,0.448,0.171,0.993,0.521,1.634l8.871,16.225c0.493,0.883,0.872,1.447,1.15,1.711c0.278,0.262,0.707,0.447,1.278,0.551v0.565
		h-9.563v-0.565c0.907-0.145,1.357-0.559,1.357-1.228c0-0.413-0.171-0.931-0.521-1.552L118.167,37.43L118.167,37.43z
		 M116.481,34.258l-3.835-7.275l-3.657,7.275H116.481L116.481,34.258z M136.58,28.176v12.833c0,0.414,0.1,0.737,0.307,0.965
		c0.2,0.229,0.543,0.406,1.036,0.545v0.565h-7.792v-0.565c0.493-0.124,0.836-0.297,1.036-0.524c0.207-0.228,0.307-0.552,0.307-0.972
		V22.521c0-0.42-0.1-0.737-0.293-0.951c-0.2-0.214-0.543-0.4-1.05-0.545V20.46h9v0.565c-0.614,0.145-0.921,0.414-0.921,0.786
		c0,0.324,0.229,0.704,0.671,1.131l12.549,12.04V22.521c0-0.42-0.101-0.737-0.293-0.958c-0.2-0.227-0.543-0.399-1.05-0.538V20.46
		h7.793v0.565c-0.5,0.138-0.852,0.311-1.051,0.538c-0.193,0.221-0.293,0.538-0.293,0.958v18.48c0,0.422,0.1,0.738,0.293,0.967
		c0.199,0.22,0.551,0.406,1.051,0.551v0.565h-8.393v-0.565c0.614-0.117,0.922-0.365,0.922-0.745c0-0.187-0.087-0.379-0.251-0.579
		c-0.172-0.199-0.557-0.593-1.157-1.179L136.58,28.176L136.58,28.176z M170.791,42.029l2.678-6.991l0.629,0.228
		c-0.014,0.158-0.021,0.296-0.021,0.4c0,0.551,0.357,1.062,1.064,1.537c0.758,0.469,1.764,0.869,3.028,1.193
		c1.257,0.324,2.472,0.483,3.628,0.483c1.865,0,3.229-0.414,4.078-1.234c0.429-0.414,0.722-0.911,0.879-1.483
		c0.15-0.572,0.229-1.434,0.229-2.592V17.633c0-0.421-0.1-0.738-0.293-0.952c-0.199-0.213-0.543-0.386-1.05-0.524v-0.648h8.921
		v0.648c-0.5,0.138-0.851,0.311-1.05,0.524c-0.193,0.214-0.293,0.531-0.293,0.952v16.239c0,2.668-0.386,4.592-1.149,5.778
		c-0.808,1.248-2.008,2.214-3.6,2.896c-1.594,0.683-3.443,1.021-5.564,1.021c-1.215,0-2.264-0.076-3.156-0.235
		c-0.894-0.151-2.351-0.524-4.379-1.103c-1.25-0.352-2.143-0.525-2.672-0.525c-0.463,0-0.885,0.188-1.277,0.566L170.791,42.029
		L170.791,42.029z M211.801,19.978c3.723,0,6.822,0.917,9.307,2.745c2.973,2.213,4.457,5.289,4.457,9.233
		c0,3.703-1.484,6.654-4.457,8.868c-2.456,1.827-5.542,2.745-9.27,2.745c-3.721,0-6.807-0.918-9.264-2.745
		c-2.986-2.214-4.479-5.227-4.479-9.054c0-3.861,1.492-6.875,4.479-9.046C205.038,20.936,208.117,20.019,211.801,19.978
		L211.801,19.978z M211.824,24.259c-2.415,0-4.379,0.745-5.9,2.241c-1.407,1.4-2.113,3.158-2.113,5.268
		c0,2.104,0.706,3.855,2.113,5.254c1.521,1.51,3.492,2.262,5.914,2.262c2.414,0,4.377-0.752,5.899-2.262
		c1.407-1.386,2.113-3.103,2.113-5.15c0-2.221-0.706-4.013-2.113-5.372C216.209,25.032,214.23,24.287,211.824,24.259L211.824,24.259
		z M251.705,22.501l-2.828,5.275l-0.5-0.262c0-0.441-0.15-0.793-0.442-1.048c-0.793-0.689-1.964-1.255-3.515-1.696
		c-1.55-0.448-3.121-0.668-4.707-0.668c-1.356,0-2.557,0.179-3.6,0.544c-1.506,0.524-2.264,1.283-2.264,2.283
		c0,0.662,0.364,1.124,1.086,1.4c0.729,0.276,2.128,0.497,4.207,0.662l3.307,0.242c2.893,0.213,5.086,0.751,6.592,1.613
		c0.843,0.483,1.529,1.131,2.071,1.938c0.686,1.014,1.028,2.145,1.028,3.414c0,2.304-1.07,4.116-3.221,5.454
		c-2.05,1.275-4.828,1.918-8.328,1.918c-3.535,0-6.941-0.725-10.234-2.166c-0.222-0.09-0.414-0.138-0.564-0.138
		c-0.278,0-0.543,0.159-0.778,0.482l-0.521-0.2l2.406-5.537l0.521,0.2c0,0.083,0,0.138,0,0.166c0,0.352,0.143,0.648,0.422,0.89
		c0.692,0.593,1.898,1.103,3.62,1.544c1.714,0.435,3.407,0.655,5.086,0.655c1.478,0,2.8-0.186,3.971-0.566
		c1.45-0.454,2.179-1.199,2.179-2.219c0-0.821-0.501-1.393-1.508-1.71c-0.671-0.221-1.879-0.4-3.621-0.544l-3.285-0.27
		c-1.771-0.13-3.121-0.303-4.057-0.523c-0.936-0.214-1.75-0.531-2.449-0.945c-0.894-0.538-1.586-1.276-2.094-2.207
		c-0.5-0.924-0.75-1.945-0.75-3.048c0-2.476,1.1-4.372,3.307-5.675c2.008-1.186,4.493-1.779,7.45-1.779
		c1.606,0,3.099,0.172,4.492,0.517c1.386,0.345,3.042,0.945,4.972,1.807c0.57,0.255,0.964,0.386,1.192,0.386
		c0.222,0,0.507-0.152,0.856-0.448L251.705,22.501L251.705,22.501z M262.498,33.465v5.517h14.876c0.436,0,0.765-0.098,0.993-0.283
		c0.236-0.186,0.414-0.531,0.558-1.027h0.585v6.709h-0.585c-0.129-0.476-0.308-0.807-0.543-1c-0.236-0.199-0.572-0.296-1.008-0.296
		h-21.826v-0.565c0.493-0.124,0.835-0.297,1.036-0.524c0.207-0.228,0.307-0.552,0.307-0.972V22.521c0-0.42-0.1-0.737-0.293-0.951
		c-0.199-0.214-0.543-0.4-1.05-0.545V20.46h21.177c0.45,0,0.785-0.097,1.014-0.283c0.236-0.193,0.415-0.531,0.558-1.014h0.563v6.709
		h-0.563c-0.143-0.497-0.321-0.841-0.558-1.027c-0.229-0.186-0.563-0.283-1.014-0.283h-14.227v4.965h8.827
		c0.436,0,0.765-0.097,0.992-0.283c0.236-0.193,0.429-0.531,0.579-1.014h0.564v6.544h-0.564c-0.144-0.483-0.321-0.821-0.558-1.021
		c-0.229-0.193-0.564-0.289-1.014-0.289H262.498L262.498,33.465z M273.268,12.117v0.544c-0.543,0.014-0.95,0.193-1.229,0.545
		l-2.972,3.517c-0.085,0.096-0.128,0.207-0.128,0.324c0,0.214,0.15,0.324,0.443,0.324c0.007,0,0.035,0,0.078,0v0.545h-4.535v-0.545
		c0.336,0,0.572-0.048,0.707-0.145c0.143-0.09,0.271-0.29,0.4-0.586l1.378-3.289c0.057-0.124,0.086-0.228,0.086-0.304
		c0-0.22-0.193-0.344-0.586-0.386v-0.544H273.268z"/>
</g>
</svg>
