<?xml version="1.0" encoding="utf-8"?>
<!-- Generator: Adobe Illustrator 16.0.0, SVG Export Plug-In . SVG Version: 6.00 Build 0)  -->
<!DOCTYPE svg PUBLIC "-//W3C//DTD SVG 1.1 Basic//EN" "http://www.w3.org/Graphics/SVG/1.1/DTD/svg11-basic.dtd">
<svg version="1.1" baseProfile="basic" id="Layer_1"
	 xmlns="http://www.w3.org/2000/svg" xmlns:xlink="http://www.w3.org/1999/xlink" x="0px" y="0px" width="128.153px"
	 height="42.252px" viewBox="0 0 128.153 42.252" xml:space="preserve">
<g>
	<g>
		<path fill="#BCBEC0" d="M44.457,29.526l-0.004-0.075c-2.034,1.2-4.333,1.8-6.897,1.8c-2.479,0-4.43-0.502-5.851-1.506
			c-1.533-1.059-2.299-2.563-2.299-4.515c0-0.585,0.069-1.197,0.208-1.839l2.759-13h4.013l-2.759,12.959
			c-0.084,0.39-0.125,0.766-0.125,1.128c0,2.146,1.602,3.219,4.808,3.219c4.346,0,6.966-2.104,7.858-6.312l2.34-10.994h4.013
			l-3.831,18.11L44.457,29.526z"/>
		<path fill="#BCBEC0" d="M51.894,30.789L57.955,2.45h4.617l-5.964,28.339H51.894z"/>
		<path fill="#BCBEC0" d="M74.731,30.121c-1.87,0.809-4.031,1.213-6.484,1.213c-5.712,0-8.186-2.174-7.422-6.521
			c0.156-0.891,0.439-1.866,0.848-2.926h4.097c-0.348,0.864-0.575,1.604-0.684,2.216c-0.229,1.311,0.019,2.236,0.746,2.779
			c0.726,0.544,2.023,0.815,3.891,0.815c3.456,0,5.534-0.892,6.237-2.676c0.415-1.086-0.423-1.867-2.514-2.341
			c-0.162-0.026-1.466-0.222-3.91-0.585c-3.854-0.585-5.556-2.159-5.106-4.724c0.063-0.362,0.174-0.752,0.332-1.17
			c0.817-2.117,2.427-3.748,4.83-4.89c1.982-0.977,4.073-1.464,6.275-1.464c5.603,0,8.047,2.021,7.338,6.06
			c-0.138,0.782-0.385,1.632-0.742,2.551h-4.137c0.298-0.752,0.494-1.393,0.587-1.923c0.196-1.113-0.035-1.901-0.692-2.361
			c-0.658-0.46-1.836-0.69-3.535-0.69c-1.394,0-2.636,0.251-3.728,0.754c-1.092,0.501-1.792,1.156-2.101,1.964
			c-0.404,1.031,0.421,1.727,2.476,2.09c0.672,0.141,2.049,0.39,4.131,0.752c3.736,0.613,5.381,2.202,4.931,4.765
			c-0.069,0.392-0.181,0.795-0.338,1.213C79.155,27.308,77.378,29.007,74.731,30.121z"/>
		<path fill="#BCBEC0" d="M117.791,16.16c-1.45,1.589-2.453,3.664-3.01,6.228l-1.797,8.401h-4.013l3.813-17.711l4.17-0.889l0,0
			c2.314-1.532,5.448-2.299,9.405-2.299l-0.752,3.553C122.04,13.443,119.434,14.35,117.791,16.16z"/>
		<path fill="#BCBEC0" d="M26.08,12.189c-1.617-1.532-3.958-2.299-7.022-2.299c-2.899,0-5.504,0.78-7.817,2.34l-4.306,1.265
			l-5.14,24.317h4.012l1.756-8.235c1.644,1.589,3.928,2.384,6.855,2.384c3.623,0,6.688-1.087,9.196-3.261
			c2.285-1.979,3.775-4.598,4.472-7.859c0.195-0.946,0.293-1.865,0.293-2.758C28.379,15.575,27.612,13.61,26.08,12.189z
			 M20.193,15.139c0.637,0,1.155,0.517,1.155,1.154c0,0.636-0.518,1.153-1.155,1.153c-0.637,0-1.154-0.518-1.154-1.153
			C19.04,15.655,19.557,15.139,20.193,15.139z M19.027,27.272c-0.103,0.858-0.833,1.523-1.719,1.523
			c-0.957,0-1.731-0.774-1.731-1.73c0-0.135,0.016-0.265,0.045-0.391c-0.428-0.251-0.814-0.564-1.147-0.928
			c-0.474,0.626-1.225,1.03-2.071,1.03c-1.434,0-2.596-1.164-2.596-2.598c0-1.435,1.162-2.597,2.596-2.597
			c0.286,0,0.56,0.047,0.817,0.132c0.144-1.039,0.609-1.976,1.293-2.704c-1.118-0.397-1.918-1.464-1.918-2.719
			c0-1.594,1.292-2.886,2.885-2.886c1.594,0,2.886,1.292,2.886,2.886c0,0.411-0.086,0.801-0.241,1.154h0
			c2.736,0,4.953,2.218,4.953,4.954C23.079,24.828,21.333,26.849,19.027,27.272z"/>
		<path fill="#BCBEC0" d="M104.814,11.169l-0.154-0.034c-1.644-1.503-3.943-2.256-6.896-2.256c-3.567,0-6.605,1.046-9.112,3.135
			c-2.369,1.951-3.888,4.487-4.557,7.608c-0.168,0.863-0.25,1.7-0.25,2.507c0,2.425,0.752,4.362,2.257,5.811
			c1.644,1.533,3.97,2.3,6.981,2.3c3.064,0,5.739-0.78,8.024-2.342l-0.417,1.924h4.013l3.703-17.434L104.814,11.169z M97.425,13.37
			c0.637,0,1.155,0.517,1.155,1.155c0,0.636-0.518,1.153-1.155,1.153s-1.154-0.518-1.154-1.153
			C96.271,13.887,96.788,13.37,97.425,13.37z M96.258,25.505c-0.102,0.858-0.832,1.523-1.719,1.523c-0.957,0-1.731-0.774-1.731-1.73
			c0-0.135,0.016-0.266,0.045-0.391c-0.428-0.251-0.814-0.564-1.147-0.929c-0.474,0.626-1.225,1.03-2.071,1.03
			c-1.434,0-2.597-1.163-2.597-2.597c0-1.435,1.163-2.598,2.597-2.598c0.286,0,0.56,0.047,0.817,0.132
			c0.144-1.038,0.609-1.975,1.293-2.703c-1.118-0.397-1.918-1.464-1.918-2.719c0-1.594,1.292-2.886,2.886-2.886
			s2.886,1.292,2.886,2.886c0,0.41-0.086,0.801-0.241,1.154c0,0,0,0,0,0c2.736,0,4.953,2.217,4.953,4.954
			C100.311,23.061,98.564,25.081,96.258,25.505z"/>
	</g>
	<g>
		<g>
			<path fill="#BCBEC0" d="M59.903,36.26l-0.322,0.325c-0.311-0.389-0.729-0.582-1.256-0.582c-0.344,0-0.688,0.084-1.031,0.251
				c-0.343,0.168-0.636,0.394-0.88,0.679c-0.244,0.284-0.408,0.589-0.494,0.916c-0.077,0.291-0.081,0.55-0.01,0.775
				c0.07,0.226,0.21,0.403,0.422,0.531s0.475,0.191,0.791,0.191c0.481,0,0.971-0.152,1.467-0.457l0.135,0.309
				c-0.362,0.202-0.663,0.338-0.904,0.408s-0.507,0.105-0.798,0.105c-0.538,0-0.94-0.135-1.208-0.404
				c-0.354-0.362-0.452-0.845-0.293-1.447c0.164-0.623,0.528-1.151,1.093-1.585c0.564-0.435,1.181-0.651,1.849-0.651
				c0.305,0,0.57,0.048,0.795,0.145C59.485,35.864,59.699,36.028,59.903,36.26z"/>
			<path fill="#BCBEC0" d="M57,39.803c-0.556,0-0.98-0.143-1.259-0.425C55.37,39,55.266,38.489,55.432,37.86
				c0.17-0.646,0.553-1.201,1.138-1.65c0.583-0.448,1.229-0.676,1.918-0.676c0.315,0,0.593,0.051,0.826,0.15
				c0.233,0.1,0.457,0.27,0.666,0.507l0.047,0.054l-0.469,0.476l-0.056-0.07c-0.296-0.37-0.7-0.558-1.202-0.558
				c-0.326,0-0.657,0.081-0.983,0.24c-0.326,0.159-0.608,0.376-0.838,0.646c-0.23,0.269-0.388,0.561-0.469,0.87
				c-0.072,0.273-0.076,0.52-0.01,0.73c0.065,0.21,0.197,0.377,0.395,0.496c0.199,0.12,0.452,0.182,0.752,0.182
				c0.459,0,0.934-0.148,1.409-0.44l0.089-0.055l0.202,0.462l-0.091,0.051c-0.369,0.205-0.681,0.346-0.929,0.418
				C57.577,39.766,57.299,39.803,57,39.803z M58.44,35.715c-0.641,0-1.24,0.21-1.779,0.625c-0.539,0.414-0.892,0.926-1.048,1.521
				c-0.153,0.579-0.062,1.03,0.278,1.377c0.253,0.255,0.642,0.385,1.157,0.385c0.281,0,0.54-0.034,0.77-0.102
				c0.211-0.062,0.475-0.178,0.787-0.347l-0.069-0.158c-0.484,0.279-0.967,0.422-1.437,0.422c-0.329,0-0.608-0.068-0.83-0.202
				c-0.224-0.136-0.375-0.326-0.45-0.566c-0.074-0.239-0.071-0.515,0.01-0.82c0.09-0.342,0.265-0.666,0.519-0.963
				c0.254-0.297,0.564-0.535,0.922-0.71c0.357-0.175,0.72-0.264,1.078-0.264c0.517,0,0.938,0.181,1.254,0.538l0.174-0.176
				c-0.182-0.195-0.374-0.337-0.572-0.422C58.991,35.761,58.733,35.715,58.44,35.715z"/>
		</g>
		<g>
			<path fill="#BCBEC0" d="M61.832,36.661c0.245,0,0.455,0.059,0.628,0.176c0.173,0.118,0.29,0.281,0.35,0.49
				s0.054,0.445-0.016,0.71c-0.08,0.302-0.227,0.582-0.441,0.84c-0.215,0.259-0.464,0.458-0.749,0.6
				c-0.284,0.141-0.582,0.212-0.895,0.212c-0.386,0-0.67-0.127-0.854-0.38s-0.222-0.575-0.119-0.967
				c0.081-0.308,0.229-0.59,0.443-0.85c0.215-0.259,0.469-0.462,0.763-0.61C61.237,36.735,61.533,36.661,61.832,36.661z
				 M61.729,37.014c-0.229,0-0.46,0.057-0.693,0.172c-0.232,0.114-0.429,0.271-0.591,0.472c-0.161,0.2-0.273,0.422-0.337,0.663
				c-0.08,0.304-0.051,0.55,0.086,0.739s0.354,0.284,0.651,0.284c0.231,0,0.455-0.055,0.672-0.165
				c0.217-0.11,0.409-0.27,0.575-0.478c0.167-0.208,0.281-0.431,0.344-0.669c0.053-0.2,0.058-0.376,0.016-0.53
				c-0.042-0.155-0.128-0.274-0.257-0.36S61.91,37.014,61.729,37.014z"/>
			<path fill="#BCBEC0" d="M60.687,39.778c-0.41,0-0.716-0.137-0.911-0.406c-0.194-0.27-0.238-0.616-0.128-1.03
				c0.085-0.321,0.242-0.622,0.467-0.894c0.226-0.272,0.497-0.489,0.806-0.645c0.308-0.154,0.623-0.232,0.936-0.232
				c0.26,0,0.486,0.063,0.67,0.188c0.186,0.125,0.312,0.302,0.375,0.524c0.063,0.222,0.058,0.476-0.016,0.754
				c-0.083,0.316-0.24,0.614-0.464,0.885c-0.226,0.271-0.492,0.484-0.791,0.633C61.33,39.703,61.013,39.778,60.687,39.778z
				 M61.808,36.752c-0.28,0-0.563,0.07-0.839,0.209c-0.276,0.138-0.519,0.332-0.72,0.576c-0.203,0.244-0.344,0.515-0.42,0.805
				c-0.098,0.37-0.062,0.666,0.11,0.903c0.171,0.237,0.432,0.353,0.796,0.353c0.295,0,0.58-0.067,0.847-0.199
				c0.267-0.133,0.503-0.322,0.706-0.565c0.202-0.243,0.343-0.512,0.417-0.796c0.065-0.248,0.071-0.473,0.015-0.667
				c-0.055-0.193-0.164-0.346-0.325-0.454C62.233,36.807,62.036,36.752,61.808,36.752z M60.821,39.435
				c-0.321,0-0.559-0.104-0.708-0.312c-0.149-0.206-0.181-0.477-0.095-0.803c0.067-0.256,0.189-0.493,0.36-0.706
				c0.173-0.214,0.387-0.385,0.635-0.508c0.247-0.122,0.497-0.184,0.741-0.184c0.195,0,0.365,0.047,0.505,0.14
				c0.142,0.094,0.237,0.228,0.283,0.396c0.046,0.168,0.041,0.36-0.016,0.574c-0.066,0.252-0.189,0.491-0.365,0.712
				c-0.177,0.222-0.386,0.395-0.618,0.513S61.067,39.435,60.821,39.435z M61.706,37.104c-0.212,0-0.43,0.054-0.645,0.16
				c-0.214,0.105-0.398,0.253-0.547,0.437c-0.15,0.187-0.256,0.395-0.315,0.62c-0.074,0.281-0.049,0.503,0.077,0.676
				c0.125,0.174,0.319,0.258,0.593,0.258c0.214,0,0.424-0.051,0.624-0.153c0.199-0.101,0.378-0.249,0.532-0.441
				c0.155-0.194,0.263-0.405,0.321-0.627c0.048-0.184,0.054-0.348,0.015-0.488c-0.038-0.138-0.116-0.247-0.232-0.324
				C62.012,37.143,61.869,37.104,61.706,37.104z"/>
		</g>
		<g>
			<path fill="#BCBEC0" d="M64.048,36.724h0.362l-0.164,0.413c0.151-0.149,0.324-0.265,0.52-0.351
				c0.196-0.085,0.381-0.126,0.557-0.126c0.218,0,0.394,0.065,0.528,0.193c0.103,0.101,0.16,0.251,0.17,0.45
				c0.185-0.205,0.388-0.362,0.61-0.475c0.221-0.112,0.431-0.168,0.629-0.168c0.267,0,0.464,0.086,0.591,0.257
				c0.127,0.171,0.154,0.392,0.083,0.663c-0.032,0.124-0.084,0.274-0.154,0.453l-0.622,1.58h-0.363l0.552-1.381
				c0.115-0.29,0.19-0.501,0.226-0.635c0.044-0.168,0.025-0.307-0.056-0.416c-0.081-0.109-0.212-0.164-0.392-0.164
				c-0.19,0-0.384,0.06-0.579,0.179c-0.196,0.118-0.349,0.259-0.46,0.422c-0.112,0.161-0.217,0.366-0.317,0.614l-0.556,1.381h-0.367
				l0.63-1.579c0.066-0.168,0.114-0.306,0.143-0.413c0.049-0.186,0.033-0.333-0.048-0.445c-0.081-0.11-0.21-0.166-0.388-0.166
				c-0.149,0-0.302,0.035-0.457,0.104s-0.292,0.161-0.409,0.274c-0.117,0.112-0.218,0.252-0.306,0.419
				c-0.087,0.166-0.157,0.316-0.21,0.451l-0.538,1.354h-0.368L64.048,36.724z"/>
			<path fill="#BCBEC0" d="M67.215,39.705h-0.546l0.592-1.484c0.113-0.284,0.188-0.493,0.222-0.622
				c0.038-0.145,0.023-0.26-0.046-0.352c-0.069-0.093-0.179-0.138-0.335-0.138c-0.173,0-0.343,0.053-0.522,0.161
				s-0.32,0.237-0.42,0.384c-0.106,0.153-0.208,0.353-0.305,0.591l-0.586,1.46H64.72l0.671-1.683c0.065-0.163,0.112-0.298,0.139-0.4
				c0.043-0.162,0.03-0.287-0.039-0.381c-0.068-0.095-0.177-0.141-0.331-0.141c-0.135,0-0.274,0.032-0.414,0.095
				c-0.141,0.063-0.266,0.147-0.371,0.249c-0.106,0.103-0.201,0.232-0.281,0.387c-0.085,0.162-0.154,0.311-0.206,0.44l-0.569,1.434
				h-0.55l1.224-3.072h0.544l-0.094,0.239c0.096-0.065,0.197-0.119,0.305-0.167c0.209-0.091,0.411-0.136,0.599-0.136
				c0.237,0,0.431,0.072,0.578,0.213c0.084,0.082,0.141,0.194,0.17,0.333c0.158-0.15,0.33-0.272,0.512-0.364
				c0.237-0.119,0.465-0.18,0.679-0.18c0.291,0,0.509,0.095,0.647,0.282c0.14,0.188,0.17,0.433,0.092,0.728
				c-0.033,0.127-0.086,0.283-0.158,0.465L67.215,39.705z M66.924,39.523h0.18l0.59-1.501c0.068-0.174,0.119-0.322,0.15-0.44
				c0.065-0.249,0.042-0.445-0.073-0.601c-0.115-0.154-0.289-0.229-0.534-0.229c-0.181,0-0.376,0.052-0.581,0.155
				c-0.206,0.104-0.398,0.255-0.571,0.445l-0.146,0.162l-0.01-0.183c-0.01-0.182-0.061-0.317-0.152-0.406
				c-0.122-0.117-0.278-0.174-0.478-0.174c-0.161,0-0.333,0.04-0.515,0.119c-0.18,0.078-0.342,0.188-0.481,0.326l-0.28,0.273
				l0.26-0.657h-0.18l-1.08,2.71h0.185l0.507-1.275c0.054-0.138,0.126-0.293,0.215-0.462c0.093-0.179,0.204-0.33,0.331-0.452
				c0.127-0.123,0.277-0.224,0.445-0.299c0.169-0.076,0.337-0.115,0.501-0.115c0.202,0,0.352,0.065,0.445,0.193
				c0.093,0.129,0.113,0.299,0.058,0.509c-0.029,0.11-0.079,0.253-0.147,0.425l-0.589,1.477h0.185l0.524-1.303
				c0.103-0.254,0.213-0.469,0.33-0.638c0.121-0.177,0.29-0.331,0.5-0.459c0.214-0.13,0.428-0.196,0.637-0.196
				c0.204,0,0.355,0.064,0.449,0.19c0.094,0.127,0.116,0.288,0.066,0.48c-0.037,0.139-0.112,0.351-0.23,0.646L66.924,39.523z"/>
		</g>
		<g>
			<path fill="#BCBEC0" d="M69.316,36.724h0.37l-0.493,1.21c-0.145,0.354-0.231,0.582-0.255,0.677
				c-0.057,0.215-0.036,0.393,0.063,0.528c0.099,0.136,0.259,0.205,0.481,0.205c0.184,0,0.358-0.053,0.522-0.158
				c0.164-0.106,0.297-0.244,0.4-0.416c0.052-0.086,0.141-0.29,0.263-0.602l0.576-1.444h0.363l-0.429,1.096
				c-0.205,0.521-0.374,0.895-0.506,1.114c-0.133,0.219-0.313,0.401-0.542,0.542s-0.48,0.212-0.756,0.212
				c-0.313,0-0.543-0.102-0.688-0.305c-0.146-0.204-0.179-0.459-0.098-0.764c0.032-0.122,0.08-0.264,0.145-0.426l0.093-0.254
				l0.045-0.114L69.316,36.724z"/>
			<path fill="#BCBEC0" d="M69.349,39.778c-0.337,0-0.588-0.111-0.746-0.332c-0.158-0.221-0.194-0.499-0.107-0.827
				c0.033-0.125,0.083-0.272,0.149-0.438l0.092-0.252l0.046-0.117l0.479-1.18h0.553l-0.536,1.313
				c-0.142,0.349-0.227,0.574-0.25,0.664c-0.051,0.192-0.034,0.346,0.054,0.465c0.086,0.119,0.225,0.178,0.423,0.178
				c0.165,0,0.316-0.045,0.461-0.139c0.148-0.096,0.266-0.218,0.359-0.373c0.034-0.056,0.105-0.206,0.254-0.584l0.608-1.524h0.544
				l-0.469,1.198c-0.208,0.532-0.377,0.904-0.515,1.132c-0.143,0.235-0.34,0.434-0.585,0.585
				C69.917,39.7,69.643,39.778,69.349,39.778z M69.371,36.813l-0.458,1.132L68.82,38.2c-0.064,0.16-0.112,0.301-0.143,0.418
				c-0.074,0.283-0.046,0.513,0.089,0.7c0.134,0.188,0.34,0.279,0.631,0.279c0.254,0,0.488-0.065,0.697-0.193
				c0.209-0.13,0.376-0.297,0.498-0.497c0.129-0.212,0.297-0.587,0.499-1.1l0.389-0.994h-0.181l-0.545,1.367
				c-0.125,0.319-0.215,0.522-0.271,0.615c-0.113,0.188-0.262,0.343-0.442,0.459c-0.182,0.118-0.378,0.179-0.583,0.179
				c-0.246,0-0.426-0.077-0.538-0.23c-0.111-0.152-0.136-0.351-0.073-0.59c0.026-0.101,0.113-0.33,0.26-0.692l0.451-1.107H69.371z"
				/>
		</g>
		<g>
			<path fill="#BCBEC0" d="M72.438,36.724h0.355l-0.179,0.453c0.385-0.348,0.77-0.519,1.159-0.519c0.298,0,0.514,0.093,0.648,0.275
				c0.135,0.183,0.161,0.429,0.079,0.737c-0.032,0.124-0.107,0.331-0.223,0.622l-0.527,1.321h-0.363l0.527-1.32
				c0.113-0.282,0.187-0.49,0.222-0.625c0.053-0.202,0.035-0.364-0.054-0.488s-0.234-0.186-0.432-0.186
				c-0.195,0-0.389,0.05-0.583,0.15s-0.359,0.236-0.497,0.408c-0.137,0.172-0.28,0.444-0.427,0.816l-0.493,1.244h-0.364
				L72.438,36.724z"/>
			<path fill="#BCBEC0" d="M73.805,39.705H73.26l0.568-1.423c0.11-0.277,0.184-0.483,0.218-0.613
				c0.047-0.179,0.032-0.317-0.045-0.425c-0.078-0.107-0.2-0.159-0.375-0.159c-0.177,0-0.356,0.047-0.533,0.138
				c-0.176,0.092-0.329,0.218-0.455,0.374c-0.129,0.162-0.267,0.426-0.409,0.785l-0.524,1.323h-0.545l1.224-3.072h0.537
				l-0.112,0.285c0.327-0.234,0.658-0.35,0.988-0.35c0.322,0,0.559,0.103,0.706,0.301c0.146,0.199,0.177,0.47,0.089,0.802
				c-0.034,0.129-0.109,0.337-0.228,0.635L73.805,39.705z M73.515,39.523h0.181l0.496-1.242c0.114-0.285,0.188-0.49,0.219-0.609
				c0.076-0.286,0.053-0.507-0.07-0.673c-0.122-0.166-0.316-0.247-0.591-0.247c-0.364,0-0.718,0.16-1.082,0.489l-0.26,0.231
				l0.26-0.659h-0.173l-1.08,2.71h0.18l0.462-1.165c0.153-0.387,0.299-0.663,0.445-0.847c0.148-0.186,0.33-0.335,0.539-0.443
				c0.209-0.109,0.423-0.164,0.634-0.164c0.222,0,0.387,0.071,0.489,0.213c0.102,0.141,0.124,0.326,0.063,0.552
				c-0.037,0.14-0.111,0.349-0.226,0.638L73.515,39.523z"/>
		</g>
		<g>
			<path fill="#BCBEC0" d="M75.672,36.724h0.35l-1.139,2.891H74.52L75.672,36.724z M76.272,35.55c0.081,0,0.143,0.029,0.186,0.088
				c0.043,0.058,0.054,0.128,0.032,0.209c-0.022,0.083-0.07,0.153-0.143,0.21c-0.073,0.058-0.15,0.086-0.231,0.086
				c-0.083,0-0.146-0.028-0.188-0.086c-0.042-0.057-0.052-0.127-0.03-0.21c0.021-0.081,0.068-0.151,0.141-0.209
				C76.111,35.579,76.189,35.55,76.272,35.55z"/>
			<path fill="#BCBEC0" d="M74.938,39.705h-0.545l1.224-3.072h0.531L74.938,39.705z M74.647,39.523h0.18l1.067-2.71h-0.167
				L74.647,39.523z M76.092,36.233c-0.107,0-0.19-0.038-0.245-0.113c-0.055-0.074-0.068-0.166-0.04-0.273
				c0.027-0.105,0.089-0.197,0.184-0.272c0.095-0.076,0.197-0.114,0.305-0.114c0.105,0,0.187,0.038,0.243,0.113
				c0.056,0.076,0.07,0.168,0.042,0.273c-0.028,0.107-0.091,0.2-0.187,0.274C76.299,36.195,76.197,36.233,76.092,36.233z
				 M76.248,35.641c-0.059,0-0.11,0.019-0.162,0.061c-0.052,0.041-0.083,0.088-0.099,0.146c-0.016,0.06-0.009,0.105,0.021,0.146
				c0.03,0.04,0.071,0.06,0.13,0.06c0.058,0,0.109-0.02,0.162-0.061c0.052-0.04,0.083-0.087,0.099-0.146
				c0.015-0.058,0.008-0.104-0.022-0.146C76.347,35.659,76.306,35.641,76.248,35.641z"/>
		</g>
		<g>
			<path fill="#BCBEC0" d="M79.333,37.357l-0.351,0.177c-0.122-0.346-0.402-0.519-0.841-0.519c-0.254,0-0.5,0.057-0.74,0.17
				c-0.24,0.112-0.445,0.27-0.616,0.471c-0.171,0.201-0.287,0.416-0.348,0.646c-0.053,0.203-0.057,0.385-0.012,0.545
				c0.046,0.161,0.137,0.284,0.274,0.371c0.136,0.086,0.313,0.129,0.53,0.129c0.222,0,0.446-0.044,0.671-0.132
				c0.225-0.089,0.412-0.202,0.562-0.342l0.248,0.215c-0.246,0.208-0.493,0.36-0.741,0.456c-0.249,0.096-0.521,0.145-0.814,0.145
				c-0.455,0-0.777-0.124-0.967-0.372c-0.189-0.248-0.229-0.578-0.121-0.991c0.121-0.458,0.392-0.851,0.812-1.176
				s0.873-0.488,1.357-0.488c0.292,0,0.532,0.062,0.722,0.184C79.147,36.968,79.272,37.139,79.333,37.357z"/>
			<path fill="#BCBEC0" d="M77.13,39.778c-0.478,0-0.822-0.133-1.023-0.397c-0.203-0.264-0.247-0.619-0.131-1.056
				c0.127-0.481,0.415-0.898,0.856-1.24c0.44-0.341,0.92-0.514,1.428-0.514c0.305,0,0.561,0.065,0.762,0.194
				c0.202,0.131,0.337,0.315,0.402,0.549l0.021,0.077l-0.526,0.266l-0.026-0.075c-0.113-0.32-0.366-0.476-0.775-0.476
				c-0.238,0-0.471,0.053-0.694,0.158c-0.222,0.104-0.414,0.252-0.572,0.438s-0.267,0.388-0.323,0.6
				c-0.049,0.187-0.053,0.355-0.011,0.502c0.041,0.144,0.124,0.257,0.247,0.334c0.124,0.079,0.289,0.119,0.49,0.119
				c0.208,0,0.421-0.042,0.632-0.125c0.209-0.082,0.384-0.188,0.521-0.315l0.071-0.065l0.372,0.322l-0.089,0.075
				c-0.256,0.217-0.518,0.378-0.778,0.479C77.723,39.728,77.436,39.778,77.13,39.778z M78.212,36.752
				c-0.459,0-0.892,0.155-1.289,0.462c-0.401,0.311-0.651,0.675-0.767,1.111c-0.104,0.392-0.067,0.694,0.11,0.927
				c0.176,0.229,0.482,0.346,0.911,0.346c0.281,0,0.542-0.046,0.777-0.137c0.204-0.078,0.41-0.199,0.613-0.36l-0.124-0.106
				c-0.148,0.121-0.326,0.224-0.53,0.304c-0.237,0.093-0.476,0.14-0.709,0.14c-0.231,0-0.423-0.048-0.57-0.141
				c-0.149-0.095-0.25-0.231-0.3-0.406c-0.05-0.174-0.045-0.372,0.012-0.589c0.065-0.244,0.189-0.478,0.372-0.691
				c0.183-0.215,0.405-0.385,0.66-0.505c0.254-0.119,0.518-0.18,0.785-0.18c0.438,0,0.733,0.164,0.878,0.487l0.175-0.088
				c-0.063-0.167-0.171-0.302-0.325-0.4C78.715,36.81,78.486,36.752,78.212,36.752z"/>
		</g>
		<g>
			<path fill="#BCBEC0" d="M82.029,39.614h-0.373l0.171-0.433c-0.422,0.338-0.847,0.507-1.275,0.507
				c-0.39,0-0.678-0.126-0.862-0.379c-0.185-0.252-0.225-0.576-0.12-0.974c0.121-0.458,0.389-0.852,0.803-1.181
				s0.843-0.494,1.286-0.494c0.24,0,0.438,0.05,0.592,0.15c0.154,0.101,0.267,0.251,0.334,0.465l0.212-0.553h0.384L82.029,39.614z
				 M80.682,39.35c0.237,0,0.468-0.056,0.693-0.168s0.422-0.273,0.591-0.483c0.17-0.21,0.287-0.438,0.353-0.686
				c0.079-0.298,0.048-0.54-0.091-0.728c-0.138-0.187-0.358-0.28-0.659-0.28c-0.353,0-0.689,0.129-1.008,0.385
				c-0.319,0.255-0.527,0.569-0.625,0.941c-0.081,0.306-0.051,0.551,0.087,0.738C80.162,39.256,80.381,39.35,80.682,39.35z"/>
			<path fill="#BCBEC0" d="M80.527,39.778c-0.414,0-0.723-0.136-0.919-0.404c-0.196-0.269-0.24-0.618-0.129-1.038
				c0.127-0.48,0.412-0.9,0.846-1.245s0.892-0.52,1.357-0.52c0.254,0,0.468,0.055,0.633,0.161c0.112,0.073,0.205,0.168,0.274,0.295
				l0.151-0.395h0.567l-1.224,3.072h-0.555l0.115-0.292C81.275,39.655,80.901,39.778,80.527,39.778z M81.634,36.752
				c-0.416,0-0.825,0.157-1.215,0.467c-0.39,0.31-0.646,0.686-0.76,1.117c-0.099,0.376-0.063,0.674,0.11,0.91
				s0.437,0.352,0.805,0.352c0.401,0,0.806-0.161,1.204-0.479l0.24-0.192l-0.236,0.598h0.191l1.081-2.71h-0.201l-0.285,0.741
				l-0.075-0.23c-0.063-0.197-0.166-0.343-0.308-0.435C82.044,36.797,81.858,36.752,81.634,36.752z M80.658,39.439
				c-0.324,0-0.564-0.103-0.715-0.307c-0.151-0.203-0.184-0.474-0.097-0.802c0.104-0.396,0.329-0.733,0.668-1.005
				c0.34-0.273,0.703-0.411,1.08-0.411c0.324,0,0.565,0.104,0.715,0.307c0.151,0.203,0.185,0.47,0.101,0.791
				c-0.069,0.261-0.195,0.506-0.375,0.729c-0.181,0.225-0.395,0.398-0.635,0.519C81.159,39.379,80.91,39.439,80.658,39.439z
				 M81.545,37.096c-0.331,0-0.638,0.116-0.937,0.356c-0.3,0.24-0.49,0.528-0.583,0.879c-0.075,0.282-0.049,0.503,0.078,0.674
				c0.127,0.171,0.324,0.254,0.602,0.254c0.22,0,0.437-0.052,0.645-0.155c0.207-0.104,0.391-0.254,0.547-0.448
				c0.158-0.196,0.269-0.412,0.33-0.643c0.073-0.275,0.046-0.492-0.08-0.663C82.021,37.179,81.823,37.096,81.545,37.096z"/>
		</g>
		<g>
			<path fill="#BCBEC0" d="M86.54,37.357l-0.351,0.177c-0.122-0.346-0.402-0.519-0.841-0.519c-0.254,0-0.5,0.057-0.74,0.17
				c-0.239,0.112-0.445,0.27-0.616,0.471s-0.287,0.416-0.348,0.646c-0.053,0.203-0.057,0.385-0.012,0.545
				c0.046,0.161,0.137,0.284,0.274,0.371c0.137,0.086,0.313,0.129,0.53,0.129c0.222,0,0.446-0.044,0.671-0.132
				c0.225-0.089,0.412-0.202,0.562-0.342l0.248,0.215c-0.246,0.208-0.492,0.36-0.741,0.456c-0.248,0.096-0.52,0.145-0.814,0.145
				c-0.455,0-0.777-0.124-0.967-0.372c-0.19-0.248-0.23-0.578-0.121-0.991c0.121-0.458,0.392-0.851,0.812-1.176
				c0.42-0.325,0.873-0.488,1.358-0.488c0.291,0,0.532,0.062,0.722,0.184C86.354,36.968,86.479,37.139,86.54,37.357z"/>
			<path fill="#BCBEC0" d="M84.337,39.778c-0.477,0-0.822-0.133-1.023-0.397c-0.202-0.264-0.246-0.619-0.131-1.056
				c0.127-0.481,0.415-0.898,0.856-1.24c0.44-0.341,0.92-0.514,1.428-0.514c0.305,0,0.562,0.065,0.762,0.194
				c0.202,0.131,0.337,0.315,0.402,0.549l0.021,0.077l-0.526,0.266L86.1,37.582c-0.113-0.32-0.367-0.476-0.775-0.476
				c-0.238,0-0.471,0.053-0.694,0.158c-0.222,0.104-0.414,0.252-0.572,0.438s-0.267,0.388-0.323,0.6
				c-0.049,0.187-0.053,0.355-0.011,0.502c0.041,0.144,0.124,0.257,0.247,0.334c0.125,0.079,0.289,0.119,0.49,0.119
				c0.208,0,0.421-0.042,0.633-0.125c0.209-0.082,0.384-0.188,0.521-0.315l0.07-0.065l0.373,0.322l-0.089,0.075
				c-0.255,0.217-0.517,0.378-0.777,0.479S84.643,39.778,84.337,39.778z M85.419,36.752c-0.458,0-0.892,0.155-1.288,0.462
				c-0.401,0.311-0.651,0.675-0.767,1.111c-0.103,0.392-0.067,0.694,0.11,0.927c0.176,0.229,0.482,0.346,0.911,0.346
				c0.281,0,0.542-0.046,0.777-0.137c0.204-0.078,0.41-0.199,0.613-0.36l-0.124-0.106c-0.148,0.121-0.326,0.224-0.53,0.304
				c-0.237,0.093-0.476,0.14-0.708,0.14c-0.231,0-0.423-0.048-0.57-0.141c-0.149-0.095-0.25-0.231-0.3-0.406
				c-0.049-0.174-0.045-0.372,0.012-0.589c0.064-0.244,0.189-0.478,0.372-0.691c0.183-0.215,0.405-0.385,0.66-0.505
				c0.253-0.119,0.518-0.18,0.786-0.18c0.438,0,0.733,0.164,0.877,0.487l0.176-0.088c-0.063-0.167-0.172-0.302-0.325-0.4
				C85.922,36.81,85.693,36.752,85.419,36.752z"/>
		</g>
		<g>
			<path fill="#BCBEC0" d="M87.469,36.724h0.35l-1.139,2.891h-0.363L87.469,36.724z M88.07,35.55c0.081,0,0.143,0.029,0.186,0.088
				c0.042,0.058,0.053,0.128,0.032,0.209c-0.021,0.083-0.069,0.153-0.143,0.21c-0.073,0.058-0.151,0.086-0.232,0.086
				c-0.083,0-0.146-0.028-0.188-0.086c-0.042-0.057-0.052-0.127-0.03-0.21c0.021-0.081,0.068-0.151,0.141-0.209
				C87.909,35.579,87.987,35.55,88.07,35.55z"/>
			<path fill="#BCBEC0" d="M86.736,39.705H86.19l1.224-3.072h0.531L86.736,39.705z M86.445,39.523h0.18l1.067-2.71h-0.168
				L86.445,39.523z M87.89,36.233c-0.107,0-0.19-0.038-0.245-0.113c-0.055-0.074-0.069-0.166-0.04-0.273
				c0.027-0.105,0.089-0.197,0.184-0.272c0.095-0.076,0.197-0.114,0.305-0.114c0.105,0,0.187,0.038,0.243,0.113
				c0.056,0.076,0.069,0.168,0.042,0.273c-0.028,0.107-0.091,0.2-0.187,0.274C88.096,36.195,87.995,36.233,87.89,36.233z
				 M88.046,35.641c-0.059,0-0.111,0.019-0.162,0.061c-0.052,0.041-0.083,0.088-0.098,0.146c-0.016,0.06-0.009,0.105,0.021,0.146
				c0.03,0.04,0.072,0.06,0.131,0.06c0.058,0,0.109-0.02,0.162-0.061c0.052-0.04,0.083-0.087,0.099-0.146
				c0.016-0.058,0.008-0.104-0.022-0.146C88.144,35.659,88.104,35.641,88.046,35.641z"/>
		</g>
		<g>
			<path fill="#BCBEC0" d="M89.943,36.661c0.245,0,0.455,0.059,0.628,0.176c0.174,0.118,0.29,0.281,0.35,0.49
				s0.055,0.445-0.016,0.71c-0.079,0.302-0.227,0.582-0.441,0.84c-0.215,0.259-0.464,0.458-0.749,0.6
				c-0.284,0.141-0.582,0.212-0.894,0.212c-0.387,0-0.671-0.127-0.854-0.38c-0.183-0.253-0.223-0.575-0.12-0.967
				c0.081-0.308,0.229-0.59,0.444-0.85c0.214-0.259,0.469-0.462,0.763-0.61C89.35,36.735,89.646,36.661,89.943,36.661z
				 M89.842,37.014c-0.23,0-0.461,0.057-0.693,0.172c-0.232,0.114-0.429,0.271-0.591,0.472s-0.274,0.422-0.337,0.663
				c-0.081,0.304-0.052,0.55,0.085,0.739c0.138,0.189,0.354,0.284,0.651,0.284c0.231,0,0.456-0.055,0.673-0.165
				s0.409-0.27,0.575-0.478s0.281-0.431,0.343-0.669c0.053-0.2,0.058-0.376,0.016-0.53c-0.042-0.155-0.128-0.274-0.257-0.36
				S90.022,37.014,89.842,37.014z M90.779,35.368h0.569l-1.112,0.813h-0.365L90.779,35.368z"/>
			<path fill="#BCBEC0" d="M88.798,39.778c-0.409,0-0.716-0.137-0.911-0.406c-0.194-0.27-0.238-0.616-0.128-1.03
				c0.085-0.321,0.242-0.622,0.467-0.894c0.226-0.272,0.497-0.489,0.806-0.645c0.308-0.154,0.623-0.232,0.936-0.232
				c0.26,0,0.485,0.063,0.67,0.188c0.185,0.125,0.312,0.302,0.375,0.524c0.063,0.222,0.058,0.476-0.016,0.754
				c-0.083,0.316-0.24,0.614-0.465,0.885c-0.226,0.271-0.492,0.484-0.791,0.633C89.442,39.703,89.125,39.778,88.798,39.778z
				 M89.919,36.752c-0.28,0-0.563,0.07-0.839,0.209c-0.276,0.138-0.518,0.332-0.72,0.576c-0.203,0.244-0.344,0.515-0.42,0.805
				c-0.098,0.37-0.062,0.666,0.11,0.903s0.432,0.353,0.797,0.353c0.294,0,0.58-0.067,0.846-0.199
				c0.267-0.133,0.504-0.322,0.706-0.565c0.202-0.243,0.343-0.512,0.417-0.796c0.066-0.248,0.071-0.473,0.016-0.667
				c-0.055-0.193-0.165-0.346-0.325-0.454C90.345,36.807,90.148,36.752,89.919,36.752z M88.932,39.435
				c-0.32,0-0.558-0.104-0.708-0.312c-0.149-0.206-0.181-0.477-0.095-0.803c0.067-0.256,0.189-0.493,0.36-0.706
				c0.173-0.214,0.386-0.385,0.635-0.508c0.248-0.122,0.497-0.184,0.741-0.184c0.195,0,0.365,0.047,0.506,0.14
				c0.141,0.094,0.236,0.228,0.283,0.396c0.046,0.168,0.041,0.36-0.016,0.574c-0.066,0.252-0.189,0.491-0.365,0.712
				c-0.177,0.222-0.385,0.395-0.618,0.513C89.422,39.375,89.179,39.435,88.932,39.435z M89.818,37.104
				c-0.213,0-0.43,0.054-0.646,0.16c-0.214,0.105-0.397,0.253-0.546,0.437c-0.15,0.187-0.256,0.395-0.315,0.62
				c-0.075,0.281-0.05,0.503,0.076,0.676c0.125,0.174,0.319,0.258,0.594,0.258c0.213,0,0.423-0.051,0.624-0.153
				c0.199-0.101,0.378-0.249,0.532-0.441c0.155-0.194,0.263-0.405,0.321-0.627c0.049-0.184,0.054-0.348,0.015-0.488
				c-0.038-0.138-0.116-0.247-0.231-0.324C90.124,37.143,89.981,37.104,89.818,37.104z M90.248,36.271h-0.595l1.109-0.994h0.844
				L90.248,36.271z M90.091,36.091h0.134l0.865-0.633h-0.293L90.091,36.091z"/>
		</g>
		<g>
			<path fill="#BCBEC0" d="M92.174,36.724h0.355l-0.179,0.453c0.384-0.348,0.77-0.519,1.158-0.519c0.298,0,0.514,0.093,0.648,0.275
				c0.134,0.183,0.161,0.429,0.079,0.737c-0.032,0.124-0.107,0.331-0.223,0.622l-0.527,1.321h-0.363l0.527-1.32
				c0.113-0.282,0.187-0.49,0.222-0.625c0.053-0.202,0.035-0.364-0.054-0.488c-0.09-0.124-0.233-0.186-0.432-0.186
				c-0.195,0-0.389,0.05-0.583,0.15s-0.36,0.236-0.497,0.408c-0.138,0.172-0.28,0.444-0.427,0.816l-0.493,1.244h-0.363
				L92.174,36.724z"/>
			<path fill="#BCBEC0" d="M93.541,39.705h-0.546l0.568-1.423c0.111-0.277,0.184-0.483,0.218-0.613
				c0.047-0.179,0.032-0.317-0.045-0.425s-0.2-0.159-0.375-0.159c-0.177,0-0.356,0.047-0.533,0.138
				c-0.176,0.092-0.33,0.218-0.455,0.374c-0.129,0.162-0.267,0.426-0.409,0.785l-0.524,1.323h-0.546l1.224-3.072h0.537l-0.112,0.285
				c0.326-0.234,0.657-0.35,0.988-0.35c0.321,0,0.558,0.103,0.705,0.301c0.147,0.199,0.177,0.47,0.089,0.802
				c-0.034,0.129-0.108,0.337-0.227,0.635L93.541,39.705z M93.25,39.523h0.181l0.496-1.242c0.114-0.285,0.188-0.49,0.219-0.609
				c0.076-0.286,0.053-0.507-0.069-0.673c-0.123-0.166-0.316-0.247-0.592-0.247c-0.363,0-0.717,0.16-1.081,0.489l-0.26,0.231
				l0.26-0.659h-0.173l-1.08,2.71h0.18l0.462-1.165c0.153-0.387,0.299-0.663,0.445-0.847c0.148-0.186,0.33-0.335,0.54-0.443
				c0.209-0.109,0.422-0.164,0.633-0.164c0.222,0,0.387,0.071,0.489,0.213c0.102,0.141,0.123,0.326,0.063,0.552
				c-0.037,0.14-0.111,0.349-0.227,0.638L93.25,39.523z"/>
		</g>
		<g>
			<path fill="#BCBEC0" d="M98.673,39.614H98.3l0.171-0.433c-0.422,0.338-0.847,0.507-1.276,0.507c-0.39,0-0.677-0.126-0.862-0.379
				c-0.185-0.252-0.225-0.576-0.12-0.974c0.121-0.458,0.389-0.852,0.803-1.181c0.414-0.329,0.843-0.494,1.286-0.494
				c0.24,0,0.438,0.05,0.592,0.15c0.155,0.101,0.267,0.251,0.334,0.465l0.212-0.553h0.384L98.673,39.614z M97.327,39.35
				c0.237,0,0.468-0.056,0.693-0.168s0.421-0.273,0.591-0.483c0.169-0.21,0.287-0.438,0.352-0.686
				c0.079-0.298,0.049-0.54-0.09-0.728c-0.139-0.187-0.358-0.28-0.659-0.28c-0.353,0-0.689,0.129-1.008,0.385
				c-0.319,0.255-0.527,0.569-0.625,0.941c-0.081,0.306-0.051,0.551,0.087,0.738C96.807,39.256,97.026,39.35,97.327,39.35z"/>
			<path fill="#BCBEC0" d="M97.172,39.778c-0.413,0-0.722-0.136-0.919-0.404c-0.196-0.269-0.24-0.618-0.129-1.038
				c0.127-0.48,0.411-0.9,0.846-1.245s0.892-0.52,1.357-0.52c0.255,0,0.468,0.055,0.633,0.161c0.112,0.073,0.205,0.168,0.274,0.295
				l0.152-0.395h0.567l-1.225,3.072h-0.555l0.116-0.292C97.92,39.655,97.545,39.778,97.172,39.778z M98.279,36.752
				c-0.416,0-0.825,0.157-1.215,0.467c-0.391,0.31-0.646,0.686-0.76,1.117c-0.099,0.376-0.063,0.674,0.111,0.91
				c0.173,0.236,0.437,0.352,0.805,0.352c0.401,0,0.807-0.161,1.204-0.479l0.24-0.192l-0.236,0.598h0.191l1.08-2.71h-0.2
				l-0.285,0.741l-0.075-0.23c-0.062-0.197-0.166-0.343-0.307-0.435C98.688,36.797,98.503,36.752,98.279,36.752z M97.303,39.439
				c-0.324,0-0.564-0.103-0.716-0.307c-0.151-0.203-0.184-0.474-0.097-0.802c0.104-0.396,0.329-0.733,0.668-1.005
				c0.34-0.273,0.703-0.411,1.08-0.411c0.324,0,0.564,0.104,0.716,0.307c0.151,0.203,0.185,0.47,0.1,0.791
				c-0.069,0.261-0.195,0.506-0.375,0.729c-0.181,0.225-0.395,0.398-0.635,0.519C97.804,39.379,97.555,39.439,97.303,39.439z
				 M98.19,37.096c-0.331,0-0.637,0.116-0.936,0.356c-0.3,0.24-0.491,0.528-0.583,0.879c-0.075,0.282-0.049,0.503,0.078,0.674
				c0.127,0.171,0.324,0.254,0.602,0.254c0.221,0,0.438-0.052,0.645-0.156c0.207-0.103,0.391-0.253,0.548-0.447
				c0.158-0.196,0.269-0.412,0.33-0.643c0.073-0.275,0.046-0.492-0.081-0.663S98.468,37.096,98.19,37.096z"/>
		</g>
		<g>
			<path fill="#BCBEC0" d="M100.852,36.724h0.37l-0.494,1.21c-0.145,0.354-0.23,0.582-0.255,0.677
				c-0.057,0.215-0.036,0.393,0.063,0.528c0.099,0.136,0.259,0.205,0.48,0.205c0.185,0,0.358-0.053,0.522-0.158
				c0.163-0.106,0.297-0.244,0.4-0.416c0.052-0.086,0.141-0.29,0.263-0.602l0.576-1.444h0.363l-0.429,1.096
				c-0.204,0.521-0.374,0.895-0.506,1.114c-0.132,0.219-0.313,0.401-0.542,0.542s-0.48,0.212-0.756,0.212
				c-0.313,0-0.543-0.102-0.688-0.305c-0.146-0.204-0.179-0.459-0.098-0.764c0.032-0.122,0.08-0.264,0.145-0.426l0.093-0.254
				l0.045-0.114L100.852,36.724z"/>
			<path fill="#BCBEC0" d="M100.885,39.778c-0.337,0-0.588-0.111-0.746-0.332c-0.158-0.221-0.194-0.499-0.107-0.827
				c0.033-0.125,0.083-0.272,0.149-0.438l0.092-0.252l0.046-0.117l0.479-1.18h0.553l-0.536,1.313
				c-0.142,0.349-0.227,0.574-0.25,0.664c-0.051,0.192-0.034,0.346,0.054,0.465c0.086,0.119,0.225,0.178,0.423,0.178
				c0.165,0,0.316-0.045,0.461-0.139c0.146-0.095,0.267-0.22,0.359-0.373c0.034-0.056,0.105-0.207,0.254-0.584l0.607-1.524h0.544
				l-0.469,1.198c-0.208,0.532-0.377,0.904-0.515,1.132c-0.142,0.235-0.34,0.434-0.585,0.585
				C101.452,39.7,101.178,39.778,100.885,39.778z M100.907,36.813l-0.458,1.132l-0.093,0.255c-0.064,0.16-0.112,0.301-0.143,0.418
				c-0.075,0.283-0.046,0.513,0.089,0.7c0.134,0.188,0.341,0.279,0.631,0.279c0.254,0,0.488-0.065,0.697-0.193
				c0.209-0.13,0.377-0.296,0.499-0.497c0.128-0.212,0.297-0.587,0.498-1.1l0.389-0.994h-0.182l-0.545,1.367
				c-0.125,0.318-0.214,0.522-0.271,0.615c-0.113,0.188-0.262,0.343-0.442,0.459c-0.183,0.118-0.379,0.179-0.583,0.179
				c-0.246,0-0.426-0.077-0.538-0.23c-0.111-0.152-0.136-0.351-0.073-0.59c0.026-0.1,0.112-0.33,0.26-0.692l0.451-1.107H100.907z"/>
		</g>
		<g>
			<path fill="#BCBEC0" d="M105.677,39.614h-0.374l0.177-0.446c-0.433,0.347-0.863,0.521-1.29,0.521
				c-0.388,0-0.674-0.126-0.857-0.379c-0.184-0.252-0.223-0.576-0.119-0.974c0.121-0.458,0.388-0.852,0.801-1.181
				c0.413-0.329,0.84-0.494,1.281-0.494c0.24,0,0.436,0.051,0.59,0.151c0.154,0.1,0.265,0.265,0.339,0.479l0.656-1.652h0.384
				L105.677,39.614z M104.329,39.35c0.238,0,0.469-0.056,0.694-0.168c0.225-0.111,0.422-0.272,0.592-0.482s0.287-0.438,0.352-0.686
				c0.079-0.298,0.049-0.541-0.09-0.728c-0.139-0.188-0.359-0.281-0.66-0.281c-0.354,0-0.69,0.129-1.01,0.385
				c-0.319,0.255-0.528,0.569-0.626,0.941c-0.081,0.306-0.051,0.551,0.087,0.738C103.809,39.256,104.028,39.35,104.329,39.35z"/>
			<path fill="#BCBEC0" d="M104.167,39.778c-0.411,0-0.719-0.136-0.915-0.405c-0.196-0.268-0.239-0.617-0.128-1.037
				c0.127-0.48,0.411-0.9,0.844-1.245s0.888-0.52,1.353-0.52c0.254,0,0.466,0.055,0.63,0.162c0.114,0.074,0.206,0.186,0.278,0.316
				l0.596-1.501h0.567l-1.661,4.156h-0.555l0.12-0.305C104.92,39.651,104.541,39.778,104.167,39.778z M105.274,36.752
				c-0.415,0-0.822,0.157-1.21,0.467c-0.389,0.31-0.644,0.686-0.758,1.117c-0.099,0.376-0.063,0.674,0.109,0.91
				s0.434,0.352,0.801,0.352c0.4,0,0.81-0.166,1.218-0.493l0.24-0.192l-0.243,0.611h0.191l1.516-3.794h-0.201l-0.726,1.827
				l-0.074-0.223c-0.068-0.199-0.174-0.349-0.315-0.441C105.68,36.8,105.496,36.752,105.274,36.752z M104.306,39.439
				c-0.325,0-0.565-0.103-0.717-0.307c-0.152-0.203-0.185-0.474-0.098-0.802c0.104-0.396,0.329-0.733,0.668-1.005
				c0.34-0.273,0.704-0.411,1.082-0.411c0.324,0,0.565,0.104,0.716,0.307c0.151,0.204,0.185,0.471,0.1,0.792
				c-0.068,0.262-0.195,0.506-0.375,0.729c-0.181,0.224-0.395,0.397-0.636,0.518C104.808,39.379,104.558,39.439,104.306,39.439z
				 M105.193,37.096c-0.332,0-0.639,0.116-0.938,0.356c-0.3,0.24-0.491,0.528-0.583,0.879c-0.075,0.282-0.049,0.503,0.078,0.674
				c0.126,0.171,0.324,0.254,0.604,0.254c0.22,0,0.438-0.052,0.646-0.155c0.207-0.104,0.392-0.254,0.548-0.447
				c0.158-0.196,0.269-0.412,0.33-0.643c0.073-0.275,0.046-0.492-0.081-0.663C105.669,37.179,105.472,37.096,105.193,37.096z"/>
		</g>
		<g>
			<path fill="#BCBEC0" d="M107.615,36.724h0.35l-1.139,2.891h-0.363L107.615,36.724z M108.215,35.55
				c0.082,0,0.143,0.029,0.186,0.088c0.043,0.058,0.054,0.128,0.032,0.209c-0.022,0.083-0.069,0.153-0.143,0.21
				c-0.073,0.058-0.15,0.086-0.231,0.086c-0.083,0-0.146-0.028-0.188-0.086c-0.042-0.057-0.052-0.127-0.031-0.21
				c0.021-0.081,0.069-0.151,0.142-0.209C108.054,35.579,108.132,35.55,108.215,35.55z"/>
			<path fill="#BCBEC0" d="M106.881,39.705h-0.546l1.224-3.072h0.532L106.881,39.705z M106.59,39.523h0.18l1.067-2.71h-0.168
				L106.59,39.523z M108.035,36.233c-0.108,0-0.19-0.038-0.245-0.113c-0.055-0.074-0.068-0.166-0.04-0.273
				c0.028-0.105,0.09-0.197,0.184-0.272c0.094-0.076,0.197-0.114,0.305-0.114c0.106,0,0.188,0.038,0.243,0.113
				c0.055,0.076,0.069,0.168,0.042,0.273c-0.028,0.107-0.091,0.2-0.187,0.274C108.242,36.195,108.14,36.233,108.035,36.233z
				 M108.191,35.641c-0.059,0-0.111,0.019-0.162,0.061c-0.052,0.041-0.083,0.088-0.098,0.146c-0.016,0.06-0.009,0.105,0.021,0.146
				c0.03,0.04,0.071,0.06,0.13,0.06c0.058,0,0.109-0.02,0.162-0.061c0.052-0.04,0.083-0.087,0.099-0.146
				c0.015-0.058,0.008-0.104-0.023-0.146C108.29,35.659,108.249,35.641,108.191,35.641z"/>
		</g>
		<g>
			<path fill="#BCBEC0" d="M110.089,36.661c0.245,0,0.455,0.059,0.628,0.176c0.174,0.118,0.291,0.281,0.35,0.49
				s0.054,0.445-0.016,0.71c-0.08,0.302-0.227,0.582-0.441,0.84c-0.215,0.259-0.464,0.458-0.748,0.6
				c-0.284,0.141-0.583,0.212-0.895,0.212c-0.387,0-0.671-0.127-0.854-0.38c-0.183-0.253-0.222-0.575-0.119-0.967
				c0.081-0.308,0.229-0.59,0.443-0.85c0.215-0.259,0.47-0.462,0.763-0.61C109.495,36.735,109.791,36.661,110.089,36.661z
				 M109.987,37.014c-0.229,0-0.46,0.057-0.693,0.172c-0.232,0.114-0.429,0.271-0.591,0.472s-0.274,0.422-0.338,0.663
				c-0.08,0.304-0.052,0.55,0.086,0.739c0.137,0.189,0.354,0.284,0.651,0.284c0.231,0,0.455-0.055,0.672-0.165
				s0.409-0.27,0.575-0.478c0.166-0.208,0.28-0.431,0.344-0.669c0.052-0.2,0.058-0.376,0.015-0.53
				c-0.042-0.155-0.128-0.274-0.257-0.36S110.167,37.014,109.987,37.014z"/>
			<path fill="#BCBEC0" d="M108.944,39.778c-0.41,0-0.716-0.137-0.911-0.406c-0.194-0.27-0.238-0.616-0.128-1.03
				c0.085-0.321,0.242-0.622,0.467-0.894c0.225-0.272,0.496-0.489,0.805-0.645c0.309-0.154,0.624-0.232,0.936-0.232
				c0.26,0,0.485,0.063,0.671,0.188c0.185,0.125,0.311,0.302,0.374,0.524c0.063,0.222,0.058,0.476-0.016,0.754
				c-0.083,0.316-0.239,0.614-0.464,0.885c-0.226,0.271-0.492,0.484-0.791,0.633C109.587,39.703,109.271,39.778,108.944,39.778z
				 M110.065,36.752c-0.281,0-0.563,0.07-0.839,0.209c-0.276,0.138-0.519,0.332-0.72,0.576c-0.203,0.244-0.344,0.515-0.42,0.805
				c-0.098,0.37-0.062,0.666,0.11,0.903s0.432,0.353,0.796,0.353c0.295,0,0.58-0.067,0.847-0.199
				c0.267-0.133,0.504-0.322,0.706-0.565c0.202-0.244,0.343-0.512,0.417-0.796c0.065-0.248,0.071-0.473,0.015-0.667
				c-0.055-0.193-0.164-0.346-0.325-0.454C110.491,36.807,110.293,36.752,110.065,36.752z M109.078,39.435
				c-0.321,0-0.559-0.104-0.708-0.312c-0.149-0.206-0.181-0.477-0.095-0.803c0.067-0.256,0.189-0.493,0.36-0.706
				c0.173-0.214,0.387-0.385,0.635-0.508c0.247-0.122,0.497-0.184,0.741-0.184c0.195,0,0.365,0.047,0.505,0.14
				c0.142,0.094,0.237,0.228,0.283,0.396c0.045,0.168,0.041,0.36-0.016,0.574c-0.067,0.252-0.189,0.491-0.366,0.712
				c-0.177,0.222-0.386,0.395-0.619,0.513C109.567,39.375,109.324,39.435,109.078,39.435z M109.963,37.104
				c-0.212,0-0.43,0.054-0.645,0.16c-0.214,0.105-0.398,0.253-0.547,0.437c-0.15,0.187-0.256,0.395-0.315,0.62
				c-0.074,0.281-0.049,0.503,0.077,0.676c0.125,0.174,0.319,0.258,0.593,0.258c0.214,0,0.424-0.051,0.624-0.153
				c0.199-0.101,0.378-0.249,0.532-0.441c0.155-0.194,0.263-0.405,0.322-0.627c0.048-0.184,0.053-0.348,0.015-0.488
				c-0.038-0.138-0.116-0.247-0.232-0.324C110.269,37.143,110.126,37.104,109.963,37.104z"/>
		</g>
		<g>
			<path fill="#BCBEC0" d="M111.97,36.724h0.38l0.173,2.1l1.764-2.1h0.402l-2.422,2.891h-0.068L111.97,36.724z"/>
			<path fill="#BCBEC0" d="M112.296,39.705h-0.186l-0.244-3.072h0.571l0.162,1.975l1.659-1.975h0.611L112.296,39.705z
				 M112.072,36.813l0.214,2.646l2.223-2.646h-0.193l-1.871,2.227l-0.183-2.227H112.072z"/>
		</g>
		<g>
			<path fill="#BCBEC0" d="M115.25,36.724h0.35l-1.139,2.891h-0.363L115.25,36.724z M115.851,35.55c0.081,0,0.143,0.029,0.186,0.088
				c0.042,0.058,0.053,0.128,0.032,0.209c-0.021,0.083-0.069,0.153-0.143,0.21c-0.073,0.058-0.15,0.086-0.231,0.086
				c-0.083,0-0.146-0.028-0.188-0.086c-0.042-0.057-0.052-0.127-0.03-0.21c0.021-0.081,0.068-0.151,0.141-0.209
				C115.69,35.579,115.768,35.55,115.851,35.55z"/>
			<path fill="#BCBEC0" d="M114.518,39.705h-0.546l1.224-3.072h0.532L114.518,39.705z M114.226,39.523h0.18l1.068-2.71h-0.168
				L114.226,39.523z M115.671,36.233c-0.107,0-0.19-0.038-0.245-0.113c-0.055-0.074-0.069-0.166-0.041-0.273
				c0.028-0.105,0.09-0.197,0.184-0.272c0.095-0.076,0.197-0.114,0.305-0.114c0.105,0,0.187,0.038,0.243,0.113
				c0.056,0.076,0.069,0.168,0.042,0.273c-0.028,0.107-0.091,0.2-0.187,0.274C115.877,36.195,115.776,36.233,115.671,36.233z
				 M115.827,35.641c-0.059,0-0.11,0.019-0.162,0.061c-0.052,0.041-0.083,0.088-0.098,0.146c-0.016,0.06-0.009,0.105,0.021,0.146
				c0.03,0.04,0.072,0.06,0.131,0.06c0.058,0,0.109-0.02,0.162-0.061c0.052-0.04,0.083-0.087,0.099-0.146
				c0.015-0.058,0.008-0.104-0.022-0.146S115.885,35.641,115.827,35.641z"/>
		</g>
		<g>
			<path fill="#BCBEC0" d="M117.658,37.059l-0.28,0.299c-0.102-0.231-0.264-0.347-0.486-0.347c-0.127,0-0.247,0.042-0.358,0.124
				c-0.112,0.083-0.181,0.175-0.208,0.275c-0.02,0.077-0.013,0.151,0.023,0.223c0.035,0.07,0.13,0.166,0.287,0.288
				c0.228,0.179,0.369,0.333,0.422,0.466c0.051,0.134,0.053,0.288,0.007,0.463c-0.063,0.241-0.201,0.441-0.411,0.601
				c-0.21,0.158-0.451,0.238-0.721,0.238c-0.356,0-0.615-0.158-0.775-0.474l0.294-0.262c0.146,0.259,0.343,0.389,0.594,0.389
				c0.143,0,0.281-0.051,0.413-0.151c0.132-0.1,0.216-0.217,0.251-0.349c0.028-0.107,0.016-0.211-0.038-0.31
				c-0.034-0.063-0.144-0.172-0.327-0.323c-0.198-0.166-0.32-0.304-0.368-0.413c-0.047-0.107-0.053-0.229-0.018-0.365
				c0.057-0.213,0.185-0.395,0.385-0.544c0.2-0.15,0.423-0.226,0.668-0.226c0.145,0,0.268,0.029,0.37,0.087
				C117.485,36.807,117.577,36.91,117.658,37.059z"/>
			<path fill="#BCBEC0" d="M115.91,39.778c-0.384,0-0.666-0.171-0.837-0.509l-0.03-0.058l0.448-0.399l0.046,0.083
				c0.134,0.239,0.308,0.355,0.533,0.355c0.12,0,0.232-0.041,0.344-0.126c0.11-0.083,0.177-0.176,0.206-0.283
				c0.023-0.087,0.012-0.17-0.033-0.253c-0.021-0.039-0.092-0.123-0.313-0.305c-0.208-0.175-0.333-0.317-0.385-0.437
				c-0.054-0.122-0.061-0.263-0.02-0.417c0.063-0.238,0.208-0.443,0.431-0.61c0.221-0.165,0.469-0.249,0.736-0.249
				c0.158,0,0.295,0.032,0.408,0.097c0.111,0.063,0.211,0.176,0.298,0.333l0.028,0.053l-0.434,0.463l-0.047-0.107
				c-0.091-0.207-0.229-0.309-0.422-0.309c-0.104,0-0.199,0.033-0.291,0.101c-0.088,0.065-0.141,0.134-0.161,0.209
				c-0.015,0.058-0.009,0.112,0.02,0.167c0.021,0.044,0.084,0.124,0.269,0.268c0.239,0.188,0.383,0.348,0.442,0.492
				c0.057,0.149,0.06,0.321,0.009,0.513c-0.07,0.267-0.224,0.49-0.457,0.666C116.468,39.69,116.202,39.778,115.91,39.778z
				 M115.276,39.217c0.15,0.256,0.374,0.381,0.682,0.381c0.249,0,0.462-0.07,0.652-0.214c0.188-0.142,0.308-0.316,0.366-0.534
				c0.041-0.156,0.039-0.296-0.006-0.414c-0.048-0.12-0.184-0.269-0.402-0.439c-0.166-0.128-0.265-0.229-0.304-0.31
				c-0.043-0.085-0.053-0.179-0.027-0.276c0.034-0.126,0.119-0.241,0.254-0.342c0.133-0.099,0.276-0.148,0.426-0.148
				c0.216,0,0.383,0.096,0.497,0.283l0.13-0.139c-0.067-0.11-0.142-0.189-0.221-0.235c-0.09-0.052-0.203-0.077-0.332-0.077
				c-0.224,0-0.42,0.065-0.6,0.2c-0.178,0.133-0.289,0.29-0.339,0.479c-0.031,0.118-0.026,0.221,0.015,0.313
				c0.043,0.101,0.162,0.231,0.351,0.391c0.255,0.211,0.318,0.295,0.342,0.341c0.062,0.115,0.076,0.238,0.042,0.366
				c-0.042,0.157-0.142,0.297-0.296,0.415c-0.154,0.116-0.316,0.175-0.482,0.175c-0.25,0-0.453-0.114-0.605-0.341L115.276,39.217z"
				/>
		</g>
		<g>
			<path fill="#BCBEC0" d="M118.683,36.724h0.37l-0.494,1.21c-0.144,0.354-0.23,0.582-0.255,0.677
				c-0.057,0.215-0.036,0.393,0.063,0.528s0.259,0.205,0.481,0.205c0.184,0,0.358-0.053,0.521-0.158
				c0.164-0.106,0.297-0.244,0.4-0.416c0.052-0.086,0.141-0.29,0.263-0.602l0.576-1.444h0.363l-0.429,1.096
				c-0.205,0.521-0.374,0.895-0.506,1.114c-0.132,0.219-0.313,0.401-0.542,0.542c-0.228,0.141-0.48,0.212-0.756,0.212
				c-0.313,0-0.542-0.102-0.688-0.305c-0.146-0.204-0.179-0.459-0.098-0.764c0.032-0.122,0.081-0.264,0.146-0.426l0.093-0.254
				l0.045-0.114L118.683,36.724z"/>
			<path fill="#BCBEC0" d="M118.715,39.778c-0.336,0-0.587-0.111-0.746-0.332c-0.158-0.221-0.194-0.499-0.107-0.827
				c0.033-0.125,0.083-0.272,0.149-0.438l0.092-0.252l0.046-0.117l0.479-1.18h0.553l-0.536,1.313
				c-0.142,0.349-0.228,0.574-0.251,0.664c-0.051,0.192-0.034,0.346,0.054,0.465c0.087,0.119,0.225,0.178,0.424,0.178
				c0.165,0,0.315-0.045,0.461-0.139c0.146-0.095,0.267-0.22,0.359-0.373c0.033-0.056,0.105-0.207,0.254-0.584l0.607-1.524h0.544
				l-0.469,1.198c-0.208,0.532-0.377,0.904-0.515,1.132c-0.142,0.235-0.339,0.434-0.585,0.585
				C119.283,39.7,119.009,39.778,118.715,39.778z M118.737,36.813l-0.458,1.132l-0.093,0.255c-0.064,0.16-0.112,0.301-0.143,0.418
				c-0.075,0.283-0.046,0.513,0.089,0.7c0.134,0.188,0.34,0.279,0.631,0.279c0.254,0,0.489-0.065,0.697-0.193
				c0.209-0.13,0.377-0.296,0.498-0.497c0.128-0.212,0.297-0.587,0.498-1.1l0.389-0.994h-0.181l-0.545,1.367
				c-0.126,0.318-0.215,0.522-0.271,0.615c-0.113,0.188-0.262,0.343-0.442,0.459c-0.183,0.118-0.379,0.179-0.583,0.179
				c-0.245,0-0.426-0.077-0.538-0.23c-0.111-0.152-0.136-0.351-0.073-0.59c0.026-0.1,0.113-0.33,0.261-0.692l0.451-1.107H118.737z"
				/>
		</g>
		<g>
			<path fill="#BCBEC0" d="M123.5,39.614h-0.374l0.171-0.433c-0.422,0.338-0.847,0.507-1.275,0.507c-0.39,0-0.678-0.126-0.862-0.379
				c-0.185-0.252-0.225-0.576-0.12-0.974c0.121-0.458,0.389-0.852,0.803-1.181c0.414-0.329,0.843-0.494,1.286-0.494
				c0.24,0,0.438,0.05,0.592,0.15c0.155,0.101,0.267,0.251,0.334,0.465l0.212-0.553h0.384L123.5,39.614z M122.152,39.35
				c0.237,0,0.469-0.056,0.693-0.168c0.225-0.112,0.422-0.273,0.591-0.483c0.17-0.21,0.287-0.438,0.352-0.686
				c0.079-0.298,0.049-0.54-0.09-0.728c-0.139-0.187-0.358-0.28-0.659-0.28c-0.353,0-0.689,0.129-1.008,0.385
				c-0.319,0.255-0.527,0.569-0.625,0.941c-0.081,0.306-0.052,0.551,0.087,0.738C121.633,39.256,121.852,39.35,122.152,39.35z"/>
			<path fill="#BCBEC0" d="M121.998,39.778c-0.414,0-0.722-0.136-0.919-0.404s-0.24-0.618-0.129-1.038
				c0.127-0.48,0.412-0.9,0.846-1.245s0.891-0.52,1.357-0.52c0.254,0,0.467,0.055,0.633,0.161c0.112,0.073,0.205,0.168,0.274,0.295
				l0.151-0.395h0.567l-1.224,3.072H123l0.115-0.292C122.746,39.655,122.372,39.778,121.998,39.778z M123.105,36.752
				c-0.417,0-0.825,0.157-1.216,0.467c-0.39,0.31-0.646,0.686-0.759,1.117c-0.099,0.376-0.063,0.674,0.11,0.91
				c0.174,0.236,0.437,0.352,0.805,0.352c0.402,0,0.807-0.161,1.204-0.479l0.24-0.192l-0.237,0.598h0.191l1.08-2.71h-0.201
				l-0.285,0.741l-0.074-0.23c-0.063-0.197-0.166-0.343-0.308-0.435C123.515,36.797,123.329,36.752,123.105,36.752z M122.128,39.439
				c-0.324,0-0.564-0.103-0.715-0.307c-0.151-0.203-0.184-0.474-0.097-0.802c0.104-0.396,0.329-0.733,0.667-1.005
				c0.34-0.273,0.703-0.411,1.08-0.411c0.324,0,0.565,0.104,0.716,0.307s0.185,0.47,0.1,0.791c-0.068,0.261-0.194,0.506-0.375,0.729
				c-0.181,0.225-0.395,0.398-0.635,0.519C122.63,39.379,122.381,39.439,122.128,39.439z M123.016,37.096
				c-0.331,0-0.637,0.116-0.937,0.356c-0.3,0.24-0.49,0.528-0.583,0.879c-0.075,0.282-0.049,0.503,0.077,0.674
				c0.127,0.171,0.324,0.254,0.602,0.254c0.22,0,0.437-0.052,0.645-0.156c0.207-0.103,0.391-0.253,0.548-0.447
				c0.158-0.196,0.269-0.412,0.33-0.643c0.073-0.275,0.047-0.492-0.08-0.663S123.294,37.096,123.016,37.096z"/>
		</g>
		<g>
			<path fill="#BCBEC0" d="M125.871,35.639h0.361l-1.586,3.976h-0.363L125.871,35.639z"/>
			<path fill="#BCBEC0" d="M124.701,39.705h-0.545l1.661-4.156h0.542L124.701,39.705z M124.41,39.523h0.181l1.514-3.794h-0.178
				L124.41,39.523z"/>
		</g>
	</g>
</g>
</svg>
