<?xml version="1.0" encoding="utf-8"?>
<!-- Generator: Adobe Illustrator 15.0.0, SVG Export Plug-In . SVG Version: 6.00 Build 0)  -->
<!DOCTYPE svg PUBLIC "-//W3C//DTD SVG 1.1 Basic//EN" "http://www.w3.org/Graphics/SVG/1.1/DTD/svg11-basic.dtd">
<svg version="1.1" baseProfile="basic" id="Layer_1"
	 xmlns="http://www.w3.org/2000/svg" xmlns:xlink="http://www.w3.org/1999/xlink" x="0px" y="0px" width="640px" height="480px"
	 viewBox="0 0 640 480" xml:space="preserve">
<g>
	<path fill-rule="evenodd" clip-rule="evenodd" fill="#FFFFFF" d="M271.04,213.143c-2.254-4.26,7.57-27.628,9.604-31.694h1.007
		C281.681,194.163,313,207.46,271.04,213.143 M347.919,211.703c-10.985-2.083-12.624-8.803-15.172-17.303
		c3.082-2.933,7.252-6.081,10.606-8.648C344.272,186.898,357.779,211.703,347.919,211.703 M323.672,381.271
		c0,0.476-0.508,0.476-1.012,1.446c-27.744,2.044-67.793-14.442-67.793-42.749c-16.224-7.684-44.307-45.219-20.246-56.672
		c4.627-21.961,7.052-42.821,22.762-61.497c-0.842-16.784-33.547-53.994-31.385-58.125c2.028-0.478,5.059-0.478,7.596-0.478
		c0-3.682,0.288-13.312,3.523-15.369c6.908,2.183,9.147,13.539,10.646,19.211h0.493c0-3.598,5.095-10.089,9.106-10.089
		c4.299,4.088-0.128,9.229,1.525,13.934c3.267-1.556,0-4.317,8.598-4.324c3.657,3.466,6.867,13.718,7.581,14.417
		c2.963,0,3.708-1.937,6.584-1.937c2.825-10.703,14.874-23.779,5.567-32.669c-12.054-31.434,27.308-12.239,27.308-38.902
		c0.555-0.264,13.651-24.162,13.651,2.861c-1.018,0.485-1.521,0.485-3.025,1.451c0,18.756,31.386,14.851,21.756,33.134
		c-3.657,12.991-11.099,18.741-4.561,31.835l2.028,0.357c0-7.054,15.243-0.976,21.319-18.497l0.437-6.957
		c1.31-1.235,1.771-3.148,3.533-4.817c2.466,2.339,8.85,4.566,7.082,9.617l-1.524,0.482c3.21,11.628,15.366,13.99,23.055,20.975
		c-0.996,3.167-9.332,14.298-8.557,22.886l0.55,6.153c0.668,7.37-3.426,7.046-4.026,16.458
		c13.209,6.261,48.041,53.159,14.303,50.252c0,39.038,21.607,60.732-26.788,94.167C361.134,374.798,338.232,385.871,323.672,381.271
		"/>
	<path fill-rule="evenodd" clip-rule="evenodd" fill="#1C5B8A" d="M370.101,217.139c0.688,0.675,1.885,1.097,1.967,2.111
		c0.021,0.27-1.094,0.377-1.335,0.421c-0.031,0.008-0.683-0.1-0.714-0.1c-0.827,0.174-1.382,0-2.085-0.36
		c-0.098-0.056-0.807,0.285-0.925,0.231c-0.134-0.144-0.098-0.293-0.236-0.45c0.247,0.128,1.084,0.023,1.3,0.095
		c0.903,0.339,1.484,0.303,2.234-0.021c0.071-0.021,0.344,0.251,0.421,0.21c0.071-0.033,0.39-0.303,0.467-0.334
		c0.047-0.139-0.194-0.313-0.308-0.4c-0.118-0.085-0.324-0.229-0.396-0.339C370.543,218.097,370.039,217.262,370.101,217.139"/>
	<polygon fill-rule="evenodd" clip-rule="evenodd" fill="#1C5B8A" points="367.055,226.684 368.416,226.268 370.378,226.442 
		371.549,226.792 371.873,227.259 371.03,226.91 369.592,226.614 368.416,226.735 367.513,226.854 	"/>
	<path fill-rule="evenodd" clip-rule="evenodd" fill="#1C5B8A" d="M319.07,117.551l-1.058-2.203l3.436-7.612l-1.371,9.337
		L319.07,117.551z M319.076,142.06c0-1.556-5.372-8.839-1.017-12.978l1.51,0.467c0.514,3.852,2.049,8.176,0.514,12.511H319.076z
		 M337.287,142.044c-1.387-1.317-2.033-3.461-2.033-5.29c0.519,0,1.017,0.971,2.033,1.44c0,0.968,1.012,2.884,0.504,3.85H337.287z
		 M298.121,146.184c-1.355-1.936-1.921-7.555-1.31-9.902l1.607-2.119L298.121,146.184z M313.894,148.153
		c-1.541,0-1.685-11.484-1.685-11.984l1.587,3.179C313.796,142.442,314.9,145.239,313.894,148.153 M330.709,150.226H330.2
		c0-2.295,2.013-9.588,2.614-11.864l-0.077,6.076C332.737,146.764,333.626,150.416,330.709,150.226 M296.313,151.176
		c-4.91-11.627-11.396-19.157,4.052-22.094c0,0.49,1.51,0.755,1.51,1.931h-0.508c-0.01-0.493-0.01-0.493-1.001-1.454
		C288.866,129.559,296.313,147.37,296.313,151.176 M310.981,155.018c-3.806-14.452-2.213-17.75,6.569-30.266h2.532
		c5.551,6.774,7.76,25.628-2.024,30.266l-0.498-0.965C314.417,154.052,312.599,155.013,310.981,155.018 M333.754,162.221
		c-11.396-1.366-36.937,3.528-36.937-8.649c5.254-2.488,5.511,0,10.133,0c6.605-6.289-15.305-18.163,12.121-31.221
		c10.175,0,13.358,21.938,5.578,29.3c0,9.812,31.796-9.149,7.575-20.646v-0.485C350.944,130.52,339.471,156.79,333.754,162.221
		 M370.173,163.168c-1.689-8.721-1.315-11.895,0.164-10.816c2.07,1.546,0.812,5.048,0.339,10.816H370.173z M313.108,177.451
		l-5.254,0.002l-0.062-0.947l1.053-0.465l4.351,0.162l7.098,1.089C320.293,178.869,315.604,177.451,313.108,177.451
		 M313.164,182.592l-5.043-1.197l1.017-1.351c1.592-0.342,2.691-0.547,3.492-0.642c0.545-0.072,0.971-0.09,1.31-0.082
		c0.431,0.01,0.76,0.097,1.094,0.215c0.206,0.067,1.248,0.267,1.423,0.457c0.015,0.036-0.632,0.54-1.13,0.83
		c-0.206,0.105-0.467,0.321,0.041,0.054c0.611-0.313,1.263-0.766,1.304-0.75c0.956,0.308,1.505,0.406,2.522,0.544
		C319.194,181.955,315.183,182.592,313.164,182.592 M242.181,165.608c-3.657-1.161-3.539-5.18-3.539-8.169h0.508
		C240.425,159.247,243.814,164.049,242.181,165.608 M287.716,176.162l-1.489-3.649l4.977,1.98L287.716,176.162z M255.231,160.662
		c0-0.976-11.427,13.122-0.878,12.988L255.231,160.662z M337.498,184.703l0.293-6.145
		C341.021,184.659,339.722,181.616,337.498,184.703 M261.923,181.449l-1.017-0.475v-1.937c2.645,1.264,5.043-0.683,6.579-2.876
		c-1.331-1.269-1.521-1.764-3.549-2.398v-2.881h0.509c1.469,1.381,5.059,5.914,5.059,7.678
		C266.474,179.038,265.462,181.449,261.923,181.449 M391.923,185.176c0-2.887-0.498-6.623-2.019-9.512
		C396.176,175.664,391.923,181.986,391.923,185.176 M255.344,187.692c-2.368-2.234-2.342-4.484,0-6.718
		C259.52,180.975,257.214,186.801,255.344,187.692 M289.755,188.165c-1.191-2.242,2.111-0.585,4.032-5.49
		c0.442-1.127-5.418,1.566-5.418,0.162l7.642-5.944l-5.254-9.854c2.07,0,2.522,2.345,3.708,3.063
		c1.181,0.724,3.107-0.198,3.539,1.007C300.258,177.251,293.843,188.165,289.755,188.165 M379.001,190.573h-5.166
		c-1.361-3.857-0.113-12.059-0.113-16.348l6.641,2.702L379.001,190.573z M309.086,191.978c0.241-4.707-12.414-11.815-7.206-16.782
		h0.503c2.614-2.48-0.148-8.325,2.034-12.429l28.622,1.166c1.731,4.936,2.07,14.817-2.619,13.533
		c-2.126-0.565-5.079,0.046-7.345,0.98c-0.646,0.265-0.714,0.925-1.396,2.399l0.272,7.765l-0.843,0.76
		c-0.437-0.434-0.647-0.031-1.787-0.452c-1.017-0.38-2.383,0.118-3.153-0.041c-1.084-0.241-0.365-1.294-0.442-1.443l-0.39,0.821
		l0.169,1.068C313.164,190.697,311.783,191.619,309.086,191.978 M251.246,196.125l-16.142-25.243
		C242.51,170.882,256.269,193.742,251.246,196.125 M324.299,189.456c0-1.137-0.575-6.068-0.575-8.458
		c2.969,0.922,7.427,2.149,10.066-0.444l-1.489,5.151l-1.495,2.907l-1.956,7.704c-0.072,0.254-1.018-4.109-1.49-4.147
		C325.917,192.063,325.352,188.439,324.299,189.456 M361.082,192.885c0-3.873-4.684-12.783-1.535-15.78
		C358.047,181.432,365.149,184.302,361.082,192.885 M296.396,194.685c-0.498-0.496-1.592-5.554-1.592-6.52l1.515-0.953
		C296.318,189.253,297.582,193.013,296.396,194.685 M261.923,195.853c-5.197-4.93,2.953-11.525,8.1-11.525
		c0,1.243-6.63,10.144-7.606,11.525H261.923z M358.529,200.458c-6.928-5.996-7.662-16.235-8.931-22.549
		c-0.304-1.423,6.44-4.653,8.474-5.033l-4.591,5.064l5.511,17.257c0.605,1.89,3.765,0.955,5.623-0.801
		c0.565-7.357-2.388-15.608,0.447-22.326c0.796-1.906,3.518-3.392,5.11-5.049c6.024,0.619-12.101,36.966,10.626,25.947
		c0.539-5.608,12.321-20.184-3.554-20.184c0-0.488-0.499-0.963-0.499-1.926c3.066,0,6.081,1.438,9.106,1.926
		c1.669,4.75,1.644,21.062,0.514,26.424L358.529,200.458z M308.968,197.769c-3.189,1.017-1.756,4.551-5.444,4.551
		c0-2.568-1.043-0.745-1.043-2.851c1.649,1.566,0.406,0.955,2.953-0.251c0-1.556-2.357-12.291-2.773-13.215
		c6.091,2.37,2.563,3.734,6.333,7.095c2.008,0,4.848-2.614,6.79-3.218c0.945-0.288,2.183-0.288,2.491,0.37
		c0.185,0.393,0.349,1.369,0.349,2.316c-4.787,0.154-9.727,4.284-8.623,4.268c7.771-0.206,10.58,3.164,17.179-0.031
		c-1.392-0.878-2.901-1.674-4.17-2.737c-0.416-0.339-1.926-0.997-2.178-1.356l-0.159-2.357c1.243,0.236,2.994,0.282,3.811,0.796
		c0.966,0.593,1.864,1.441,2.435,2.227c1.264,1.738,0.75,3.87,0.884,6.022c0.123,1.977-0.206,4.689-1.489,5.896
		c-0.863,0.837-2.389,0.467-3.678,0.657c-1.525-1.443-1.525-5.798-2.019-6.759c-1.243-0.231-1.402,0.793-1.541,2.997
		c-0.354,5.244-2.321,1.921-5.048,2.787C312.856,208.349,311.356,200.046,308.968,197.769 M313.025,208.821
		c-0.519-0.478-0.519-0.96,0-1.923V208.821z M347.919,211.703c-10.985-2.083-12.624-8.803-15.172-17.303
		c3.082-2.933,7.252-6.081,10.606-8.648C344.272,186.898,357.779,211.703,347.919,211.703 M317.355,211.826
		c-1.515,0-0.503-0.965-0.503-1.916c1.397,0,1.859-0.167,2.527-1.438C319.379,210.48,320.154,211.826,317.355,211.826
		 M271.04,213.143c-2.254-4.26,7.57-27.628,9.604-31.694h1.007C281.681,194.163,313,207.46,271.04,213.143 M371.385,212.853
		c-0.144,0.133,0.745,1.32,0.95,1.497c0.796,0.737,1.202,1.202,4.206,0.013c0.047-0.013,1.752-0.873,0.868-0.724
		c-1.931,0.308-3.554,2.021-4.89,0.421c-0.057-0.056-0.924-0.894-0.944-0.983c-0.088-0.311-1.12-0.146-1.12-0.146
		c-0.046-0.038-0.025-0.131,0.025-0.205c1.521-2.465,5.054-2.085,8.695-0.478c0,0.128-0.082,0.431-0.189,0.4
		C374.929,211.477,373.074,211.225,371.385,212.853 M360.348,212.262c-0.652,0.262-0.976-0.133-1.155-0.262
		c2.768-1.269,4.406-1.212,5.901-0.385c0.555,0.298,0.662,0.729,1.104,0.857c0.391,0.105,0.802-0.434-0.385,0.57
		c-1.238,1.027-2.224,1.89-3.59,1.171c-0.145-0.077-0.94-0.257-1.068-0.308c-0.298-0.113,0.01-0.144,0.539,0
		c0.087,0.023,0.791,0.113,0.914,0.144c0.668,0.174,1.273,0.131,2.378-0.884c0.211-0.2,0.642-0.626,0.642-0.626
		C363.105,211.597,362.017,211.615,360.348,212.262 M262.935,218.908c-5.177-7.337,2.722-21.409,8.104-27.379l-7.092,27.379H262.935
		z M287.223,221.794c-2.942-2.804-2.142-7.645-0.262-8.97c1.448-1.03,3.806-0.424,3.806,7.997
		C289.01,220.821,288.522,221.794,287.223,221.794 M314.541,227.074c-12.547-3.236-30.928-8.5-16.204-22.585
		c4.869,4.635,13.415,6.725,20.518,8.995c1.001,0.324,7.37-0.796,11.129-2.028c3.492-1.15,3.267,6.117,0.734,10.806
		C325.67,225.148,320.103,226.597,314.541,227.074 M368.524,224.565c-1.115,0.28-2.83,0.182-2.728-0.658l0.462-0.503l2.225-0.572
		c0.513-0.149,2.218,0.822,4.077,0.904C372.006,225.1,372.232,225.443,368.524,224.565 M296.324,228.518
		c-1.566-0.981-7.226-2.748-4.54-5.285c2.886,1.852,5.054,1.937,5.054,5.285H296.324z M307.972,230.916
		c-1.017-0.478-2.532,0.007-4.062,0.007l-1.741-2.334c3.359,0,5.634,0.015,9.327,0.868
		C311.495,231.532,309.749,230.351,307.972,230.916 M369.418,228.743c-0.093-0.015-0.519,0-0.693-0.015
		c-0.221,0-0.041,0.914-0.139,0.894c-0.606-0.128-1.243-0.288-1.793-0.473c-8.803-3.117-9.696-11.494-9.229-14.216
		c0.282-1.659,0.271-3.362,0.139-5.098c-0.149-1.759-0.422-3.546-0.679-5.352c3.591-0.408,8.027-1.384,11.078-0.686
		c3.755,0.853,7.432-0.917,11.196-0.757c0.339,0.824,1.418,3.762,2.168,6.543c0.385,1.41,1.525,2.562,1.201,3.649
		c-1.299,4.191-0.118,10.675-3.877,12.809c-3.796,2.152-4.879,2.321-6.451,3.115c-0.564,0.259-0.791,0.418-1.787,0.508
		c-0.175,0.013-0.509,0-0.832,0C369.598,229.665,369.521,228.743,369.418,228.743 M316.564,232.356c0-1.451,1.51-1.985,1.51-3.356
		c2.743,0,9.105-2.435,9.105,1.916C324.797,230.916,319.368,231.974,316.564,232.356 M355.125,235.138
		c4.124,0.272,4.272,6.959,6.378,9.773l-4.874-14.031C356.424,232.703,355.258,233.931,355.125,235.138 M381.317,242.918l-0.503-2.4
		l1.52-0.963v2.881L381.317,242.918z M344.463,253.134c-0.072-3.112,0.133-5.069,0.631-6.384c0.17-0.447,0.304-0.57,0.468-0.789
		c0.272-0.367,0.601-0.367,1.027-0.125c0.077,0.025,0.2,0.153,0.205,0.076c0.057-1.663,2.687-2.793,3.221-1.726
		c0.021,0.019,0.092,0.019,0.112-0.066c0.134-0.652,1.15-1.058,1.998-0.796c0.524,0.175,0.56,0.148,0.621-0.493
		c0.145-2.008,0.222-4.91,0.447-6.119c0.123-0.666,0.95-0.388,1.402-0.604c0.303,1.407,1.053,6.255,1.068,6.995
		c0.025,1.412-0.036,3.777,0.354,5.645L344.463,253.134z M343.02,247.9c-3.216-5.197-1.248-11.13,1.962-15.847
		c0.569,0.57,9.429-1.363,8.032,0.244C348.191,237.839,344.781,239.082,343.02,247.9 M390.418,253l-0.492-3.366l4.673,0.734
		L390.418,253z M390.347,261.982l-5.614-0.898c0-7.879-7.169-4.309-2.398-6.168c0-1.269,0.077-2.316,0.313-3.131
		c0.2-0.693,0.463-0.973,0.925-1.387c0.462-0.397,2.034,0.773,2.855,0.614c0.56-0.093,1.212-0.151,1.973-0.151
		c0.596,0.84-0.052,2.691,2.511,4.676c3.405,2.666,5.198,11.967,5.198,12.424C390.516,258.714,391.477,263.487,390.347,261.982
		 M280.171,265.028c-0.467,0-9.122-3.842-10.657-4.786c0-6.451,12.157-2.702,12.157,4.786H280.171z M272.766,267.961
		c-15.27-7.241,4.339-1.618,4.345,0.432L272.766,267.961z M385.863,268.862c-3.529-0.963-8.593-1.929-11.607-4.332v-0.971
		C392.647,263.56,395.205,260.036,385.863,268.862 M402.493,269.116c-1.022-0.323-1.218-6.394-2.871-6.579
		c-0.986-0.125-0.734,6.836-1.269,5.942c-2.419-3.978-3.082-13.651-3.082-15.713c0.504,0,3.76-0.244,5.274-1.197
		c6.261,11.957-0.914-8.653-5.567-8.653c-9.865,9.63-5.7,1.001-7.621-0.553c-0.591-0.472-2.773,0.529-7.72,4.579
		c-0.837,0.681,0.083,4.193-0.898,5.051c-0.986,0.848-3.878-0.958-5.028,0.075c-0.785,0.698-1.617,1.466-2.49,2.254
		c-2.455,2.258-2.923,5.602-4.576,8.765c-0.92-1.762-5.398-1.9-6.312-5.634c-1.068-4.44,3.908-13.024,3.303-17.311
		c-0.627-4.266-3.374-7.342-2.625-8.059l8.604,1.51l7.354-0.208c2.126-0.062,4.529-5.649,7.437-6.764
		c1.992-0.755,6.163,0.734,7.498,3.29c4.186,8.009,17.668,14.545,20.842,38.327C410.335,269.381,405.215,269.116,402.493,269.116
		 M259.92,273.202c-9.188-11.646-16.014-39.713,0.483-47.563c1.71,1.086,15.788,31.198,5.084,31.224
		c-3.015-2.843-2.023-10.582-5.578-10.56c0,2.157,3.667,14.293,3.035,14.884c-2.28-1.61-3.328-5.284-6.579-5.284
		c0,7.265,6.086,5.67,4.047,17.3H259.92z M341.294,275.979l0.662-20.418l6.646-3.12c2.357-0.468,8.536-4.34,8.408-2.306
		l-0.971,14.935C355.735,269.923,345.659,272.881,341.294,275.979 M277.11,275.115c-3.534-1.428-7.591-3.837-12.645-2.876v-1.931
		c5.654-4.012,7.776,0.051,12.136,1.438C276.602,273.88,279.103,272.265,277.11,275.115 M276.602,279.92
		c-1.187,0-11.556-2.104-12.64-2.389c0-4.504,12.249-0.382,14.165,1.426l-1.017,0.963H276.602z M337.318,281.838l-3.713-49.024
		c6.846-3.4,9.769-4.468,12.033-6.679c2.28-2.245,4.062,2.021,2.29,4.293C335.865,218.985,342.279,277.134,337.318,281.838
		 M280.665,290.007c-0.519-0.968-0.519-2.884-0.519-3.834c2.897,2.732,3.082,0.86,1.525,3.834H280.665z M289.771,290.487
		c-2.09,0-5.804-14.447-6.764-27.539c-0.339-4.704-2.558-9.521-3.123-11.348c-1.69,0-2.588-0.509-4.294-0.509
		c-6.266-13.751-20.954-38.424,6.569-35.54c0,19.688,33.948,21.435,48.062,18.245c4.181,3.96,0.621,35.212,0.005,37.949
		c-6.255,0-4.874-10.341-10.118-12.008c-5.249,4.984,14.16,20.872,14.16,24.021l-0.493-0.478
		c-27.626,5.832-14.545-23.677-30.276-33.619c-3.98,7.585,13.076,26.802,13.076,35.545c-2.917,0-4.109,1.803-8.598,0.966
		c-4.838-9.237-7.586-24.509-14.678-31.241c-3.662,6.995,12.151,25.338,12.151,32.191c-3.035,0.96-5.059,1.443-7.601,1.443
		c-4.55-4.319-6.065-11.062-10.118-16.327C280.505,276.815,300.951,290.487,289.771,290.487 M269.016,295.305
		c-5.08-2.417-2.958-11.603,0-14.427c9.147,4.35,4.273-0.357,7.586,9.129C274.09,291.217,273.171,295.305,269.016,295.305
		 M231.596,297.22c-9.106-8.582,14.658-11.463,14.658-12.963c-2.306-1.464-4.273-0.96-7.083-0.96
		c-1.027-1.978,0.817-4.227,1.525-6.253l9.614,4.805c0.288-0.186-12.408-21.417-2.537-30.743c3.472,9.892-4.766,19.203,5.562,19.203
		c3.312,3.138,6.584,8.962,6.584,12.98c-4.278,1.158-8.618-2.375-11.643,1.924l1.017,0.96
		C243.362,287.785,233.003,297.22,231.596,297.22 M393.469,300.563h-1.017c-2.933-4.474-10.107-8.338-10.107-13.456
		C383.47,287.107,402.662,297.651,393.469,300.563 M291.583,303.933c-2.501-2.367-15.747,1.238-12.963-6.713
		c1.947-1.833,41.626-10.481,46.054-10.097l0.503,0.955c-24.76,18.489-16.527,13.862-31.898,9.517
		C293.278,303.537,300.807,305.679,291.583,303.933 M267.517,306.819c-7.406-10.531-7.596-5.432-7.596-21.129l2.019-0.478
		C264.163,287.328,269.591,302.854,267.517,306.819 M384.882,310.65l-2.537-14.894h0.996
		C388.965,301.098,395.071,305.812,384.882,310.65 M296.848,311.144c-4.129-2.619-10.405,0.668-15.177-3.845
		c0.509-0.479,21.843-1.389,22.249-1.435v0.955L296.848,311.144z M282.18,312.576c0,0-1.515,0-1.515-1.428l2.023,1.428H282.18z
		 M351.991,314.61l-8.603-3.431c0-0.663,9.143-3.749,10.621-3.749C354.01,310.471,357.092,314.61,351.991,314.61 M374.256,319.305
		c-3.544,0-6.076-1.921-9.614-1.913c-1.141-2.188,5.136-4.404,7.575-6.259c0-0.482,0-0.955-0.503-1.926
		c-5.11,0-6.729,5.003-13.646,3.359c2.609,0,14.104-8.158,6.574-8.158c-1.654,1.559-4.181,4.326-6.574,4.326
		c0-4.062,6.852-5.243,4.54-9.619l-1.515,0.011c-0.006-4.396,3.467-20.667-3.036-20.667c-2.367,9.014-1.017,14.2-1.012,19.696
		c-30.486,14.403-4.247-8.716-16.188-14.396c-5.783,2.74,0,27.259,0,32.664c-3.036,0.969-5.573,0-8.084-0.965
		c-14.191-40.302,54.379-69.704,65.755-26.438l-1.007,0.974c-3.226-2.039-14.124-11.535-14.688-11.535
		c-10.678,10.164-1.741,28.545-6.051,40.846H374.256z M357.045,326.516c0.354-0.026,0.94-1.525-2.105-4.607
		c-3.035-3.076-8.551-4.108-9.45-6.33c2.353,0,22.69,6.954,22.69,7.558C365.761,323.136,360.759,325.812,357.045,326.516
		 M255.37,335.18c-8.536-2.316-23.461-26.966-25.813-35.073c1.829-3.467,4.643-2.394,5.783-1.004
		c1.002-0.48,34.621-30.741,20.01-7.645c-0.873,4.463,4.442,25.304,11.73,25.304c3.349-3.196-0.406-4.681-2.614-5.736
		c0-1.021,8.099-6.609,9.116-9.003l1.515,0.482c0,22.958-16.692,28.797-16.692,32.182
		C257.614,334.687,256.038,334.854,255.37,335.18 M380.835,339.476c-3.066-2.909-1.849-24.681,0.498-26.909l1.515,1.443
		C380.994,321.056,383.639,334.132,380.835,339.476 M356.039,339.945c0-0.47,0-2.876-0.498-3.338c-3.709,0-1.484,3.063-5.567,0.467
		c0-2.306,0.246-4.57,2.018-6.245C361.437,330.814,363.055,333.3,356.039,339.945 M264.46,343.33
		c-4.319-2.203-4.283-5.12,6.862-19.208c6.507-8.223,19.485-11.546,25.017-11.546C296.339,315.884,268.513,340.002,264.46,343.33
		 M389.936,345.23c1.859-4.556,5.752-43.224,9.101-43.224C399.036,317.132,402.976,332.904,389.936,345.23 M377.794,351.483
		c-3.729-7.09-9.922-19.886-1.012-28.348c1.864,3.554-5.146,20.662,5.567,20.662c6.41-6.094-1.289-33.62,9.6-33.62
		C393.685,311.826,390.115,351.483,377.794,351.483 M372.232,362.051c-1.823,0-1.7-10.765-1.516-12.016
		c3.544,0,3.626,4.357,8.084,5.771C378.801,359.487,374.872,360.395,372.232,362.051 M287.254,370.712
		c-3.462-0.988-35.351-18.327-27.323-25.938c0,0.493,0,0.493,0.498,1.916c21.232,0,53.845-60.055,72.334-60.055l-3.867,9.384
		c-9.09,21.936-45.011,43.629-41.159,47.312c5.11,0,39.947-37.664,42.489-40.841h0.519
		C329.337,317.034,297.13,370.712,287.254,370.712 M334.288,377.438c-1.114-9.091-0.19-38.452-2.023-57.646
		c5.054,0.945,9.619,0,14.673,0c9.039,0-6.964,18.31,3.523,24.971c6.929-3.269,5.121,0.416,10.646-4.817
		c5.747-38.372,10.832,19.162,6.061,25.947C358.766,370.689,344.241,377.438,334.288,377.438 M314.068,378.881
		c-8.49-2.301-15.49-4.045-21.268-7.688c0-0.293,11.284-15.854,12.66-15.854l-8.598,15.374c7.206,0,25.397-39.985,31.858-46.128
		h0.498c2.614,12.365,4.972,43.922-0.487,54.297c-2.039,0-3.03-1.443-5.06-0.976l5.06-48.036l-1.536-0.478
		c-7.247,6.858,0.966,39.939-9.09,49.489c-1.52,0-2.013,0-3.544-0.976L314.068,378.881z M378.673,255.789
		c0.678,0.298,1.34,0.585,2.013,0.878c2.137,3.667,2.48,4.481-3.379,6.312c-6.076-1.073-5.27-2.571-3.153-7.036
		C372.314,253.498,377.07,254.027,378.673,255.789 M304.859,203.788c1.161,0,2.312-0.732,2.312-0.732l1.479,1.184l-0.827,1.042
		l1.978,1.654l1.474,1.638l-3.277-1.197l-1.977-1.638l-1.818-0.585L304.859,203.788z M330.046,202.758v1.78l-0.164,1.797
		l-1.484,0.601l-0.323,1.941l1.643,0.3l2.147-0.444c0,0,0.482-0.616,0.318-1.356c-0.164-0.752-0.318-1.335-0.488-2.095
		c-0.159-0.745-0.334-1.335-0.334-2.075c0-0.755-0.816-2.688-0.816-2.688L330.046,202.758z M332.619,226.609l2.537-2.144
		l1.782,1.076l-0.144,1.477l-0.895,1.346l-1.792,0.814l-0.585-0.937l-0.904-0.414V226.609z M323.672,381.271
		c0,0.476-0.503,0.476-1.012,1.446c-27.744,2.028-67.793-14.442-67.793-42.749c-16.224-7.684-44.307-45.219-20.246-56.672
		c4.627-21.961,7.052-42.821,22.762-61.497c-0.842-16.784-33.547-53.994-31.385-58.125c2.028-0.478,5.059-0.478,7.596-0.478
		c0-3.682,0.288-13.312,3.523-15.369c6.908,2.183,9.147,13.539,10.646,19.211h0.493c0-3.598,5.095-10.089,9.106-10.089
		c4.299,4.088-0.128,9.229,1.525,13.934c3.271-1.556,0-4.317,8.598-4.324c3.657,3.466,6.867,13.718,7.581,14.406
		c2.963,0,3.708-1.926,6.584-1.926c2.825-10.703,14.874-23.779,5.567-32.669c-12.054-31.426,27.308-12.239,27.308-38.902
		c0.555-0.264,13.651-24.162,13.651,2.861c-1.018,0.485-1.521,0.485-3.025,1.451c0,18.756,31.386,14.851,21.756,33.134
		c-3.657,12.991-11.099,18.741-4.551,31.835l2.019,0.357c0-7.054,15.243-0.976,21.319-18.497l0.437-6.957
		c1.31-1.235,1.771-3.141,3.533-4.817c2.466,2.339,8.85,4.566,7.082,9.617l-1.524,0.482c3.21,11.628,15.366,13.99,23.055,20.991
		c-0.996,3.151-9.332,14.283-8.557,22.87l0.55,6.153c0.668,7.37-3.426,7.046-4.026,16.458c13.209,6.261,48.041,53.159,14.303,50.252
		c0,39.038,21.607,60.732-26.788,94.167C361.134,374.798,338.232,385.871,323.672,381.271"/>
	<path fill-rule="evenodd" clip-rule="evenodd" fill="#1C5B8A" d="M225.921,361.255c-60.033-24.085-100.438-68.437-100.438-118.958
		c0-48.76,39.464-89.025,94.151-116.349c1.818-0.909-0.35,0.275-1.562,1.916c-2.609,3.657-8.089,11.132-9.773,14.534
		c-2.45,4.885-6.281,9.831-8.382,14.417c-11.196,24.426-16.635,45.098-18.849,65.154c-2.208,20.045-1.182,39.469,3.256,62.229
		C193.313,330.357,227.821,362.02,225.921,361.255"/>
	<path fill="none" stroke="#FFFFFF" stroke-width="0.4329" stroke-miterlimit="10" d="M225.921,361.255
		c-60.033-24.085-100.438-68.437-100.438-118.958c0-48.76,39.464-89.025,94.151-116.349c1.818-0.909-0.35,0.275-1.562,1.916
		c-2.609,3.657-8.089,11.132-9.773,14.534c-2.45,4.885-6.281,9.831-8.382,14.417c-11.196,24.426-16.635,45.098-18.849,65.154
		c-2.208,20.045-1.182,39.469,3.256,62.229C193.313,330.357,227.821,362.02,225.921,361.255"/>
	<path fill-rule="evenodd" clip-rule="evenodd" fill="#397BB6" d="M152.041,199.813c-0.816-0.216-1.633-0.416-2.465-0.622
		c2.655-14.884,6.774-29.192,12.167-42.72c5.798-14.514,13.061-28.119,21.561-40.571c4.623-6.787,9.614-13.232,14.925-19.277
		c2.666-3.01,5.367-5.914,8.166-8.706c6.132-6.158,12.64-11.843,19.455-16.964c9.075-6.846,18.71-12.727,28.787-17.519
		c11.566-5.513,23.733-9.588,36.29-12.033c0.036,0.206,0.067,0.411,0.093,0.622c0.647,4.561,1.289,9.152,1.946,13.723
		c1.089,7.637,2.172,15.276,3.267,22.911c-1.751,0.565-3.97,1.248-6.528,2.111c-8.335,2.773-20.59,7.344-33.881,15.218
		c-14.545,8.618-30.333,21.216-43.661,39.808c-10.328,14.435-17.482,29.629-22.32,45.632c-1.607,5.311-2.963,10.69-4.083,16.183
		c-0.581,2.769-1.083,5.552-1.546,8.367c-0.103,0.631-0.195,1.25-0.298,1.879C173.288,205.165,162.667,202.486,152.041,199.813"/>
	<path fill="none" stroke="#FFFFFF" stroke-width="0.4329" stroke-miterlimit="10" d="M152.041,199.813
		c-0.816-0.216-1.633-0.416-2.465-0.622c2.655-14.884,6.774-29.192,12.167-42.72c5.798-14.514,13.061-28.119,21.561-40.571
		c4.623-6.787,9.614-13.232,14.925-19.277c2.666-3.01,5.367-5.914,8.166-8.706c6.132-6.158,12.64-11.843,19.455-16.964
		c9.075-6.846,18.71-12.727,28.787-17.519c11.566-5.513,23.733-9.588,36.29-12.033c0.036,0.206,0.067,0.411,0.093,0.622
		c0.647,4.561,1.289,9.152,1.946,13.723c1.089,7.637,2.172,15.276,3.267,22.911c-1.751,0.565-3.97,1.248-6.528,2.111
		c-8.335,2.773-20.59,7.344-33.881,15.218c-14.545,8.618-30.333,21.216-43.661,39.808c-10.328,14.435-17.482,29.629-22.32,45.632
		c-1.607,5.311-2.963,10.69-4.083,16.183c-0.581,2.769-1.083,5.552-1.546,8.367c-0.103,0.631-0.195,1.25-0.298,1.879
		C173.288,205.165,162.667,202.486,152.041,199.813"/>
	<path fill-rule="evenodd" clip-rule="evenodd" fill="#1C5B8A" d="M417.325,359.816c60.023-24.103,97.305-68.877,97.305-119.394
		c0-48.76-39.443-89.015-94.131-116.349c-1.839-0.909,0.35,0.272,1.541,1.937c2.614,3.631,8.104,11.119,9.789,14.509
		c2.444,4.902,6.281,9.838,8.387,14.427c19.11,41.708,24.139,83.402,15.593,127.385
		C446.826,328.482,415.404,360.571,417.325,359.816"/>
	<path fill="none" stroke="#FFFFFF" stroke-width="0.4329" stroke-miterlimit="10" d="M417.325,359.816
		c60.023-24.103,97.305-68.877,97.305-119.394c0-48.76-39.443-89.015-94.131-116.349c-1.839-0.909,0.35,0.272,1.541,1.937
		c2.614,3.631,8.104,11.119,9.789,14.509c2.444,4.902,6.281,9.838,8.387,14.427c19.11,41.708,24.139,83.402,15.593,127.385
		C446.826,328.482,415.404,360.571,417.325,359.816"/>
	<path fill-rule="evenodd" clip-rule="evenodd" fill="#397BB6" d="M183.288,276.764l-33.712,8.49
		c14.355,80.489,71.692,144.236,141.35,157.79c1.957-13.448,3.929-26.884,5.891-40.343c-3.205-1.946-9.409-1.937-12.855-3.544
		c-18.155-8.495-35.099-14.339-54.271-34.356c-10.821-11.269-23.558-25.951-33.938-49.076
		C190.884,304.832,187.268,291.365,183.288,276.764"/>
	<path fill="none" stroke="#FFFFFF" stroke-width="0.4329" stroke-miterlimit="10" d="M183.288,276.764l-33.712,8.49
		c14.355,80.489,71.692,144.236,141.35,157.79c1.957-13.448,3.929-26.884,5.891-40.343c-3.205-1.946-9.409-1.937-12.855-3.544
		c-18.155-8.495-35.099-14.339-54.271-34.356c-10.821-11.269-23.558-25.951-33.938-49.076
		C190.884,304.832,187.268,291.365,183.288,276.764"/>
	<path fill="#397BB6" d="M456.697,208.811l33.979-8.562c-14.354-80.5-71.707-144.247-141.354-157.795
		c-1.793,12.26-3.585,24.491-5.362,36.752C431.465,105.179,450.523,173.052,456.697,208.811"/>
	<path fill="none" stroke="#FFFFFF" stroke-width="0.4329" stroke-miterlimit="10" d="M456.697,208.811l33.979-8.562
		c-14.354-80.5-71.707-144.247-141.354-157.795c-1.793,12.26-3.585,24.491-5.362,36.752
		C431.465,105.179,450.523,173.052,456.697,208.811"/>
	<path fill-rule="evenodd" clip-rule="evenodd" fill="#397BB6" d="M456.081,276.551l34.929,8.703
		c-14.354,80.489-71.707,144.236-141.355,157.792c-2.013-13.764-4.016-27.51-6.029-41.267c18.474-5.159,40.702-13.752,59.628-30.202
		c4.72-4.124,11.053-8.721,14.956-13.887C439.538,329.428,454.895,298.391,456.081,276.551"/>
	<path fill="none" stroke="#FFFFFF" stroke-width="0.4329" stroke-miterlimit="10" d="M456.081,276.551l34.929,8.703
		c-14.354,80.489-71.707,144.236-141.355,157.792c-2.013-13.764-4.016-27.51-6.029-41.267c18.474-5.159,40.702-13.752,59.628-30.202
		c4.72-4.124,11.053-8.721,14.956-13.887C439.538,329.428,454.895,298.391,456.081,276.551"/>
	<path fill-rule="evenodd" clip-rule="evenodd" fill="#FFFFFF" d="M248.416,81.217l3.123,4.314l1.13-0.666l1.572,2.17l-4.884,2.879
		l-1.556-2.157l1.063-0.631l-7.452-10.318l-1.058,0.626l-1.489-2.08l5.727-3.385l7.113,6.05c0.262,0.2,0.816,0.708,1.71,1.497
		c0.899,0.814,2.142,1.954,3.739,3.431l0.2-0.128c-1.032-1.173-2.029-2.36-2.984-3.572c-0.956-1.209-1.88-2.429-2.758-3.657
		l-2.444-3.379l-1.089,0.642l-1.484-2.064l4.89-2.896l1.5,2.064l-1.068,0.624l9.024,12.48l-4.366,2.581l-8.017-6.597
		c-0.832-0.711-1.669-1.43-2.496-2.186c-0.832-0.737-1.664-1.528-2.501-2.336l-0.2,0.113c0.621,0.693,1.222,1.438,1.838,2.213
		c0.626,0.783,1.32,1.713,2.101,2.81L248.416,81.217z M226.737,81.066l1.649-5.041l3.082-0.701l-2.892,5.328L226.737,81.066z
		 M241.056,89.145l-4.766-5.516c-0.693-0.801-1.355-1.294-1.998-1.495c-0.632-0.19-1.217-0.083-1.772,0.318
		c-0.56,0.396-0.816,0.894-0.745,1.479c0.067,0.619,0.437,1.31,1.13,2.106l4.792,5.503c0.678,0.783,1.331,1.287,1.957,1.482
		c0.626,0.19,1.228,0.097,1.787-0.291c0.555-0.408,0.801-0.912,0.74-1.512C242.125,90.634,241.739,89.925,241.056,89.145
		 M243.984,86.515c1.366,1.564,1.957,3.056,1.838,4.394c-0.164,1.389-1.042,2.658-2.65,3.803c-1.623,1.161-3.169,1.633-4.684,1.417
		c-1.5-0.195-2.933-1.083-4.283-2.66l-4.201-4.823c-1.356-1.562-1.962-3.03-1.823-4.404c0.118-1.374,0.997-2.632,2.604-3.782
		c1.618-1.15,3.184-1.621,4.705-1.415c1.51,0.203,2.943,1.083,4.283,2.632L243.984,86.515z M233.681,98.481l0.883-0.745l1.947,1.888
		l-4.761,4.034l-1.941-1.887l0.899-0.763l-9.327-8.993l-0.889,0.765l-1.864-1.805l4.74-4.044l1.88,1.813l-0.878,0.745
		L233.681,98.481z M225.294,100.813l1.253,1.094c1.31,1.138,1.972,2.306,1.952,3.513c-0.005,1.197-0.698,2.424-2.029,3.68
		c-1.417,1.333-2.866,1.985-4.309,1.949c-1.464-0.044-2.995-0.771-4.627-2.172l-5.121-4.453c-1.474-1.289-2.332-2.532-2.547-3.749
		c-0.221-1.191,0.216-2.311,1.32-3.346c0.519-0.49,1.104-0.845,1.751-1.035c0.647-0.211,1.361-0.257,2.157-0.169l-1.073-0.94
		l2.245-2.106l5.264,4.579l-2.599,2.445l-0.523-0.439c-1.104-0.966-1.978-1.536-2.583-1.695c-0.601-0.162-1.146-0.008-1.644,0.452
		c-0.508,0.478-0.683,0.96-0.539,1.454c0.159,0.488,0.786,1.191,1.869,2.137l4.992,4.34c0.997,0.863,1.772,1.376,2.337,1.489
		c0.57,0.139,1.099-0.046,1.613-0.524c0.478-0.457,0.642-0.945,0.493-1.433c-0.149-0.519-0.678-1.15-1.536-1.905
		c-0.195-0.174-0.329-0.313-0.447-0.396c-0.103-0.084-0.221-0.174-0.329-0.247L225.294,100.813z M211.946,124.505l-2.245-1.592
		l0.529-0.616l-10.323-12.09l3.159-3.69l15.449,6.114l0.554-0.642l2.25,1.592l-3.796,4.425l-2.254-1.603l0.76-0.871l-2.784-1.271
		l-2.763,3.218l2.029,2.152l0.806-0.935l2.255,1.577L211.946,124.505z M208.772,115.605l2.055-2.412l-4.17-1.823
		c-0.108-0.043-0.544-0.257-1.32-0.637c-0.771-0.373-1.423-0.706-1.962-0.963c0.57,0.59,1.083,1.14,1.546,1.623
		c0.472,0.493,0.796,0.832,0.981,1.027L208.772,115.605z M203.667,136.189l-2.388-1.44l0.704-0.938l-11.319-6.861l-0.688,0.924
		l-2.265-1.366l3.631-4.913c0.786-1.065,1.479-1.872,2.09-2.442c0.591-0.56,1.161-0.935,1.69-1.109
		c0.863-0.298,1.756-0.339,2.717-0.124c0.955,0.208,2.06,0.681,3.297,1.433l4.622,2.804c1.294,0.801,2.229,1.562,2.794,2.291
		c0.544,0.75,0.832,1.58,0.853,2.48c0.016,0.493-0.154,1.102-0.514,1.818c-0.339,0.716-0.878,1.561-1.607,2.537L203.667,136.189z
		 M204.242,130.753l0.2-0.274l0.344-0.478c0.817-1.083,1.146-1.954,0.981-2.586c-0.169-0.619-0.945-1.348-2.327-2.19l-4.787-2.912
		c-1.263-0.768-2.239-1.074-2.953-0.938c-0.708,0.115-1.479,0.763-2.326,1.934l-0.437,0.581L204.242,130.753z M190.313,142.45
		l5.039,2.403l0.632-1.073l2.527,1.199l-2.707,4.666l-2.527-1.209l0.59-1.017l-12.054-5.75l-0.581,1.009l-2.424-1.158l3.199-5.47
		l9.46,2.152c0.318,0.069,1.099,0.262,2.306,0.573c1.202,0.311,2.917,0.768,5.105,1.354l0.118-0.201
		c-1.551-0.588-3.056-1.186-4.535-1.831c-1.474-0.619-2.933-1.287-4.371-1.959l-3.939-1.895l-0.611,1.047l-2.409-1.166l2.722-4.684
		l2.414,1.15l-0.59,1.03l14.57,6.954l-2.424,4.157l-10.569-2.252c-1.099-0.244-2.224-0.516-3.328-0.804
		c-1.13-0.288-2.27-0.601-3.446-0.948l-0.103,0.188c0.898,0.344,1.818,0.711,2.773,1.13c0.95,0.401,2.054,0.919,3.343,1.536
		L190.313,142.45z M183.812,159.373l-9.147-3.852l-0.441,0.894l-2.491-1.038l2.609-5.084l2.48,1.027l-0.432,0.857l9.913,4.15
		c0.971,0.406,1.746,0.578,2.275,0.516c0.534-0.074,0.94-0.372,1.228-0.927c0.293-0.591,0.293-1.091-0.021-1.536
		c-0.313-0.426-0.96-0.873-2.003-1.299l-9.779-4.093l-0.416,0.842l-2.48-1.045l2.424-4.753l2.481,1.033l-0.452,0.894l8.751,3.675
		c2.286,0.953,3.765,2.036,4.427,3.238c0.663,1.189,0.56,2.614-0.272,4.268c-0.863,1.672-1.978,2.691-3.369,3.038
		C187.72,160.539,185.953,160.267,183.812,159.373 M184.633,174.724l-2.701-0.878l0.426-1.058l-12.814-4.165l-0.421,1.053
		l-2.563-0.832l4.129-10.413l5.67,1.851l-1.176,2.938l-3.087-1.012l-1.181,2.933l5.074,1.653l1.402-3.536l3.051,0.994l-1.412,3.533
		l4.709,1.541l0.601-1.515l2.67,0.889L184.633,174.724z"/>
	<path fill-rule="evenodd" clip-rule="evenodd" fill="#FFFFFF" d="M464.858,175.618l-5.46,1.479l0.391,1.171l-2.737,0.734
		l-1.67-5.048l2.732-0.74l0.365,1.104l13.045-3.523l-0.359-1.099l2.614-0.708l1.962,5.932l-8.429,4.458
		c-0.292,0.167-0.985,0.517-2.085,1.058c-1.104,0.55-2.649,1.294-4.694,2.273l0.077,0.203c1.546-0.56,3.087-1.081,4.658-1.572
		c1.521-0.485,3.082-0.939,4.622-1.346l4.294-1.161l-0.38-1.125l2.614-0.709l1.68,5.059l-2.609,0.714l-0.37-1.099l-15.771,4.283
		l-1.505-4.524l9.28-5.069c0.991-0.534,1.987-1.061,3.004-1.562c1.033-0.508,2.096-1.006,3.205-1.51l-0.077-0.2
		c-0.909,0.329-1.859,0.657-2.86,0.963c-0.986,0.313-2.183,0.645-3.569,1.02L464.858,175.618z M470.934,156.975l4.864,2.855
		l-0.124,2.881l-4.822-4.014L470.934,156.975z M458.382,166.712l7.262-2.473c1.022-0.357,1.736-0.771,2.147-1.246
		c0.39-0.503,0.467-1.038,0.215-1.648c-0.241-0.596-0.703-0.956-1.351-1.084c-0.646-0.123-1.494-0.01-2.537,0.349l-7.241,2.471
		c-1.027,0.359-1.757,0.755-2.168,1.258c-0.385,0.472-0.457,1.006-0.205,1.625c0.247,0.588,0.693,0.95,1.355,1.091
		C456.518,167.185,457.354,167.069,458.382,166.712 M460.267,170.027c-2.06,0.693-3.77,0.778-5.197,0.244
		c-1.397-0.529-2.471-1.679-3.195-3.415c-0.714-1.751-0.744-3.241-0.082-4.468c0.668-1.243,2.055-2.203,4.094-2.904l6.373-2.167
		c2.039-0.699,3.775-0.789,5.162-0.265c1.402,0.516,2.47,1.664,3.21,3.411c0.714,1.736,0.75,3.225,0.066,4.473
		c-0.673,1.25-2.033,2.227-4.078,2.912L460.267,170.027z M451.089,157.693l0.478,1.004l-2.614,1.043l-2.609-5.426l2.609-1.022
		l0.493,1.017l12.47-4.94l-0.488-1.027l2.517-0.988l2.609,5.421l-2.517,0.996l-0.473-1.012L451.089,157.693z M451.376,149.702
		l-1.566,0.714c-1.607,0.731-3.04,0.894-4.278,0.472c-1.258-0.411-2.311-1.402-3.163-2.958c-0.925-1.654-1.13-3.102-0.591-4.33
		c0.529-1.223,1.792-2.293,3.811-3.215l6.338-2.881c1.839-0.837,3.431-1.148,4.756-0.925c1.325,0.218,2.337,0.96,3.056,2.245
		c0.323,0.611,0.498,1.222,0.478,1.841c0,0.624-0.189,1.245-0.544,1.913l1.335-0.611l1.454,2.619l-6.523,2.953l-1.685-3.038
		l0.643-0.29c1.371-0.627,2.239-1.166,2.608-1.633c0.381-0.457,0.401-0.971,0.077-1.564c-0.318-0.588-0.765-0.899-1.324-0.932
		c-0.555-0.036-1.505,0.264-2.846,0.873l-6.179,2.807c-1.243,0.557-2.028,1.056-2.353,1.495c-0.318,0.442-0.308,0.96,0.016,1.548
		c0.324,0.562,0.761,0.868,1.351,0.899c0.565,0.046,1.397-0.177,2.471-0.663c0.236-0.118,0.421-0.19,0.56-0.267
		c0.134-0.057,0.252-0.123,0.359-0.195L451.376,149.702z M431.824,130.145l2.46-1.32l0.441,0.686l16.22-4.255l2.619,4.006
		l-11.951,10.772l0.451,0.686l-2.449,1.315l-3.159-4.823l2.466-1.297l0.626,0.953l2.322-1.869l-2.291-3.518l-2.953,0.919
		l0.673,1.033l-2.48,1.317L431.824,130.145z M442.157,130.725l1.721,2.62l3.385-2.84c0.087-0.082,0.467-0.37,1.135-0.886
		c0.662-0.503,1.237-0.938,1.71-1.302c-0.832,0.267-1.566,0.509-2.229,0.719c-0.673,0.203-1.15,0.354-1.412,0.437L442.157,130.725z
		 M436.651,125.866l-1.453,0.886c-1.479,0.927-2.871,1.271-4.16,1.02c-1.289-0.257-2.496-1.096-3.585-2.527
		c-1.166-1.52-1.587-2.932-1.237-4.222c0.339-1.289,1.428-2.506,3.281-3.667l5.824-3.641c1.689-1.063,3.215-1.572,4.566-1.51
		c1.34,0.044,2.48,0.66,3.363,1.829c0.422,0.56,0.693,1.15,0.761,1.77c0.087,0.613,0,1.271-0.247,1.944l1.232-0.76l1.834,2.398
		l-6.004,3.765l-2.137-2.812l0.596-0.357c1.264-0.809,2.05-1.443,2.348-1.952c0.298-0.498,0.236-1.022-0.165-1.556
		c-0.421-0.534-0.914-0.793-1.458-0.739c-0.56,0.036-1.448,0.431-2.691,1.196l-5.695,3.554c-1.13,0.724-1.839,1.32-2.086,1.792
		c-0.251,0.478-0.164,0.983,0.247,1.53c0.405,0.526,0.894,0.771,1.469,0.734c0.575-0.041,1.361-0.359,2.342-0.971
		c0.231-0.149,0.411-0.262,0.523-0.341c0.119-0.08,0.236-0.151,0.34-0.229L436.651,125.866z M419.523,106.632l7.745-5.827
		l-0.678-0.755l2.095-1.569l3.95,4.314l-2.091,1.587l-0.652-0.724l-8.428,6.312c-0.822,0.632-1.325,1.179-1.494,1.644
		c-0.165,0.473-0.026,0.93,0.395,1.392c0.442,0.509,0.961,0.722,1.536,0.66c0.565-0.054,1.3-0.424,2.162-1.076l8.284-6.214
		l-0.652-0.708l2.116-1.598l3.692,4.052l-2.115,1.572l-0.688-0.765l-7.442,5.578c-1.915,1.458-3.631,2.203-5.11,2.219
		c-1.483,0.025-2.85-0.666-4.154-2.08c-1.284-1.413-1.813-2.758-1.571-4.042C416.663,109.313,417.695,107.996,419.523,106.632
		 M402.821,98.905l2.055-1.79l0.857,0.814l9.851-8.513l-0.857-0.801l1.982-1.71l4.488,4.258c0.977,0.94,1.711,1.733,2.188,2.368
		c0.482,0.667,0.76,1.253,0.832,1.767c0.134,0.817-0.021,1.633-0.457,2.429c-0.432,0.791-1.187,1.664-2.265,2.591l-4.027,3.467
		c-1.13,0.994-2.167,1.656-3.086,1.982c-0.899,0.326-1.854,0.403-2.851,0.229c-0.529-0.098-1.15-0.38-1.834-0.845
		c-0.703-0.475-1.505-1.133-2.394-1.97L402.821,98.905z M408.553,100.598l0.242,0.231l0.437,0.401
		c1.001,0.965,1.858,1.443,2.578,1.422c0.719,0,1.674-0.529,2.881-1.574l4.165-3.59c1.089-0.942,1.644-1.744,1.654-2.396
		c0.01-0.655-0.504-1.494-1.582-2.501l-0.534-0.503L408.553,100.598z M391.147,90.506l1.818-2.006l0.966,0.706l8.623-9.532
		l-0.95-0.708l1.726-1.916l9.696,7.216l-3.631,4.021l-2.707-2.031l1.886-2.098l-2.871-2.142l-3.205,3.541l3.097,2.319l-2.013,2.216
		l-3.103-2.304l-3.415,3.754l2.886,2.147l2.039-2.255l2.732,2.014l-3.872,4.268L391.147,90.506z M373.254,79.957l1.541-2.178
		l1.043,0.588l7.298-10.411l-1.048-0.601l1.464-2.095l10.601,6.099l-3.087,4.376l-2.964-1.71l1.608-2.283l-3.139-1.815l-2.701,3.877
		l3.39,1.931l-1.71,2.45l-3.4-1.962l-2.865,4.129l3.138,1.792l1.741-2.471l2.969,1.716l-3.262,4.653L373.254,79.957z
		 M358.515,73.778l1.171-2.353l1.135,0.465l5.613-11.237l-1.125-0.465l1.125-2.25l5.932,2.442c1.295,0.537,2.307,1.015,3.005,1.461
		c0.719,0.442,1.212,0.894,1.515,1.335c0.452,0.719,0.647,1.518,0.57,2.403c-0.077,0.881-0.416,1.952-1.027,3.185l-2.295,4.576
		c-0.652,1.31-1.33,2.25-2.055,2.876c-0.698,0.621-1.551,1.012-2.553,1.181c-0.519,0.092-1.217,0.039-2.055-0.165
		c-0.832-0.195-1.844-0.539-3.015-1.017L358.515,73.778z M364.533,73.411l0.318,0.131l0.57,0.236
		c1.346,0.544,2.326,0.688,2.979,0.437c0.663-0.247,1.325-1.063,2.014-2.435l2.378-4.746c0.611-1.248,0.801-2.18,0.539-2.789
		c-0.251-0.606-1.089-1.202-2.476-1.77l-0.714-0.29L364.533,73.411z"/>
	<polygon fill-rule="evenodd" clip-rule="evenodd" fill="#1C5B8A" points="298.065,46.558 298.034,58.257 303.067,58.263 
		314.823,83.721 326.764,83.865 337.498,58.263 342.552,58.334 342.552,46.558 	"/>
	<polygon fill="none" stroke="#FFFFFF" stroke-width="0.4329" stroke-miterlimit="10" points="298.065,46.558 298.034,58.257 
		303.067,58.263 314.823,83.721 326.764,83.865 337.498,58.263 342.552,58.334 342.552,46.558 	"/>
	<polygon fill-rule="evenodd" clip-rule="evenodd" fill="#1C5B8A" points="299.893,433.879 299.867,422.182 304.906,422.171 
		316.657,396.718 328.593,396.574 339.342,422.182 344.38,422.102 344.38,433.879 	"/>
	<polygon fill="none" stroke="#FFFFFF" stroke-width="0.4329" stroke-miterlimit="10" points="299.893,433.879 299.867,422.182 
		304.906,422.171 316.657,396.718 328.593,396.574 339.342,422.182 344.38,422.102 344.38,433.879 	"/>
	<path fill-rule="evenodd" clip-rule="evenodd" fill="#397BB6" d="M320.442,23.036c8.294,0,15.012,7.706,15.012,17.205
		c0,9.501-6.718,17.21-15.012,17.21s-15.022-7.709-15.022-17.21C305.419,30.742,312.147,23.036,320.442,23.036"/>
	<path fill="none" stroke="#FFFFFF" stroke-width="0.3463" stroke-miterlimit="22.926" d="M320.442,23.036
		c8.294,0,15.012,7.706,15.012,17.205c0,9.501-6.718,17.21-15.012,17.21s-15.022-7.709-15.022-17.21
		C305.419,30.742,312.147,23.036,320.442,23.036"/>
	<path fill-rule="evenodd" clip-rule="evenodd" fill="#397BB6" d="M322.275,457.316c8.289,0,15.022-7.707,15.022-17.213
		c0-9.494-6.733-17.208-15.022-17.208c-8.284,0-14.997,7.714-14.997,17.208C307.278,449.609,313.991,457.316,322.275,457.316"/>
	<path fill="none" stroke="#FFFFFF" stroke-width="0.3463" stroke-miterlimit="22.926" d="M322.275,457.316
		c8.289,0,15.022-7.707,15.022-17.213c0-9.494-6.733-17.208-15.022-17.208c-8.284,0-14.997,7.714-14.997,17.208
		C307.278,449.609,313.991,457.316,322.275,457.316"/>
	<path fill-rule="evenodd" clip-rule="evenodd" fill="#FFFFFF" d="M448.623,318.385l-0.816-6.471l3.092-2.337l-0.452,7.421
		L448.623,318.385z M471.236,330.493l-3.204-1.122l0.519-1.333l-15.243-5.354l-0.519,1.336l-3.057-1.063l5.178-13.631l6.42,2.252
		l-1.459,3.829l-3.349-1.191l-1.541,4.042l5.66,1.998l1.653-4.36l3.575,1.264l-1.659,4.345l6.014,2.113l1.531-4.042l-3.611-1.271
		l1.449-3.815l6.814,2.408L471.236,330.493z M464.313,345.194l-7.56-3.24l1.776-3.796l0.175,0.072
		c1.474,0.64,2.63,0.917,3.492,0.837c0.858-0.077,1.475-0.531,1.839-1.341c0.303-0.631,0.334-1.232,0.098-1.792
		s-0.688-0.976-1.382-1.279c-0.678-0.282-1.355-0.354-2.033-0.21c-0.678,0.154-1.782,0.722-3.312,1.7
		c-0.227,0.148-0.524,0.349-0.94,0.626c-1.515,1.027-2.753,1.68-3.729,1.911c-0.637,0.151-1.305,0.18-1.998,0.087
		c-0.698-0.107-1.453-0.311-2.255-0.66c-1.587-0.695-2.676-1.692-3.287-2.996c-0.605-1.311-0.596-2.633,0.021-3.988
		c0.4-0.838,0.919-1.477,1.551-1.937c0.652-0.439,1.474-0.739,2.485-0.901l-1.797-0.783l1.556-3.369l6.461,2.771l-1.736,3.729
		l-0.185-0.075c-1.325-0.572-2.331-0.816-3.071-0.744c-0.744,0.069-1.273,0.472-1.597,1.209c-0.283,0.596-0.313,1.166-0.093,1.68
		c0.175,0.501,0.596,0.889,1.196,1.161c1.059,0.446,2.696-0.124,4.905-1.7c0.411-0.298,0.724-0.514,0.945-0.665
		c1.71-1.189,3.158-1.878,4.391-2.042c1.223-0.156,2.594,0.08,4.083,0.729c1.962,0.848,3.267,1.944,3.888,3.246
		c0.616,1.327,0.555,2.83-0.23,4.507c-0.401,0.854-0.925,1.543-1.593,2.041c-0.652,0.498-1.443,0.804-2.342,0.909l1.896,0.822
		L464.313,345.194z M454.679,348.563l-7.977-4.452c-1.14-0.638-2.126-0.936-2.917-0.895c-0.801,0.041-1.407,0.419-1.833,1.12
		c-0.432,0.709-0.452,1.402-0.098,2.08c0.37,0.688,1.119,1.355,2.275,1.998l7.971,4.458c1.15,0.629,2.11,0.924,2.922,0.894
		c0.786-0.031,1.397-0.401,1.823-1.109c0.427-0.709,0.452-1.413,0.098-2.101C456.574,349.868,455.84,349.206,454.679,348.563
		 M456.646,344.214c2.25,1.258,3.631,2.737,4.155,4.417c0.529,1.699,0.154,3.577-1.063,5.629c-1.253,2.059-2.737,3.3-4.52,3.692
		c-1.762,0.405-3.785-0.025-6.045-1.294l-7-3.911c-2.255-1.267-3.651-2.729-4.176-4.414c-0.528-1.685-0.159-3.552,1.068-5.604
		c1.238-2.05,2.748-3.292,4.51-3.708c1.803-0.403,3.806,0.021,6.05,1.289L456.646,344.214z M439.682,369.949l2.48-3.682
		c0.093,0.068,0.227,0.164,0.422,0.292c0.18,0.124,0.312,0.216,0.4,0.272c1.104,0.693,1.967,1.094,2.567,1.158
		c0.596,0.069,1.063-0.151,1.397-0.647c0.303-0.467,0.35-0.927,0.118-1.395c-0.211-0.467-0.714-0.95-1.484-1.43l-11.746-7.389
		l-1.135,1.675l-2.707-1.718l4.562-6.777l2.737,1.716l-0.786,1.181l10.164,6.379c2.388,1.505,3.815,2.984,4.299,4.448
		c0.493,1.474,0.118,3.122-1.135,4.984c-1.1,1.656-2.363,2.676-3.755,3.051c-1.382,0.393-2.83,0.12-4.335-0.816L439.682,369.949z
		 M423.812,383.87l5.126,4.307l1.058-1.174l2.558,2.16l-4.555,5.069l-2.568-2.168l0.986-1.102l-12.213-10.29l-1.002,1.104
		l-2.45-2.064l5.383-5.983l10.318,5.177c0.359,0.165,1.191,0.604,2.506,1.3c1.31,0.706,3.138,1.713,5.511,3.015l0.186-0.216
		c-1.603-1.125-3.164-2.271-4.694-3.446c-1.531-1.176-3.015-2.359-4.469-3.579l-4.011-3.396l-1.007,1.141l-2.465-2.064l4.602-5.101
		l2.439,2.062l-0.991,1.106l14.802,12.444l-4.104,4.545l-11.546-5.572c-1.223-0.591-2.43-1.217-3.642-1.872
		c-1.222-0.645-2.46-1.332-3.718-2.074l-0.195,0.197c0.976,0.668,1.921,1.387,2.907,2.129c0.976,0.763,2.11,1.688,3.415,2.781
		L423.812,383.87z M412.852,407.195l-2.274-2.45l0.79-0.678l-9.265-17.246l4.586-3.996l16.666,10.806l0.807-0.698l2.271,2.46
		l-5.506,4.761l-2.266-2.429l1.104-0.955l-2.963-2.178l-4.012,3.497l1.859,3.107l1.176-1.017l2.271,2.441L412.852,407.195z
		 M411.219,395.367l2.984-2.614l-4.453-3.107c-0.123-0.066-0.586-0.437-1.407-1.058c-0.807-0.643-1.5-1.171-2.075-1.605
		c0.534,0.865,1.012,1.646,1.433,2.34c0.432,0.711,0.735,1.191,0.904,1.484L411.219,395.367z M399.822,416.321l-4.844-6.466
		l3.478-2.439l0.107,0.159c0.95,1.253,1.803,2.054,2.6,2.408c0.775,0.345,1.54,0.247,2.285-0.271
		c0.575-0.414,0.909-0.914,0.986-1.521c0.098-0.594-0.077-1.182-0.52-1.771c-0.431-0.589-0.98-0.971-1.648-1.177
		c-0.646-0.185-1.91-0.221-3.738-0.118c-0.263,0.021-0.638,0.047-1.156,0.098c-1.833,0.164-3.22,0.118-4.19-0.128
		c-0.627-0.195-1.218-0.493-1.767-0.904c-0.555-0.421-1.104-0.976-1.618-1.694c-1.007-1.346-1.443-2.735-1.289-4.181
		c0.164-1.413,0.863-2.573,2.096-3.434c0.765-0.542,1.541-0.848,2.347-0.938c0.781-0.087,1.639,0.062,2.609,0.419l-1.166-1.559
		l3.087-2.17l4.154,5.528l-3.431,2.409l-0.112-0.159c-0.843-1.13-1.598-1.829-2.266-2.137c-0.667-0.282-1.335-0.195-2.023,0.282
		c-0.544,0.391-0.853,0.848-0.945,1.402c-0.097,0.523,0.067,1.073,0.452,1.597c0.688,0.896,2.378,1.202,5.09,0.894
		c0.519-0.062,0.904-0.098,1.176-0.128c2.096-0.205,3.729-0.093,4.844,0.354c1.14,0.467,2.192,1.325,3.148,2.619
		c1.269,1.689,1.828,3.256,1.694,4.699c-0.154,1.456-0.996,2.732-2.526,3.801c-0.796,0.555-1.618,0.889-2.419,1.001
		c-0.843,0.113-1.675,0.011-2.507-0.344l1.207,1.633L399.822,416.321z"/>
	<path fill-rule="evenodd" clip-rule="evenodd" fill="#FFFFFF" d="M223.902,396.502l1.782-2.031l0.95,0.681l8.449-9.671l-0.95-0.684
		l1.705-1.938l6.353,4.566c1.356,0.968,2.101,1.984,2.239,3.017c0.149,1.04-0.308,2.152-1.376,3.375
		c-0.765,0.888-1.587,1.425-2.435,1.597c-0.837,0.19-1.782,0.039-2.794-0.457l-0.092,0.113c0.581,0.575,0.837,1.222,0.827,1.921
		c-0.011,0.678-0.35,1.604-1.007,2.773l-1.253,2.311l1.027,0.745l-1.772,2.041l-3.759-2.704l2.398-4.293
		c0.606-1.076,0.873-1.839,0.816-2.291c-0.077-0.446-0.472-0.924-1.176-1.423l-0.734-0.534l-3.333,3.791l0.96,0.686l-1.772,2.013
		L223.902,396.502z M234.786,391.68l1.207,0.862c0.632,0.457,1.243,0.645,1.818,0.529c0.585-0.098,1.171-0.514,1.772-1.191
		c0.58-0.676,0.863-1.279,0.842-1.808c-0.031-0.506-0.365-1.018-1.007-1.479l-1.181-0.855L234.786,391.68z M223.62,388.783
		l5.413-5.023c0.775-0.722,1.228-1.382,1.371-1.964c0.128-0.599-0.066-1.123-0.564-1.574c-0.499-0.442-1.074-0.596-1.721-0.457
		c-0.657,0.141-1.372,0.555-2.142,1.273l-5.414,5.015c-0.775,0.732-1.227,1.372-1.376,1.965c-0.128,0.591,0.057,1.114,0.57,1.566
		c0.503,0.441,1.068,0.586,1.721,0.47C222.131,389.918,222.86,389.499,223.62,388.783 M226.886,391.048
		c-1.551,1.423-3.082,2.167-4.602,2.214c-1.546,0.049-3.02-0.57-4.494-1.872c-1.474-1.308-2.198-2.647-2.157-4.024
		c0.021-1.369,0.822-2.763,2.347-4.186l4.761-4.396c1.515-1.423,3.051-2.154,4.571-2.224c1.525-0.062,3.015,0.562,4.484,1.869
		c1.464,1.294,2.188,2.64,2.157,4.017c-0.031,1.402-0.807,2.794-2.337,4.211L226.886,391.048z M213.225,382.979l0.822,0.785
		l-2.06,1.782l-4.494-4.275l2.07-1.779l0.858,0.812l9.851-8.505l-0.858-0.812l1.982-1.711l4.504,4.278l-1.988,1.7l-0.822-0.786
		L213.225,382.979z M197.479,370.004l2.208-1.651l0.766,0.847l10.493-7.857l-0.786-0.848l2.101-1.584l5.188,5.657
		c1.099,1.201,1.587,2.326,1.489,3.384c-0.098,1.035-0.801,2.053-2.111,3.036c-0.971,0.708-1.885,1.081-2.763,1.109
		c-0.868,0.021-1.736-0.312-2.625-0.977l-0.113,0.088c0.416,0.667,0.539,1.346,0.359,2.026c-0.169,0.675-0.698,1.522-1.607,2.539
		l-1.772,2.023l0.848,0.92l-2.219,1.638l-3.046-3.338l3.328-3.744c0.842-0.935,1.289-1.644,1.33-2.083
		c0.026-0.449-0.241-0.983-0.811-1.612l-0.622-0.665l-4.093,3.079l0.75,0.85l-2.188,1.646L197.479,370.004z M209.219,367.349
		l0.981,1.07c0.529,0.555,1.068,0.857,1.653,0.857c0.581,0,1.258-0.277,2.014-0.837c0.724-0.555,1.15-1.091,1.227-1.6
		c0.098-0.531-0.118-1.071-0.642-1.661l-0.956-1.043L209.219,367.349z M189.056,358.923l2.326-1.51l0.714,0.919l11.073-7.18
		l-0.724-0.914l2.213-1.441l7.319,9.248l-4.658,3.027l-2.044-2.586l2.424-1.598l-2.157-2.737l-4.114,2.66l2.337,2.969l-2.588,1.675
		l-2.332-2.948l-4.366,2.835l2.167,2.729l2.619-1.713l2.054,2.594l-4.951,3.228L189.056,358.923z M181.429,347.279l2.439-1.355
		l0.637,0.945l11.582-6.451l-0.632-0.952l2.322-1.303l3.703,5.449c1.228,1.788,1.71,3.189,1.438,4.225
		c-0.267,1.03-1.345,2.067-3.205,3.109c-1.88,1.038-3.384,1.423-4.556,1.171c-1.166-0.256-2.327-1.268-3.528-3.02l-0.904-1.355
		l-4.088,2.285l0.914,1.31l-2.445,1.371L181.429,347.279z M193.062,346.447l0.616,0.904c0.478,0.706,1.017,1.089,1.603,1.143
		c0.59,0.044,1.422-0.229,2.496-0.84c0.832-0.462,1.346-0.935,1.51-1.44c0.165-0.495,0.036-1.084-0.432-1.749l-0.616-0.894
		L193.062,346.447z M180.483,332.604l8.916-4.239l-0.488-0.868l2.409-1.16l2.881,4.997l-2.424,1.147l-0.462-0.829l-9.691,4.576
		c-0.956,0.473-1.566,0.906-1.844,1.319c-0.268,0.439-0.247,0.92,0.066,1.464c0.329,0.562,0.771,0.873,1.351,0.914
		c0.565,0.044,1.355-0.159,2.368-0.632l9.537-4.537l-0.473-0.814l2.409-1.135l2.691,4.638l-2.419,1.15l-0.514-0.889l-8.536,4.062
		c-2.229,1.053-4.073,1.454-5.521,1.202c-1.448-0.252-2.65-1.202-3.584-2.81c-0.94-1.623-1.135-3.045-0.606-4.263
		C177.079,334.694,178.378,333.593,180.483,332.604 M168.933,322.828l6.312-2.614l1.5,2.958l-0.154,0.072
		c-1.233,0.508-2.055,1.017-2.491,1.551c-0.416,0.529-0.462,1.106-0.154,1.726c0.262,0.509,0.631,0.829,1.125,0.983
		c0.493,0.156,1.027,0.121,1.618-0.128c0.549-0.229,0.965-0.578,1.248-1.046c0.272-0.457,0.513-1.371,0.714-2.753
		c0.041-0.2,0.077-0.478,0.123-0.867c0.164-1.402,0.447-2.419,0.812-3.103c0.277-0.437,0.621-0.832,1.073-1.182
		c0.442-0.349,1.001-0.667,1.695-0.949c1.315-0.545,2.568-0.647,3.77-0.312c1.176,0.329,2.044,1.02,2.568,2.072
		c0.329,0.658,0.457,1.279,0.406,1.875c-0.062,0.604-0.318,1.23-0.796,1.89l1.525-0.616l1.341,2.63l-5.383,2.222l-1.494-2.899
		l0.164-0.062c1.089-0.457,1.829-0.915,2.178-1.364c0.354-0.454,0.39-0.973,0.108-1.546c-0.247-0.475-0.575-0.772-1.022-0.909
		c-0.452-0.156-0.93-0.128-1.458,0.09c-0.858,0.37-1.397,1.582-1.587,3.654c-0.041,0.388-0.072,0.691-0.097,0.884
		c-0.175,1.59-0.55,2.763-1.115,3.554c-0.57,0.773-1.479,1.431-2.748,1.947c-1.633,0.69-3.066,0.854-4.273,0.539
		c-1.202-0.332-2.146-1.158-2.814-2.458c-0.329-0.673-0.472-1.33-0.431-1.967s0.267-1.237,0.683-1.803l-1.566,0.66L168.933,322.828z
		"/>
</g>
</svg>
